G75*
%MOIN*%
%OFA0B0*%
%FSLAX25Y25*%
%IPPOS*%
%LPD*%
%AMOC8*
5,1,8,0,0,1.08239X$1,22.5*
%
%ADD10C,0.00000*%
D10*
X0015000Y0008848D02*
X0335000Y0008848D01*
X0335140Y0008850D01*
X0335280Y0008856D01*
X0335420Y0008866D01*
X0335560Y0008879D01*
X0335699Y0008897D01*
X0335838Y0008919D01*
X0335975Y0008944D01*
X0336113Y0008973D01*
X0336249Y0009006D01*
X0336384Y0009043D01*
X0336518Y0009084D01*
X0336651Y0009129D01*
X0336783Y0009177D01*
X0336913Y0009229D01*
X0337042Y0009284D01*
X0337169Y0009343D01*
X0337295Y0009406D01*
X0337419Y0009472D01*
X0337540Y0009541D01*
X0337660Y0009614D01*
X0337778Y0009691D01*
X0337893Y0009770D01*
X0338007Y0009853D01*
X0338117Y0009939D01*
X0338226Y0010028D01*
X0338332Y0010120D01*
X0338435Y0010215D01*
X0338536Y0010312D01*
X0338633Y0010413D01*
X0338728Y0010516D01*
X0338820Y0010622D01*
X0338909Y0010731D01*
X0338995Y0010841D01*
X0339078Y0010955D01*
X0339157Y0011070D01*
X0339234Y0011188D01*
X0339307Y0011308D01*
X0339376Y0011429D01*
X0339442Y0011553D01*
X0339505Y0011679D01*
X0339564Y0011806D01*
X0339619Y0011935D01*
X0339671Y0012065D01*
X0339719Y0012197D01*
X0339764Y0012330D01*
X0339805Y0012464D01*
X0339842Y0012599D01*
X0339875Y0012735D01*
X0339904Y0012873D01*
X0339929Y0013010D01*
X0339951Y0013149D01*
X0339969Y0013288D01*
X0339982Y0013428D01*
X0339992Y0013568D01*
X0339998Y0013708D01*
X0340000Y0013848D01*
X0340004Y0014153D01*
X0340015Y0014458D01*
X0340033Y0014762D01*
X0340060Y0015066D01*
X0340093Y0015369D01*
X0340134Y0015672D01*
X0340182Y0015973D01*
X0340237Y0016273D01*
X0340300Y0016571D01*
X0340370Y0016868D01*
X0340448Y0017163D01*
X0340532Y0017456D01*
X0340624Y0017747D01*
X0340722Y0018036D01*
X0340828Y0018322D01*
X0340941Y0018605D01*
X0341060Y0018886D01*
X0341187Y0019164D01*
X0341320Y0019438D01*
X0341459Y0019709D01*
X0341606Y0019977D01*
X0341758Y0020241D01*
X0341918Y0020501D01*
X0342083Y0020757D01*
X0342255Y0021009D01*
X0342433Y0021257D01*
X0342616Y0021501D01*
X0342806Y0021740D01*
X0343002Y0021974D01*
X0343203Y0022203D01*
X0343409Y0022428D01*
X0343621Y0022647D01*
X0343839Y0022861D01*
X0344061Y0023069D01*
X0344289Y0023273D01*
X0344521Y0023470D01*
X0344758Y0023662D01*
X0345000Y0023848D01*
X0350000Y0033848D02*
X0350000Y0153848D01*
X0333701Y0148848D02*
X0333703Y0149006D01*
X0333709Y0149164D01*
X0333719Y0149322D01*
X0333733Y0149480D01*
X0333751Y0149637D01*
X0333772Y0149794D01*
X0333798Y0149950D01*
X0333828Y0150106D01*
X0333861Y0150261D01*
X0333899Y0150414D01*
X0333940Y0150567D01*
X0333985Y0150719D01*
X0334034Y0150870D01*
X0334087Y0151019D01*
X0334143Y0151167D01*
X0334203Y0151313D01*
X0334267Y0151458D01*
X0334335Y0151601D01*
X0334406Y0151743D01*
X0334480Y0151883D01*
X0334558Y0152020D01*
X0334640Y0152156D01*
X0334724Y0152290D01*
X0334813Y0152421D01*
X0334904Y0152550D01*
X0334999Y0152677D01*
X0335096Y0152802D01*
X0335197Y0152924D01*
X0335301Y0153043D01*
X0335408Y0153160D01*
X0335518Y0153274D01*
X0335631Y0153385D01*
X0335746Y0153494D01*
X0335864Y0153599D01*
X0335985Y0153701D01*
X0336108Y0153801D01*
X0336234Y0153897D01*
X0336362Y0153990D01*
X0336492Y0154080D01*
X0336625Y0154166D01*
X0336760Y0154250D01*
X0336896Y0154329D01*
X0337035Y0154406D01*
X0337176Y0154478D01*
X0337318Y0154548D01*
X0337462Y0154613D01*
X0337608Y0154675D01*
X0337755Y0154733D01*
X0337904Y0154788D01*
X0338054Y0154839D01*
X0338205Y0154886D01*
X0338357Y0154929D01*
X0338510Y0154968D01*
X0338665Y0155004D01*
X0338820Y0155035D01*
X0338976Y0155063D01*
X0339132Y0155087D01*
X0339289Y0155107D01*
X0339447Y0155123D01*
X0339604Y0155135D01*
X0339763Y0155143D01*
X0339921Y0155147D01*
X0340079Y0155147D01*
X0340237Y0155143D01*
X0340396Y0155135D01*
X0340553Y0155123D01*
X0340711Y0155107D01*
X0340868Y0155087D01*
X0341024Y0155063D01*
X0341180Y0155035D01*
X0341335Y0155004D01*
X0341490Y0154968D01*
X0341643Y0154929D01*
X0341795Y0154886D01*
X0341946Y0154839D01*
X0342096Y0154788D01*
X0342245Y0154733D01*
X0342392Y0154675D01*
X0342538Y0154613D01*
X0342682Y0154548D01*
X0342824Y0154478D01*
X0342965Y0154406D01*
X0343104Y0154329D01*
X0343240Y0154250D01*
X0343375Y0154166D01*
X0343508Y0154080D01*
X0343638Y0153990D01*
X0343766Y0153897D01*
X0343892Y0153801D01*
X0344015Y0153701D01*
X0344136Y0153599D01*
X0344254Y0153494D01*
X0344369Y0153385D01*
X0344482Y0153274D01*
X0344592Y0153160D01*
X0344699Y0153043D01*
X0344803Y0152924D01*
X0344904Y0152802D01*
X0345001Y0152677D01*
X0345096Y0152550D01*
X0345187Y0152421D01*
X0345276Y0152290D01*
X0345360Y0152156D01*
X0345442Y0152020D01*
X0345520Y0151883D01*
X0345594Y0151743D01*
X0345665Y0151601D01*
X0345733Y0151458D01*
X0345797Y0151313D01*
X0345857Y0151167D01*
X0345913Y0151019D01*
X0345966Y0150870D01*
X0346015Y0150719D01*
X0346060Y0150567D01*
X0346101Y0150414D01*
X0346139Y0150261D01*
X0346172Y0150106D01*
X0346202Y0149950D01*
X0346228Y0149794D01*
X0346249Y0149637D01*
X0346267Y0149480D01*
X0346281Y0149322D01*
X0346291Y0149164D01*
X0346297Y0149006D01*
X0346299Y0148848D01*
X0346297Y0148690D01*
X0346291Y0148532D01*
X0346281Y0148374D01*
X0346267Y0148216D01*
X0346249Y0148059D01*
X0346228Y0147902D01*
X0346202Y0147746D01*
X0346172Y0147590D01*
X0346139Y0147435D01*
X0346101Y0147282D01*
X0346060Y0147129D01*
X0346015Y0146977D01*
X0345966Y0146826D01*
X0345913Y0146677D01*
X0345857Y0146529D01*
X0345797Y0146383D01*
X0345733Y0146238D01*
X0345665Y0146095D01*
X0345594Y0145953D01*
X0345520Y0145813D01*
X0345442Y0145676D01*
X0345360Y0145540D01*
X0345276Y0145406D01*
X0345187Y0145275D01*
X0345096Y0145146D01*
X0345001Y0145019D01*
X0344904Y0144894D01*
X0344803Y0144772D01*
X0344699Y0144653D01*
X0344592Y0144536D01*
X0344482Y0144422D01*
X0344369Y0144311D01*
X0344254Y0144202D01*
X0344136Y0144097D01*
X0344015Y0143995D01*
X0343892Y0143895D01*
X0343766Y0143799D01*
X0343638Y0143706D01*
X0343508Y0143616D01*
X0343375Y0143530D01*
X0343240Y0143446D01*
X0343104Y0143367D01*
X0342965Y0143290D01*
X0342824Y0143218D01*
X0342682Y0143148D01*
X0342538Y0143083D01*
X0342392Y0143021D01*
X0342245Y0142963D01*
X0342096Y0142908D01*
X0341946Y0142857D01*
X0341795Y0142810D01*
X0341643Y0142767D01*
X0341490Y0142728D01*
X0341335Y0142692D01*
X0341180Y0142661D01*
X0341024Y0142633D01*
X0340868Y0142609D01*
X0340711Y0142589D01*
X0340553Y0142573D01*
X0340396Y0142561D01*
X0340237Y0142553D01*
X0340079Y0142549D01*
X0339921Y0142549D01*
X0339763Y0142553D01*
X0339604Y0142561D01*
X0339447Y0142573D01*
X0339289Y0142589D01*
X0339132Y0142609D01*
X0338976Y0142633D01*
X0338820Y0142661D01*
X0338665Y0142692D01*
X0338510Y0142728D01*
X0338357Y0142767D01*
X0338205Y0142810D01*
X0338054Y0142857D01*
X0337904Y0142908D01*
X0337755Y0142963D01*
X0337608Y0143021D01*
X0337462Y0143083D01*
X0337318Y0143148D01*
X0337176Y0143218D01*
X0337035Y0143290D01*
X0336896Y0143367D01*
X0336760Y0143446D01*
X0336625Y0143530D01*
X0336492Y0143616D01*
X0336362Y0143706D01*
X0336234Y0143799D01*
X0336108Y0143895D01*
X0335985Y0143995D01*
X0335864Y0144097D01*
X0335746Y0144202D01*
X0335631Y0144311D01*
X0335518Y0144422D01*
X0335408Y0144536D01*
X0335301Y0144653D01*
X0335197Y0144772D01*
X0335096Y0144894D01*
X0334999Y0145019D01*
X0334904Y0145146D01*
X0334813Y0145275D01*
X0334724Y0145406D01*
X0334640Y0145540D01*
X0334558Y0145676D01*
X0334480Y0145813D01*
X0334406Y0145953D01*
X0334335Y0146095D01*
X0334267Y0146238D01*
X0334203Y0146383D01*
X0334143Y0146529D01*
X0334087Y0146677D01*
X0334034Y0146826D01*
X0333985Y0146977D01*
X0333940Y0147129D01*
X0333899Y0147282D01*
X0333861Y0147435D01*
X0333828Y0147590D01*
X0333798Y0147746D01*
X0333772Y0147902D01*
X0333751Y0148059D01*
X0333733Y0148216D01*
X0333719Y0148374D01*
X0333709Y0148532D01*
X0333703Y0148690D01*
X0333701Y0148848D01*
X0350000Y0153848D02*
X0349996Y0154153D01*
X0349985Y0154458D01*
X0349967Y0154762D01*
X0349940Y0155066D01*
X0349907Y0155369D01*
X0349866Y0155672D01*
X0349818Y0155973D01*
X0349763Y0156273D01*
X0349700Y0156571D01*
X0349630Y0156868D01*
X0349552Y0157163D01*
X0349468Y0157456D01*
X0349376Y0157747D01*
X0349278Y0158036D01*
X0349172Y0158322D01*
X0349059Y0158605D01*
X0348940Y0158886D01*
X0348813Y0159164D01*
X0348680Y0159438D01*
X0348541Y0159709D01*
X0348394Y0159977D01*
X0348242Y0160241D01*
X0348082Y0160501D01*
X0347917Y0160757D01*
X0347745Y0161009D01*
X0347567Y0161257D01*
X0347384Y0161501D01*
X0347194Y0161740D01*
X0346998Y0161974D01*
X0346797Y0162203D01*
X0346591Y0162428D01*
X0346379Y0162647D01*
X0346161Y0162861D01*
X0345939Y0163069D01*
X0345711Y0163273D01*
X0345479Y0163470D01*
X0345242Y0163662D01*
X0345000Y0163848D01*
X0340000Y0173848D02*
X0340000Y0208848D01*
X0339997Y0209090D01*
X0339988Y0209331D01*
X0339974Y0209572D01*
X0339953Y0209813D01*
X0339927Y0210053D01*
X0339895Y0210293D01*
X0339857Y0210532D01*
X0339814Y0210769D01*
X0339764Y0211006D01*
X0339709Y0211241D01*
X0339649Y0211475D01*
X0339582Y0211707D01*
X0339511Y0211938D01*
X0339433Y0212167D01*
X0339350Y0212394D01*
X0339262Y0212619D01*
X0339168Y0212842D01*
X0339069Y0213062D01*
X0338964Y0213280D01*
X0338855Y0213495D01*
X0338740Y0213708D01*
X0338620Y0213918D01*
X0338495Y0214124D01*
X0338365Y0214328D01*
X0338230Y0214529D01*
X0338090Y0214726D01*
X0337946Y0214920D01*
X0337797Y0215110D01*
X0337643Y0215296D01*
X0337485Y0215479D01*
X0337323Y0215658D01*
X0337156Y0215833D01*
X0336985Y0216004D01*
X0336810Y0216171D01*
X0336631Y0216333D01*
X0336448Y0216491D01*
X0336262Y0216645D01*
X0336072Y0216794D01*
X0335878Y0216938D01*
X0335681Y0217078D01*
X0335480Y0217213D01*
X0335276Y0217343D01*
X0335070Y0217468D01*
X0334860Y0217588D01*
X0334647Y0217703D01*
X0334432Y0217812D01*
X0334214Y0217917D01*
X0333994Y0218016D01*
X0333771Y0218110D01*
X0333546Y0218198D01*
X0333319Y0218281D01*
X0333090Y0218359D01*
X0332859Y0218430D01*
X0332627Y0218497D01*
X0332393Y0218557D01*
X0332158Y0218612D01*
X0331921Y0218662D01*
X0331684Y0218705D01*
X0331445Y0218743D01*
X0331205Y0218775D01*
X0330965Y0218801D01*
X0330724Y0218822D01*
X0330483Y0218836D01*
X0330242Y0218845D01*
X0330000Y0218848D01*
X0015000Y0218848D01*
X0014758Y0218845D01*
X0014517Y0218836D01*
X0014276Y0218822D01*
X0014035Y0218801D01*
X0013795Y0218775D01*
X0013555Y0218743D01*
X0013316Y0218705D01*
X0013079Y0218662D01*
X0012842Y0218612D01*
X0012607Y0218557D01*
X0012373Y0218497D01*
X0012141Y0218430D01*
X0011910Y0218359D01*
X0011681Y0218281D01*
X0011454Y0218198D01*
X0011229Y0218110D01*
X0011006Y0218016D01*
X0010786Y0217917D01*
X0010568Y0217812D01*
X0010353Y0217703D01*
X0010140Y0217588D01*
X0009930Y0217468D01*
X0009724Y0217343D01*
X0009520Y0217213D01*
X0009319Y0217078D01*
X0009122Y0216938D01*
X0008928Y0216794D01*
X0008738Y0216645D01*
X0008552Y0216491D01*
X0008369Y0216333D01*
X0008190Y0216171D01*
X0008015Y0216004D01*
X0007844Y0215833D01*
X0007677Y0215658D01*
X0007515Y0215479D01*
X0007357Y0215296D01*
X0007203Y0215110D01*
X0007054Y0214920D01*
X0006910Y0214726D01*
X0006770Y0214529D01*
X0006635Y0214328D01*
X0006505Y0214124D01*
X0006380Y0213918D01*
X0006260Y0213708D01*
X0006145Y0213495D01*
X0006036Y0213280D01*
X0005931Y0213062D01*
X0005832Y0212842D01*
X0005738Y0212619D01*
X0005650Y0212394D01*
X0005567Y0212167D01*
X0005489Y0211938D01*
X0005418Y0211707D01*
X0005351Y0211475D01*
X0005291Y0211241D01*
X0005236Y0211006D01*
X0005186Y0210769D01*
X0005143Y0210532D01*
X0005105Y0210293D01*
X0005073Y0210053D01*
X0005047Y0209813D01*
X0005026Y0209572D01*
X0005012Y0209331D01*
X0005003Y0209090D01*
X0005000Y0208848D01*
X0005000Y0018848D01*
X0005003Y0018606D01*
X0005012Y0018365D01*
X0005026Y0018124D01*
X0005047Y0017883D01*
X0005073Y0017643D01*
X0005105Y0017403D01*
X0005143Y0017164D01*
X0005186Y0016927D01*
X0005236Y0016690D01*
X0005291Y0016455D01*
X0005351Y0016221D01*
X0005418Y0015989D01*
X0005489Y0015758D01*
X0005567Y0015529D01*
X0005650Y0015302D01*
X0005738Y0015077D01*
X0005832Y0014854D01*
X0005931Y0014634D01*
X0006036Y0014416D01*
X0006145Y0014201D01*
X0006260Y0013988D01*
X0006380Y0013778D01*
X0006505Y0013572D01*
X0006635Y0013368D01*
X0006770Y0013167D01*
X0006910Y0012970D01*
X0007054Y0012776D01*
X0007203Y0012586D01*
X0007357Y0012400D01*
X0007515Y0012217D01*
X0007677Y0012038D01*
X0007844Y0011863D01*
X0008015Y0011692D01*
X0008190Y0011525D01*
X0008369Y0011363D01*
X0008552Y0011205D01*
X0008738Y0011051D01*
X0008928Y0010902D01*
X0009122Y0010758D01*
X0009319Y0010618D01*
X0009520Y0010483D01*
X0009724Y0010353D01*
X0009930Y0010228D01*
X0010140Y0010108D01*
X0010353Y0009993D01*
X0010568Y0009884D01*
X0010786Y0009779D01*
X0011006Y0009680D01*
X0011229Y0009586D01*
X0011454Y0009498D01*
X0011681Y0009415D01*
X0011910Y0009337D01*
X0012141Y0009266D01*
X0012373Y0009199D01*
X0012607Y0009139D01*
X0012842Y0009084D01*
X0013079Y0009034D01*
X0013316Y0008991D01*
X0013555Y0008953D01*
X0013795Y0008921D01*
X0014035Y0008895D01*
X0014276Y0008874D01*
X0014517Y0008860D01*
X0014758Y0008851D01*
X0015000Y0008848D01*
X0128701Y0018848D02*
X0128703Y0019006D01*
X0128709Y0019164D01*
X0128719Y0019322D01*
X0128733Y0019480D01*
X0128751Y0019637D01*
X0128772Y0019794D01*
X0128798Y0019950D01*
X0128828Y0020106D01*
X0128861Y0020261D01*
X0128899Y0020414D01*
X0128940Y0020567D01*
X0128985Y0020719D01*
X0129034Y0020870D01*
X0129087Y0021019D01*
X0129143Y0021167D01*
X0129203Y0021313D01*
X0129267Y0021458D01*
X0129335Y0021601D01*
X0129406Y0021743D01*
X0129480Y0021883D01*
X0129558Y0022020D01*
X0129640Y0022156D01*
X0129724Y0022290D01*
X0129813Y0022421D01*
X0129904Y0022550D01*
X0129999Y0022677D01*
X0130096Y0022802D01*
X0130197Y0022924D01*
X0130301Y0023043D01*
X0130408Y0023160D01*
X0130518Y0023274D01*
X0130631Y0023385D01*
X0130746Y0023494D01*
X0130864Y0023599D01*
X0130985Y0023701D01*
X0131108Y0023801D01*
X0131234Y0023897D01*
X0131362Y0023990D01*
X0131492Y0024080D01*
X0131625Y0024166D01*
X0131760Y0024250D01*
X0131896Y0024329D01*
X0132035Y0024406D01*
X0132176Y0024478D01*
X0132318Y0024548D01*
X0132462Y0024613D01*
X0132608Y0024675D01*
X0132755Y0024733D01*
X0132904Y0024788D01*
X0133054Y0024839D01*
X0133205Y0024886D01*
X0133357Y0024929D01*
X0133510Y0024968D01*
X0133665Y0025004D01*
X0133820Y0025035D01*
X0133976Y0025063D01*
X0134132Y0025087D01*
X0134289Y0025107D01*
X0134447Y0025123D01*
X0134604Y0025135D01*
X0134763Y0025143D01*
X0134921Y0025147D01*
X0135079Y0025147D01*
X0135237Y0025143D01*
X0135396Y0025135D01*
X0135553Y0025123D01*
X0135711Y0025107D01*
X0135868Y0025087D01*
X0136024Y0025063D01*
X0136180Y0025035D01*
X0136335Y0025004D01*
X0136490Y0024968D01*
X0136643Y0024929D01*
X0136795Y0024886D01*
X0136946Y0024839D01*
X0137096Y0024788D01*
X0137245Y0024733D01*
X0137392Y0024675D01*
X0137538Y0024613D01*
X0137682Y0024548D01*
X0137824Y0024478D01*
X0137965Y0024406D01*
X0138104Y0024329D01*
X0138240Y0024250D01*
X0138375Y0024166D01*
X0138508Y0024080D01*
X0138638Y0023990D01*
X0138766Y0023897D01*
X0138892Y0023801D01*
X0139015Y0023701D01*
X0139136Y0023599D01*
X0139254Y0023494D01*
X0139369Y0023385D01*
X0139482Y0023274D01*
X0139592Y0023160D01*
X0139699Y0023043D01*
X0139803Y0022924D01*
X0139904Y0022802D01*
X0140001Y0022677D01*
X0140096Y0022550D01*
X0140187Y0022421D01*
X0140276Y0022290D01*
X0140360Y0022156D01*
X0140442Y0022020D01*
X0140520Y0021883D01*
X0140594Y0021743D01*
X0140665Y0021601D01*
X0140733Y0021458D01*
X0140797Y0021313D01*
X0140857Y0021167D01*
X0140913Y0021019D01*
X0140966Y0020870D01*
X0141015Y0020719D01*
X0141060Y0020567D01*
X0141101Y0020414D01*
X0141139Y0020261D01*
X0141172Y0020106D01*
X0141202Y0019950D01*
X0141228Y0019794D01*
X0141249Y0019637D01*
X0141267Y0019480D01*
X0141281Y0019322D01*
X0141291Y0019164D01*
X0141297Y0019006D01*
X0141299Y0018848D01*
X0141297Y0018690D01*
X0141291Y0018532D01*
X0141281Y0018374D01*
X0141267Y0018216D01*
X0141249Y0018059D01*
X0141228Y0017902D01*
X0141202Y0017746D01*
X0141172Y0017590D01*
X0141139Y0017435D01*
X0141101Y0017282D01*
X0141060Y0017129D01*
X0141015Y0016977D01*
X0140966Y0016826D01*
X0140913Y0016677D01*
X0140857Y0016529D01*
X0140797Y0016383D01*
X0140733Y0016238D01*
X0140665Y0016095D01*
X0140594Y0015953D01*
X0140520Y0015813D01*
X0140442Y0015676D01*
X0140360Y0015540D01*
X0140276Y0015406D01*
X0140187Y0015275D01*
X0140096Y0015146D01*
X0140001Y0015019D01*
X0139904Y0014894D01*
X0139803Y0014772D01*
X0139699Y0014653D01*
X0139592Y0014536D01*
X0139482Y0014422D01*
X0139369Y0014311D01*
X0139254Y0014202D01*
X0139136Y0014097D01*
X0139015Y0013995D01*
X0138892Y0013895D01*
X0138766Y0013799D01*
X0138638Y0013706D01*
X0138508Y0013616D01*
X0138375Y0013530D01*
X0138240Y0013446D01*
X0138104Y0013367D01*
X0137965Y0013290D01*
X0137824Y0013218D01*
X0137682Y0013148D01*
X0137538Y0013083D01*
X0137392Y0013021D01*
X0137245Y0012963D01*
X0137096Y0012908D01*
X0136946Y0012857D01*
X0136795Y0012810D01*
X0136643Y0012767D01*
X0136490Y0012728D01*
X0136335Y0012692D01*
X0136180Y0012661D01*
X0136024Y0012633D01*
X0135868Y0012609D01*
X0135711Y0012589D01*
X0135553Y0012573D01*
X0135396Y0012561D01*
X0135237Y0012553D01*
X0135079Y0012549D01*
X0134921Y0012549D01*
X0134763Y0012553D01*
X0134604Y0012561D01*
X0134447Y0012573D01*
X0134289Y0012589D01*
X0134132Y0012609D01*
X0133976Y0012633D01*
X0133820Y0012661D01*
X0133665Y0012692D01*
X0133510Y0012728D01*
X0133357Y0012767D01*
X0133205Y0012810D01*
X0133054Y0012857D01*
X0132904Y0012908D01*
X0132755Y0012963D01*
X0132608Y0013021D01*
X0132462Y0013083D01*
X0132318Y0013148D01*
X0132176Y0013218D01*
X0132035Y0013290D01*
X0131896Y0013367D01*
X0131760Y0013446D01*
X0131625Y0013530D01*
X0131492Y0013616D01*
X0131362Y0013706D01*
X0131234Y0013799D01*
X0131108Y0013895D01*
X0130985Y0013995D01*
X0130864Y0014097D01*
X0130746Y0014202D01*
X0130631Y0014311D01*
X0130518Y0014422D01*
X0130408Y0014536D01*
X0130301Y0014653D01*
X0130197Y0014772D01*
X0130096Y0014894D01*
X0129999Y0015019D01*
X0129904Y0015146D01*
X0129813Y0015275D01*
X0129724Y0015406D01*
X0129640Y0015540D01*
X0129558Y0015676D01*
X0129480Y0015813D01*
X0129406Y0015953D01*
X0129335Y0016095D01*
X0129267Y0016238D01*
X0129203Y0016383D01*
X0129143Y0016529D01*
X0129087Y0016677D01*
X0129034Y0016826D01*
X0128985Y0016977D01*
X0128940Y0017129D01*
X0128899Y0017282D01*
X0128861Y0017435D01*
X0128828Y0017590D01*
X0128798Y0017746D01*
X0128772Y0017902D01*
X0128751Y0018059D01*
X0128733Y0018216D01*
X0128719Y0018374D01*
X0128709Y0018532D01*
X0128703Y0018690D01*
X0128701Y0018848D01*
X0345000Y0023848D02*
X0345242Y0024034D01*
X0345479Y0024226D01*
X0345711Y0024423D01*
X0345939Y0024627D01*
X0346161Y0024835D01*
X0346379Y0025049D01*
X0346591Y0025268D01*
X0346797Y0025493D01*
X0346998Y0025722D01*
X0347194Y0025956D01*
X0347384Y0026195D01*
X0347567Y0026439D01*
X0347745Y0026687D01*
X0347917Y0026939D01*
X0348082Y0027195D01*
X0348242Y0027455D01*
X0348394Y0027719D01*
X0348541Y0027987D01*
X0348680Y0028258D01*
X0348813Y0028532D01*
X0348940Y0028810D01*
X0349059Y0029091D01*
X0349172Y0029374D01*
X0349278Y0029660D01*
X0349376Y0029949D01*
X0349468Y0030240D01*
X0349552Y0030533D01*
X0349630Y0030828D01*
X0349700Y0031125D01*
X0349763Y0031423D01*
X0349818Y0031723D01*
X0349866Y0032024D01*
X0349907Y0032327D01*
X0349940Y0032630D01*
X0349967Y0032934D01*
X0349985Y0033238D01*
X0349996Y0033543D01*
X0350000Y0033848D01*
X0333701Y0038848D02*
X0333703Y0039006D01*
X0333709Y0039164D01*
X0333719Y0039322D01*
X0333733Y0039480D01*
X0333751Y0039637D01*
X0333772Y0039794D01*
X0333798Y0039950D01*
X0333828Y0040106D01*
X0333861Y0040261D01*
X0333899Y0040414D01*
X0333940Y0040567D01*
X0333985Y0040719D01*
X0334034Y0040870D01*
X0334087Y0041019D01*
X0334143Y0041167D01*
X0334203Y0041313D01*
X0334267Y0041458D01*
X0334335Y0041601D01*
X0334406Y0041743D01*
X0334480Y0041883D01*
X0334558Y0042020D01*
X0334640Y0042156D01*
X0334724Y0042290D01*
X0334813Y0042421D01*
X0334904Y0042550D01*
X0334999Y0042677D01*
X0335096Y0042802D01*
X0335197Y0042924D01*
X0335301Y0043043D01*
X0335408Y0043160D01*
X0335518Y0043274D01*
X0335631Y0043385D01*
X0335746Y0043494D01*
X0335864Y0043599D01*
X0335985Y0043701D01*
X0336108Y0043801D01*
X0336234Y0043897D01*
X0336362Y0043990D01*
X0336492Y0044080D01*
X0336625Y0044166D01*
X0336760Y0044250D01*
X0336896Y0044329D01*
X0337035Y0044406D01*
X0337176Y0044478D01*
X0337318Y0044548D01*
X0337462Y0044613D01*
X0337608Y0044675D01*
X0337755Y0044733D01*
X0337904Y0044788D01*
X0338054Y0044839D01*
X0338205Y0044886D01*
X0338357Y0044929D01*
X0338510Y0044968D01*
X0338665Y0045004D01*
X0338820Y0045035D01*
X0338976Y0045063D01*
X0339132Y0045087D01*
X0339289Y0045107D01*
X0339447Y0045123D01*
X0339604Y0045135D01*
X0339763Y0045143D01*
X0339921Y0045147D01*
X0340079Y0045147D01*
X0340237Y0045143D01*
X0340396Y0045135D01*
X0340553Y0045123D01*
X0340711Y0045107D01*
X0340868Y0045087D01*
X0341024Y0045063D01*
X0341180Y0045035D01*
X0341335Y0045004D01*
X0341490Y0044968D01*
X0341643Y0044929D01*
X0341795Y0044886D01*
X0341946Y0044839D01*
X0342096Y0044788D01*
X0342245Y0044733D01*
X0342392Y0044675D01*
X0342538Y0044613D01*
X0342682Y0044548D01*
X0342824Y0044478D01*
X0342965Y0044406D01*
X0343104Y0044329D01*
X0343240Y0044250D01*
X0343375Y0044166D01*
X0343508Y0044080D01*
X0343638Y0043990D01*
X0343766Y0043897D01*
X0343892Y0043801D01*
X0344015Y0043701D01*
X0344136Y0043599D01*
X0344254Y0043494D01*
X0344369Y0043385D01*
X0344482Y0043274D01*
X0344592Y0043160D01*
X0344699Y0043043D01*
X0344803Y0042924D01*
X0344904Y0042802D01*
X0345001Y0042677D01*
X0345096Y0042550D01*
X0345187Y0042421D01*
X0345276Y0042290D01*
X0345360Y0042156D01*
X0345442Y0042020D01*
X0345520Y0041883D01*
X0345594Y0041743D01*
X0345665Y0041601D01*
X0345733Y0041458D01*
X0345797Y0041313D01*
X0345857Y0041167D01*
X0345913Y0041019D01*
X0345966Y0040870D01*
X0346015Y0040719D01*
X0346060Y0040567D01*
X0346101Y0040414D01*
X0346139Y0040261D01*
X0346172Y0040106D01*
X0346202Y0039950D01*
X0346228Y0039794D01*
X0346249Y0039637D01*
X0346267Y0039480D01*
X0346281Y0039322D01*
X0346291Y0039164D01*
X0346297Y0039006D01*
X0346299Y0038848D01*
X0346297Y0038690D01*
X0346291Y0038532D01*
X0346281Y0038374D01*
X0346267Y0038216D01*
X0346249Y0038059D01*
X0346228Y0037902D01*
X0346202Y0037746D01*
X0346172Y0037590D01*
X0346139Y0037435D01*
X0346101Y0037282D01*
X0346060Y0037129D01*
X0346015Y0036977D01*
X0345966Y0036826D01*
X0345913Y0036677D01*
X0345857Y0036529D01*
X0345797Y0036383D01*
X0345733Y0036238D01*
X0345665Y0036095D01*
X0345594Y0035953D01*
X0345520Y0035813D01*
X0345442Y0035676D01*
X0345360Y0035540D01*
X0345276Y0035406D01*
X0345187Y0035275D01*
X0345096Y0035146D01*
X0345001Y0035019D01*
X0344904Y0034894D01*
X0344803Y0034772D01*
X0344699Y0034653D01*
X0344592Y0034536D01*
X0344482Y0034422D01*
X0344369Y0034311D01*
X0344254Y0034202D01*
X0344136Y0034097D01*
X0344015Y0033995D01*
X0343892Y0033895D01*
X0343766Y0033799D01*
X0343638Y0033706D01*
X0343508Y0033616D01*
X0343375Y0033530D01*
X0343240Y0033446D01*
X0343104Y0033367D01*
X0342965Y0033290D01*
X0342824Y0033218D01*
X0342682Y0033148D01*
X0342538Y0033083D01*
X0342392Y0033021D01*
X0342245Y0032963D01*
X0342096Y0032908D01*
X0341946Y0032857D01*
X0341795Y0032810D01*
X0341643Y0032767D01*
X0341490Y0032728D01*
X0341335Y0032692D01*
X0341180Y0032661D01*
X0341024Y0032633D01*
X0340868Y0032609D01*
X0340711Y0032589D01*
X0340553Y0032573D01*
X0340396Y0032561D01*
X0340237Y0032553D01*
X0340079Y0032549D01*
X0339921Y0032549D01*
X0339763Y0032553D01*
X0339604Y0032561D01*
X0339447Y0032573D01*
X0339289Y0032589D01*
X0339132Y0032609D01*
X0338976Y0032633D01*
X0338820Y0032661D01*
X0338665Y0032692D01*
X0338510Y0032728D01*
X0338357Y0032767D01*
X0338205Y0032810D01*
X0338054Y0032857D01*
X0337904Y0032908D01*
X0337755Y0032963D01*
X0337608Y0033021D01*
X0337462Y0033083D01*
X0337318Y0033148D01*
X0337176Y0033218D01*
X0337035Y0033290D01*
X0336896Y0033367D01*
X0336760Y0033446D01*
X0336625Y0033530D01*
X0336492Y0033616D01*
X0336362Y0033706D01*
X0336234Y0033799D01*
X0336108Y0033895D01*
X0335985Y0033995D01*
X0335864Y0034097D01*
X0335746Y0034202D01*
X0335631Y0034311D01*
X0335518Y0034422D01*
X0335408Y0034536D01*
X0335301Y0034653D01*
X0335197Y0034772D01*
X0335096Y0034894D01*
X0334999Y0035019D01*
X0334904Y0035146D01*
X0334813Y0035275D01*
X0334724Y0035406D01*
X0334640Y0035540D01*
X0334558Y0035676D01*
X0334480Y0035813D01*
X0334406Y0035953D01*
X0334335Y0036095D01*
X0334267Y0036238D01*
X0334203Y0036383D01*
X0334143Y0036529D01*
X0334087Y0036677D01*
X0334034Y0036826D01*
X0333985Y0036977D01*
X0333940Y0037129D01*
X0333899Y0037282D01*
X0333861Y0037435D01*
X0333828Y0037590D01*
X0333798Y0037746D01*
X0333772Y0037902D01*
X0333751Y0038059D01*
X0333733Y0038216D01*
X0333719Y0038374D01*
X0333709Y0038532D01*
X0333703Y0038690D01*
X0333701Y0038848D01*
X0345000Y0163848D02*
X0344758Y0164034D01*
X0344521Y0164226D01*
X0344289Y0164423D01*
X0344061Y0164627D01*
X0343839Y0164835D01*
X0343621Y0165049D01*
X0343409Y0165268D01*
X0343203Y0165493D01*
X0343002Y0165722D01*
X0342806Y0165956D01*
X0342616Y0166195D01*
X0342433Y0166439D01*
X0342255Y0166687D01*
X0342083Y0166939D01*
X0341918Y0167195D01*
X0341758Y0167455D01*
X0341606Y0167719D01*
X0341459Y0167987D01*
X0341320Y0168258D01*
X0341187Y0168532D01*
X0341060Y0168810D01*
X0340941Y0169091D01*
X0340828Y0169374D01*
X0340722Y0169660D01*
X0340624Y0169949D01*
X0340532Y0170240D01*
X0340448Y0170533D01*
X0340370Y0170828D01*
X0340300Y0171125D01*
X0340237Y0171423D01*
X0340182Y0171723D01*
X0340134Y0172024D01*
X0340093Y0172327D01*
X0340060Y0172630D01*
X0340033Y0172934D01*
X0340015Y0173238D01*
X0340004Y0173543D01*
X0340000Y0173848D01*
X0133701Y0208848D02*
X0133703Y0209006D01*
X0133709Y0209164D01*
X0133719Y0209322D01*
X0133733Y0209480D01*
X0133751Y0209637D01*
X0133772Y0209794D01*
X0133798Y0209950D01*
X0133828Y0210106D01*
X0133861Y0210261D01*
X0133899Y0210414D01*
X0133940Y0210567D01*
X0133985Y0210719D01*
X0134034Y0210870D01*
X0134087Y0211019D01*
X0134143Y0211167D01*
X0134203Y0211313D01*
X0134267Y0211458D01*
X0134335Y0211601D01*
X0134406Y0211743D01*
X0134480Y0211883D01*
X0134558Y0212020D01*
X0134640Y0212156D01*
X0134724Y0212290D01*
X0134813Y0212421D01*
X0134904Y0212550D01*
X0134999Y0212677D01*
X0135096Y0212802D01*
X0135197Y0212924D01*
X0135301Y0213043D01*
X0135408Y0213160D01*
X0135518Y0213274D01*
X0135631Y0213385D01*
X0135746Y0213494D01*
X0135864Y0213599D01*
X0135985Y0213701D01*
X0136108Y0213801D01*
X0136234Y0213897D01*
X0136362Y0213990D01*
X0136492Y0214080D01*
X0136625Y0214166D01*
X0136760Y0214250D01*
X0136896Y0214329D01*
X0137035Y0214406D01*
X0137176Y0214478D01*
X0137318Y0214548D01*
X0137462Y0214613D01*
X0137608Y0214675D01*
X0137755Y0214733D01*
X0137904Y0214788D01*
X0138054Y0214839D01*
X0138205Y0214886D01*
X0138357Y0214929D01*
X0138510Y0214968D01*
X0138665Y0215004D01*
X0138820Y0215035D01*
X0138976Y0215063D01*
X0139132Y0215087D01*
X0139289Y0215107D01*
X0139447Y0215123D01*
X0139604Y0215135D01*
X0139763Y0215143D01*
X0139921Y0215147D01*
X0140079Y0215147D01*
X0140237Y0215143D01*
X0140396Y0215135D01*
X0140553Y0215123D01*
X0140711Y0215107D01*
X0140868Y0215087D01*
X0141024Y0215063D01*
X0141180Y0215035D01*
X0141335Y0215004D01*
X0141490Y0214968D01*
X0141643Y0214929D01*
X0141795Y0214886D01*
X0141946Y0214839D01*
X0142096Y0214788D01*
X0142245Y0214733D01*
X0142392Y0214675D01*
X0142538Y0214613D01*
X0142682Y0214548D01*
X0142824Y0214478D01*
X0142965Y0214406D01*
X0143104Y0214329D01*
X0143240Y0214250D01*
X0143375Y0214166D01*
X0143508Y0214080D01*
X0143638Y0213990D01*
X0143766Y0213897D01*
X0143892Y0213801D01*
X0144015Y0213701D01*
X0144136Y0213599D01*
X0144254Y0213494D01*
X0144369Y0213385D01*
X0144482Y0213274D01*
X0144592Y0213160D01*
X0144699Y0213043D01*
X0144803Y0212924D01*
X0144904Y0212802D01*
X0145001Y0212677D01*
X0145096Y0212550D01*
X0145187Y0212421D01*
X0145276Y0212290D01*
X0145360Y0212156D01*
X0145442Y0212020D01*
X0145520Y0211883D01*
X0145594Y0211743D01*
X0145665Y0211601D01*
X0145733Y0211458D01*
X0145797Y0211313D01*
X0145857Y0211167D01*
X0145913Y0211019D01*
X0145966Y0210870D01*
X0146015Y0210719D01*
X0146060Y0210567D01*
X0146101Y0210414D01*
X0146139Y0210261D01*
X0146172Y0210106D01*
X0146202Y0209950D01*
X0146228Y0209794D01*
X0146249Y0209637D01*
X0146267Y0209480D01*
X0146281Y0209322D01*
X0146291Y0209164D01*
X0146297Y0209006D01*
X0146299Y0208848D01*
X0146297Y0208690D01*
X0146291Y0208532D01*
X0146281Y0208374D01*
X0146267Y0208216D01*
X0146249Y0208059D01*
X0146228Y0207902D01*
X0146202Y0207746D01*
X0146172Y0207590D01*
X0146139Y0207435D01*
X0146101Y0207282D01*
X0146060Y0207129D01*
X0146015Y0206977D01*
X0145966Y0206826D01*
X0145913Y0206677D01*
X0145857Y0206529D01*
X0145797Y0206383D01*
X0145733Y0206238D01*
X0145665Y0206095D01*
X0145594Y0205953D01*
X0145520Y0205813D01*
X0145442Y0205676D01*
X0145360Y0205540D01*
X0145276Y0205406D01*
X0145187Y0205275D01*
X0145096Y0205146D01*
X0145001Y0205019D01*
X0144904Y0204894D01*
X0144803Y0204772D01*
X0144699Y0204653D01*
X0144592Y0204536D01*
X0144482Y0204422D01*
X0144369Y0204311D01*
X0144254Y0204202D01*
X0144136Y0204097D01*
X0144015Y0203995D01*
X0143892Y0203895D01*
X0143766Y0203799D01*
X0143638Y0203706D01*
X0143508Y0203616D01*
X0143375Y0203530D01*
X0143240Y0203446D01*
X0143104Y0203367D01*
X0142965Y0203290D01*
X0142824Y0203218D01*
X0142682Y0203148D01*
X0142538Y0203083D01*
X0142392Y0203021D01*
X0142245Y0202963D01*
X0142096Y0202908D01*
X0141946Y0202857D01*
X0141795Y0202810D01*
X0141643Y0202767D01*
X0141490Y0202728D01*
X0141335Y0202692D01*
X0141180Y0202661D01*
X0141024Y0202633D01*
X0140868Y0202609D01*
X0140711Y0202589D01*
X0140553Y0202573D01*
X0140396Y0202561D01*
X0140237Y0202553D01*
X0140079Y0202549D01*
X0139921Y0202549D01*
X0139763Y0202553D01*
X0139604Y0202561D01*
X0139447Y0202573D01*
X0139289Y0202589D01*
X0139132Y0202609D01*
X0138976Y0202633D01*
X0138820Y0202661D01*
X0138665Y0202692D01*
X0138510Y0202728D01*
X0138357Y0202767D01*
X0138205Y0202810D01*
X0138054Y0202857D01*
X0137904Y0202908D01*
X0137755Y0202963D01*
X0137608Y0203021D01*
X0137462Y0203083D01*
X0137318Y0203148D01*
X0137176Y0203218D01*
X0137035Y0203290D01*
X0136896Y0203367D01*
X0136760Y0203446D01*
X0136625Y0203530D01*
X0136492Y0203616D01*
X0136362Y0203706D01*
X0136234Y0203799D01*
X0136108Y0203895D01*
X0135985Y0203995D01*
X0135864Y0204097D01*
X0135746Y0204202D01*
X0135631Y0204311D01*
X0135518Y0204422D01*
X0135408Y0204536D01*
X0135301Y0204653D01*
X0135197Y0204772D01*
X0135096Y0204894D01*
X0134999Y0205019D01*
X0134904Y0205146D01*
X0134813Y0205275D01*
X0134724Y0205406D01*
X0134640Y0205540D01*
X0134558Y0205676D01*
X0134480Y0205813D01*
X0134406Y0205953D01*
X0134335Y0206095D01*
X0134267Y0206238D01*
X0134203Y0206383D01*
X0134143Y0206529D01*
X0134087Y0206677D01*
X0134034Y0206826D01*
X0133985Y0206977D01*
X0133940Y0207129D01*
X0133899Y0207282D01*
X0133861Y0207435D01*
X0133828Y0207590D01*
X0133798Y0207746D01*
X0133772Y0207902D01*
X0133751Y0208059D01*
X0133733Y0208216D01*
X0133719Y0208374D01*
X0133709Y0208532D01*
X0133703Y0208690D01*
X0133701Y0208848D01*
M02*
