G75*
%MOIN*%
%OFA0B0*%
%FSLAX25Y25*%
%IPPOS*%
%LPD*%
%AMOC8*
5,1,8,0,0,1.08239X$1,22.5*
%
%ADD10R,0.08200X0.08200*%
%ADD11C,0.08200*%
%ADD12C,0.07200*%
%ADD13OC8,0.07400*%
%ADD14OC8,0.07800*%
%ADD15R,0.07800X0.07800*%
%ADD16C,0.13398*%
%ADD17C,0.06743*%
%ADD18C,0.07924*%
D10*
X0030000Y0203848D03*
X0055000Y0203848D03*
D11*
X0025000Y0018848D03*
X0035000Y0018848D03*
X0045000Y0018848D03*
X0055000Y0018848D03*
X0055000Y0028848D03*
X0045000Y0028848D03*
X0035000Y0028848D03*
X0025000Y0028848D03*
X0030000Y0153848D03*
X0030000Y0163848D03*
X0030000Y0173848D03*
X0030000Y0183848D03*
X0030000Y0193848D03*
X0055000Y0193848D03*
X0055000Y0183848D03*
X0055000Y0173848D03*
X0055000Y0163848D03*
X0055000Y0153848D03*
D12*
X0195000Y0088848D03*
X0205000Y0088848D03*
X0215000Y0088848D03*
X0225000Y0088848D03*
X0235000Y0088848D03*
X0245000Y0088848D03*
X0255000Y0088848D03*
X0265000Y0088848D03*
X0275000Y0088848D03*
X0285000Y0088848D03*
X0295000Y0088848D03*
X0305000Y0088848D03*
X0315000Y0088848D03*
X0325000Y0088848D03*
X0325000Y0058848D03*
X0315000Y0058848D03*
X0305000Y0058848D03*
X0295000Y0058848D03*
X0285000Y0058848D03*
X0275000Y0058848D03*
X0265000Y0058848D03*
X0255000Y0058848D03*
X0245000Y0058848D03*
X0235000Y0058848D03*
X0225000Y0058848D03*
X0215000Y0058848D03*
X0205000Y0058848D03*
X0195000Y0058848D03*
D13*
X0190000Y0018848D03*
X0200000Y0018848D03*
X0210000Y0018848D03*
X0220000Y0018848D03*
X0230000Y0018848D03*
X0240000Y0018848D03*
X0250000Y0018848D03*
X0260000Y0018848D03*
X0280000Y0018848D03*
X0290000Y0018848D03*
X0300000Y0018848D03*
X0310000Y0018848D03*
X0320000Y0018848D03*
X0330000Y0018848D03*
X0315000Y0143848D03*
X0305000Y0143848D03*
X0300000Y0208848D03*
X0290000Y0208848D03*
X0280000Y0208848D03*
X0270000Y0208848D03*
X0260000Y0208848D03*
X0244000Y0208848D03*
X0234000Y0208848D03*
X0224000Y0208848D03*
X0214000Y0208848D03*
X0204000Y0208848D03*
X0194000Y0208848D03*
X0184000Y0208848D03*
X0174000Y0208848D03*
X0164000Y0208848D03*
X0154000Y0208848D03*
X0160000Y0163848D03*
X0170000Y0163848D03*
X0310000Y0208848D03*
X0320000Y0208848D03*
X0330000Y0208848D03*
D14*
X0340500Y0128848D03*
X0340500Y0118848D03*
X0330500Y0118848D03*
X0330500Y0108848D03*
X0340500Y0108848D03*
D15*
X0330500Y0128848D03*
D16*
X0340000Y0148848D03*
X0340000Y0038848D03*
X0135000Y0018848D03*
X0140000Y0208848D03*
D17*
X0114843Y0024478D03*
X0095157Y0024478D03*
D18*
X0091220Y0013848D03*
X0118780Y0013848D03*
M02*
