G75*
%MOIN*%
%OFA0B0*%
%FSLAX25Y25*%
%IPPOS*%
%LPD*%
%AMOC8*
5,1,8,0,0,1.08239X$1,22.5*
%
%ADD10R,0.04724X0.09843*%
%ADD11R,0.07087X0.06299*%
%ADD12R,0.07400X0.07400*%
%ADD13C,0.07400*%
%ADD14C,0.06400*%
%ADD15OC8,0.06600*%
%ADD16R,0.06299X0.07087*%
%ADD17C,0.02756*%
%ADD18R,0.06300X0.03300*%
%ADD19R,0.06300X0.12200*%
%ADD20C,0.01000*%
%ADD21C,0.01772*%
%ADD22OC8,0.07000*%
%ADD23R,0.07000X0.07000*%
%ADD24R,0.05512X0.11811*%
%ADD25R,0.06299X0.05512*%
%ADD26R,0.02500X0.05000*%
%ADD27R,0.01772X0.05315*%
%ADD28C,0.05943*%
%ADD29C,0.07124*%
%ADD30R,0.05906X0.06102*%
%ADD31R,0.05000X0.10000*%
%ADD32C,0.01600*%
%ADD33C,0.03200*%
%ADD34C,0.04362*%
%ADD35C,0.04000*%
%ADD36C,0.02000*%
D10*
X0153504Y0021348D03*
X0166496Y0021348D03*
D11*
X0073125Y0043337D03*
X0073125Y0054360D03*
X0073125Y0070837D03*
X0073125Y0081860D03*
X0065000Y0123337D03*
X0050000Y0123337D03*
X0050000Y0134360D03*
X0065000Y0134360D03*
X0035000Y0134360D03*
X0020000Y0134360D03*
X0020000Y0123337D03*
X0035000Y0123337D03*
X0015000Y0188337D03*
X0015000Y0199360D03*
X0305000Y0129360D03*
X0305000Y0118337D03*
D12*
X0055000Y0203848D03*
X0030000Y0203848D03*
D13*
X0030000Y0193848D03*
X0030000Y0183848D03*
X0030000Y0173848D03*
X0030000Y0163848D03*
X0030000Y0153848D03*
X0055000Y0153848D03*
X0055000Y0163848D03*
X0055000Y0173848D03*
X0055000Y0183848D03*
X0055000Y0193848D03*
X0055000Y0028848D03*
X0045000Y0028848D03*
X0035000Y0028848D03*
X0025000Y0028848D03*
X0025000Y0018848D03*
X0035000Y0018848D03*
X0045000Y0018848D03*
X0055000Y0018848D03*
D14*
X0195000Y0058848D03*
X0205000Y0058848D03*
X0215000Y0058848D03*
X0225000Y0058848D03*
X0235000Y0058848D03*
X0245000Y0058848D03*
X0255000Y0058848D03*
X0265000Y0058848D03*
X0275000Y0058848D03*
X0285000Y0058848D03*
X0295000Y0058848D03*
X0305000Y0058848D03*
X0315000Y0058848D03*
X0325000Y0058848D03*
X0325000Y0088848D03*
X0315000Y0088848D03*
X0305000Y0088848D03*
X0295000Y0088848D03*
X0285000Y0088848D03*
X0275000Y0088848D03*
X0265000Y0088848D03*
X0255000Y0088848D03*
X0245000Y0088848D03*
X0235000Y0088848D03*
X0225000Y0088848D03*
X0215000Y0088848D03*
X0205000Y0088848D03*
X0195000Y0088848D03*
D15*
X0305000Y0143848D03*
X0315000Y0143848D03*
X0310000Y0208848D03*
X0320000Y0208848D03*
X0330000Y0208848D03*
X0300000Y0208848D03*
X0290000Y0208848D03*
X0280000Y0208848D03*
X0270000Y0208848D03*
X0260000Y0208848D03*
X0244000Y0208848D03*
X0234000Y0208848D03*
X0224000Y0208848D03*
X0214000Y0208848D03*
X0204000Y0208848D03*
X0194000Y0208848D03*
X0184000Y0208848D03*
X0174000Y0208848D03*
X0164000Y0208848D03*
X0154000Y0208848D03*
X0160000Y0163848D03*
X0170000Y0163848D03*
X0190000Y0018848D03*
X0200000Y0018848D03*
X0210000Y0018848D03*
X0220000Y0018848D03*
X0230000Y0018848D03*
X0240000Y0018848D03*
X0250000Y0018848D03*
X0260000Y0018848D03*
X0280000Y0018848D03*
X0290000Y0018848D03*
X0300000Y0018848D03*
X0310000Y0018848D03*
X0320000Y0018848D03*
X0330000Y0018848D03*
D16*
X0145512Y0163848D03*
X0134488Y0163848D03*
X0134488Y0188848D03*
X0145512Y0188848D03*
D17*
X0125669Y0191368D02*
X0120157Y0191368D01*
X0125669Y0191368D02*
X0125669Y0188612D01*
X0120157Y0188612D01*
X0120157Y0191368D01*
X0120157Y0191230D02*
X0125669Y0191230D01*
X0125669Y0209085D02*
X0120157Y0209085D01*
X0125669Y0209085D02*
X0125669Y0206329D01*
X0120157Y0206329D01*
X0120157Y0209085D01*
X0120157Y0208947D02*
X0125669Y0208947D01*
X0089843Y0209085D02*
X0084331Y0209085D01*
X0089843Y0209085D02*
X0089843Y0206329D01*
X0084331Y0206329D01*
X0084331Y0209085D01*
X0084331Y0208947D02*
X0089843Y0208947D01*
X0089843Y0191368D02*
X0084331Y0191368D01*
X0089843Y0191368D02*
X0089843Y0188612D01*
X0084331Y0188612D01*
X0084331Y0191368D01*
X0084331Y0191230D02*
X0089843Y0191230D01*
X0089843Y0101329D02*
X0084331Y0101329D01*
X0084331Y0104085D01*
X0089843Y0104085D01*
X0089843Y0101329D01*
X0089843Y0103947D02*
X0084331Y0103947D01*
X0084331Y0083612D02*
X0089843Y0083612D01*
X0084331Y0083612D02*
X0084331Y0086368D01*
X0089843Y0086368D01*
X0089843Y0083612D01*
X0089843Y0086230D02*
X0084331Y0086230D01*
X0120157Y0083612D02*
X0125669Y0083612D01*
X0120157Y0083612D02*
X0120157Y0086368D01*
X0125669Y0086368D01*
X0125669Y0083612D01*
X0125669Y0086230D02*
X0120157Y0086230D01*
X0120157Y0101329D02*
X0125669Y0101329D01*
X0120157Y0101329D02*
X0120157Y0104085D01*
X0125669Y0104085D01*
X0125669Y0101329D01*
X0125669Y0103947D02*
X0120157Y0103947D01*
D18*
X0137400Y0057948D03*
X0137400Y0048848D03*
X0137400Y0039748D03*
D19*
X0162600Y0048848D03*
D20*
X0235276Y0102348D02*
X0235276Y0106348D01*
X0235276Y0110348D01*
X0240000Y0110348D02*
X0240000Y0106348D01*
X0240000Y0102348D01*
X0244724Y0102348D02*
X0244724Y0106348D01*
X0244724Y0110348D01*
X0184500Y0163848D02*
X0180500Y0163848D01*
D21*
X0235276Y0109212D02*
X0235276Y0103484D01*
X0240000Y0103484D02*
X0240000Y0109212D01*
X0244724Y0109212D02*
X0244724Y0103484D01*
D22*
X0330500Y0108848D03*
X0340500Y0108848D03*
X0340500Y0118848D03*
X0330500Y0118848D03*
X0340500Y0128848D03*
D23*
X0330500Y0128848D03*
D24*
X0105000Y0068297D03*
X0105000Y0049400D03*
D25*
X0073125Y0029360D03*
X0073125Y0018337D03*
D26*
X0180500Y0163848D03*
X0184500Y0163848D03*
D27*
X0110118Y0024380D03*
X0107559Y0024380D03*
X0105000Y0024380D03*
X0102441Y0024380D03*
X0099882Y0024380D03*
D28*
X0095157Y0024478D03*
X0114843Y0024478D03*
D29*
X0118780Y0013848D03*
X0091220Y0013848D03*
D30*
X0092992Y0013848D03*
X0101063Y0013848D03*
X0108937Y0013848D03*
X0117008Y0013848D03*
D31*
X0120000Y0126348D03*
X0110000Y0126348D03*
X0100000Y0126348D03*
X0090000Y0126348D03*
X0090000Y0161348D03*
X0100000Y0161348D03*
X0110000Y0161348D03*
X0120000Y0161348D03*
D32*
X0011550Y0012077D02*
X0009626Y0013474D01*
X0008228Y0015398D01*
X0007494Y0017660D01*
X0007400Y0018848D01*
X0007400Y0176923D01*
X0013187Y0171136D01*
X0014363Y0170648D01*
X0020637Y0170648D01*
X0021813Y0171136D01*
X0022713Y0172036D01*
X0023900Y0173223D01*
X0023900Y0172635D01*
X0024829Y0170393D01*
X0026545Y0168677D01*
X0027019Y0168481D01*
X0026417Y0168044D01*
X0025805Y0167431D01*
X0025296Y0166731D01*
X0024903Y0165960D01*
X0024635Y0165136D01*
X0024500Y0164281D01*
X0024500Y0164048D01*
X0029800Y0164048D01*
X0029800Y0163648D01*
X0024500Y0163648D01*
X0024500Y0163416D01*
X0024635Y0162560D01*
X0024903Y0161737D01*
X0025296Y0160966D01*
X0025805Y0160265D01*
X0026417Y0159653D01*
X0027019Y0159216D01*
X0026545Y0159020D01*
X0024829Y0157304D01*
X0023900Y0155062D01*
X0023900Y0152635D01*
X0024829Y0150393D01*
X0026545Y0148677D01*
X0028787Y0147748D01*
X0031213Y0147748D01*
X0033455Y0148677D01*
X0034227Y0149448D01*
X0050773Y0149448D01*
X0051545Y0148677D01*
X0053787Y0147748D01*
X0056213Y0147748D01*
X0058455Y0148677D01*
X0060171Y0150393D01*
X0061100Y0152635D01*
X0061100Y0155062D01*
X0060171Y0157304D01*
X0058455Y0159020D01*
X0057981Y0159216D01*
X0058583Y0159653D01*
X0059195Y0160265D01*
X0059704Y0160966D01*
X0060097Y0161737D01*
X0060365Y0162560D01*
X0060500Y0163416D01*
X0060500Y0163648D01*
X0055200Y0163648D01*
X0055200Y0164048D01*
X0060275Y0164048D01*
X0078013Y0146310D01*
X0023625Y0146310D01*
X0022449Y0145823D01*
X0018187Y0141561D01*
X0017287Y0140661D01*
X0016976Y0139910D01*
X0015979Y0139910D01*
X0015097Y0139544D01*
X0014422Y0138869D01*
X0014057Y0137987D01*
X0014057Y0132006D01*
X0012244Y0130193D01*
X0011344Y0129293D01*
X0010857Y0128117D01*
X0010857Y0049155D01*
X0011344Y0047979D01*
X0025200Y0034123D01*
X0025200Y0029048D01*
X0024800Y0029048D01*
X0024800Y0028648D01*
X0019500Y0028648D01*
X0019500Y0028416D01*
X0019635Y0027560D01*
X0019903Y0026737D01*
X0020296Y0025966D01*
X0020805Y0025265D01*
X0021417Y0024653D01*
X0022019Y0024216D01*
X0021545Y0024020D01*
X0019829Y0022304D01*
X0018900Y0020062D01*
X0018900Y0017635D01*
X0019829Y0015393D01*
X0021545Y0013677D01*
X0023787Y0012748D01*
X0026213Y0012748D01*
X0028455Y0013677D01*
X0030000Y0015222D01*
X0031545Y0013677D01*
X0031800Y0013571D01*
X0031800Y0011248D01*
X0015000Y0011248D01*
X0013811Y0011342D01*
X0011550Y0012077D01*
X0011646Y0012045D02*
X0031800Y0012045D01*
X0031625Y0013644D02*
X0028375Y0013644D01*
X0035000Y0013644D02*
X0035200Y0013644D01*
X0035200Y0013348D02*
X0035433Y0013348D01*
X0036288Y0013484D01*
X0037111Y0013751D01*
X0037883Y0014144D01*
X0038583Y0014653D01*
X0039195Y0015265D01*
X0039632Y0015867D01*
X0039829Y0015393D01*
X0041545Y0013677D01*
X0043787Y0012748D01*
X0046213Y0012748D01*
X0048455Y0013677D01*
X0050171Y0015393D01*
X0050368Y0015867D01*
X0050805Y0015265D01*
X0051417Y0014653D01*
X0052117Y0014144D01*
X0052889Y0013751D01*
X0053712Y0013484D01*
X0054567Y0013348D01*
X0054800Y0013348D01*
X0054800Y0018648D01*
X0055200Y0018648D01*
X0055200Y0013348D01*
X0055433Y0013348D01*
X0056288Y0013484D01*
X0057111Y0013751D01*
X0057883Y0014144D01*
X0058583Y0014653D01*
X0059195Y0015265D01*
X0059704Y0015966D01*
X0060097Y0016737D01*
X0060365Y0017560D01*
X0060500Y0018416D01*
X0060500Y0018648D01*
X0055200Y0018648D01*
X0055200Y0019048D01*
X0060500Y0019048D01*
X0060500Y0019281D01*
X0060365Y0020136D01*
X0060097Y0020960D01*
X0059704Y0021731D01*
X0059195Y0022431D01*
X0058583Y0023044D01*
X0057981Y0023481D01*
X0058455Y0023677D01*
X0060171Y0025393D01*
X0061100Y0027635D01*
X0061100Y0030062D01*
X0060171Y0032304D01*
X0058455Y0034020D01*
X0056213Y0034948D01*
X0053787Y0034948D01*
X0053531Y0034843D01*
X0053200Y0035174D01*
X0053200Y0073848D01*
X0067782Y0073848D01*
X0067782Y0071611D01*
X0072350Y0071611D01*
X0072350Y0070062D01*
X0067782Y0070062D01*
X0067782Y0067450D01*
X0067904Y0066992D01*
X0068141Y0066582D01*
X0068476Y0066247D01*
X0068887Y0066010D01*
X0069345Y0065887D01*
X0072350Y0065887D01*
X0072350Y0070062D01*
X0073900Y0070062D01*
X0073900Y0071611D01*
X0078468Y0071611D01*
X0078468Y0073848D01*
X0100444Y0073848D01*
X0100444Y0068875D01*
X0104422Y0068875D01*
X0104422Y0067719D01*
X0105578Y0067719D01*
X0105578Y0060592D01*
X0107993Y0060592D01*
X0108451Y0060714D01*
X0108861Y0060951D01*
X0109196Y0061287D01*
X0109433Y0061697D01*
X0109556Y0062155D01*
X0109556Y0067719D01*
X0105578Y0067719D01*
X0105578Y0068875D01*
X0109556Y0068875D01*
X0109556Y0073848D01*
X0130000Y0073848D01*
X0130000Y0053848D01*
X0150000Y0053848D01*
X0150000Y0058848D01*
X0170000Y0058848D01*
X0170000Y0038848D01*
X0150000Y0038848D01*
X0150000Y0043848D01*
X0120000Y0043848D01*
X0120000Y0058848D01*
X0078712Y0058848D01*
X0078703Y0058869D01*
X0078028Y0059544D01*
X0077146Y0059910D01*
X0069104Y0059910D01*
X0068222Y0059544D01*
X0067547Y0058869D01*
X0067182Y0057987D01*
X0067182Y0050733D01*
X0067547Y0049851D01*
X0068222Y0049176D01*
X0068750Y0048957D01*
X0068750Y0048848D01*
X0069013Y0048848D01*
X0069104Y0048811D01*
X0077146Y0048811D01*
X0077237Y0048848D01*
X0080000Y0048848D01*
X0080000Y0023848D01*
X0068750Y0023848D01*
X0068750Y0023183D01*
X0068616Y0023127D01*
X0067941Y0022452D01*
X0067575Y0021570D01*
X0067575Y0015103D01*
X0067941Y0014221D01*
X0068616Y0013546D01*
X0068750Y0013491D01*
X0068750Y0011248D01*
X0035000Y0011248D01*
X0035000Y0018648D01*
X0035200Y0018648D01*
X0035200Y0013348D01*
X0035000Y0012045D02*
X0068750Y0012045D01*
X0068518Y0013644D02*
X0056781Y0013644D01*
X0055200Y0013644D02*
X0054800Y0013644D01*
X0053219Y0013644D02*
X0048375Y0013644D01*
X0050021Y0015242D02*
X0050828Y0015242D01*
X0054800Y0015242D02*
X0055200Y0015242D01*
X0055200Y0016841D02*
X0054800Y0016841D01*
X0054800Y0018439D02*
X0055200Y0018439D01*
X0059752Y0021637D02*
X0067603Y0021637D01*
X0067575Y0020038D02*
X0060380Y0020038D01*
X0060500Y0018439D02*
X0067575Y0018439D01*
X0067575Y0016841D02*
X0060131Y0016841D01*
X0059172Y0015242D02*
X0067575Y0015242D01*
X0071950Y0013781D02*
X0071950Y0011248D01*
X0085844Y0011248D01*
X0085258Y0012662D01*
X0085258Y0015034D01*
X0086166Y0017226D01*
X0087843Y0018903D01*
X0090035Y0019811D01*
X0092390Y0019811D01*
X0092115Y0019924D01*
X0090604Y0021436D01*
X0089786Y0023410D01*
X0089786Y0025547D01*
X0090604Y0027521D01*
X0092115Y0029032D01*
X0094089Y0029850D01*
X0096226Y0029850D01*
X0096601Y0029695D01*
X0097000Y0030656D01*
X0108054Y0041710D01*
X0107993Y0041694D01*
X0105578Y0041694D01*
X0105578Y0048822D01*
X0105578Y0049978D01*
X0109556Y0049978D01*
X0109556Y0055542D01*
X0109527Y0055648D01*
X0116800Y0055648D01*
X0116800Y0043212D01*
X0116826Y0043148D01*
X0110224Y0043148D01*
X0109440Y0042824D01*
X0109556Y0043257D01*
X0109556Y0048822D01*
X0105578Y0048822D01*
X0104422Y0048822D01*
X0100444Y0048822D01*
X0100444Y0043257D01*
X0100567Y0042799D01*
X0100804Y0042389D01*
X0101139Y0042054D01*
X0101549Y0041817D01*
X0102007Y0041694D01*
X0104422Y0041694D01*
X0104422Y0048822D01*
X0104422Y0049978D01*
X0100444Y0049978D01*
X0100444Y0055542D01*
X0100473Y0055648D01*
X0078468Y0055648D01*
X0078468Y0055135D01*
X0073900Y0055135D01*
X0073900Y0053585D01*
X0078468Y0053585D01*
X0078468Y0052048D01*
X0080637Y0052048D01*
X0081813Y0051561D01*
X0082713Y0050661D01*
X0083200Y0049485D01*
X0083200Y0023212D01*
X0082713Y0022036D01*
X0081813Y0021136D01*
X0080637Y0020648D01*
X0078075Y0020648D01*
X0078075Y0018915D01*
X0073703Y0018915D01*
X0073703Y0017759D01*
X0078075Y0017759D01*
X0078075Y0015344D01*
X0077952Y0014886D01*
X0077715Y0014475D01*
X0077380Y0014140D01*
X0076969Y0013903D01*
X0076512Y0013781D01*
X0073703Y0013781D01*
X0073703Y0017759D01*
X0072547Y0017759D01*
X0072547Y0013781D01*
X0071950Y0013781D01*
X0071950Y0013644D02*
X0085258Y0013644D01*
X0085344Y0015242D02*
X0078047Y0015242D01*
X0078075Y0016841D02*
X0086007Y0016841D01*
X0087380Y0018439D02*
X0073703Y0018439D01*
X0073703Y0016841D02*
X0072547Y0016841D01*
X0072547Y0015242D02*
X0073703Y0015242D01*
X0071950Y0012045D02*
X0085514Y0012045D01*
X0082314Y0021637D02*
X0090520Y0021637D01*
X0089858Y0023235D02*
X0083200Y0023235D01*
X0083200Y0024834D02*
X0089786Y0024834D01*
X0090152Y0026432D02*
X0083200Y0026432D01*
X0083200Y0028031D02*
X0091113Y0028031D01*
X0093556Y0029629D02*
X0083200Y0029629D01*
X0083200Y0031228D02*
X0097571Y0031228D01*
X0099169Y0032826D02*
X0083200Y0032826D01*
X0083200Y0034425D02*
X0100768Y0034425D01*
X0102366Y0036023D02*
X0083200Y0036023D01*
X0083200Y0037622D02*
X0103965Y0037622D01*
X0105563Y0039220D02*
X0083200Y0039220D01*
X0083200Y0040819D02*
X0107162Y0040819D01*
X0105578Y0042417D02*
X0104422Y0042417D01*
X0104422Y0044016D02*
X0105578Y0044016D01*
X0105578Y0045614D02*
X0104422Y0045614D01*
X0104422Y0047213D02*
X0105578Y0047213D01*
X0105578Y0048811D02*
X0104422Y0048811D01*
X0100444Y0048811D02*
X0083200Y0048811D01*
X0083200Y0047213D02*
X0100444Y0047213D01*
X0100444Y0045614D02*
X0083200Y0045614D01*
X0083200Y0044016D02*
X0100444Y0044016D01*
X0100787Y0042417D02*
X0083200Y0042417D01*
X0080000Y0042417D02*
X0078468Y0042417D01*
X0078468Y0042562D02*
X0073900Y0042562D01*
X0073900Y0044111D01*
X0078468Y0044111D01*
X0078468Y0046723D01*
X0078346Y0047181D01*
X0078109Y0047591D01*
X0077774Y0047927D01*
X0077363Y0048164D01*
X0076905Y0048286D01*
X0073900Y0048286D01*
X0073900Y0044111D01*
X0072350Y0044111D01*
X0072350Y0042562D01*
X0067782Y0042562D01*
X0067782Y0039950D01*
X0067904Y0039492D01*
X0068141Y0039082D01*
X0068476Y0038747D01*
X0068887Y0038510D01*
X0069345Y0038387D01*
X0072350Y0038387D01*
X0072350Y0042562D01*
X0073900Y0042562D01*
X0073900Y0038387D01*
X0076905Y0038387D01*
X0077363Y0038510D01*
X0077774Y0038747D01*
X0078109Y0039082D01*
X0078346Y0039492D01*
X0078468Y0039950D01*
X0078468Y0042562D01*
X0078468Y0040819D02*
X0080000Y0040819D01*
X0080000Y0039220D02*
X0078189Y0039220D01*
X0080000Y0037622D02*
X0053200Y0037622D01*
X0053200Y0039220D02*
X0068061Y0039220D01*
X0067782Y0040819D02*
X0053200Y0040819D01*
X0053200Y0042417D02*
X0067782Y0042417D01*
X0067782Y0044111D02*
X0067782Y0046723D01*
X0067904Y0047181D01*
X0068141Y0047591D01*
X0068476Y0047927D01*
X0068887Y0048164D01*
X0069345Y0048286D01*
X0072350Y0048286D01*
X0072350Y0044111D01*
X0067782Y0044111D01*
X0067782Y0045614D02*
X0053200Y0045614D01*
X0053200Y0044016D02*
X0072350Y0044016D01*
X0073900Y0044016D02*
X0080000Y0044016D01*
X0080000Y0045614D02*
X0078468Y0045614D01*
X0078327Y0047213D02*
X0080000Y0047213D01*
X0080000Y0048811D02*
X0077147Y0048811D01*
X0073900Y0047213D02*
X0072350Y0047213D01*
X0072350Y0045614D02*
X0073900Y0045614D01*
X0073900Y0042417D02*
X0072350Y0042417D01*
X0072350Y0040819D02*
X0073900Y0040819D01*
X0073900Y0039220D02*
X0072350Y0039220D01*
X0072547Y0033916D02*
X0069738Y0033916D01*
X0069281Y0033793D01*
X0068870Y0033556D01*
X0068535Y0033221D01*
X0068298Y0032811D01*
X0068175Y0032353D01*
X0068175Y0029938D01*
X0072547Y0029938D01*
X0072547Y0028782D01*
X0073703Y0028782D01*
X0073703Y0024804D01*
X0076512Y0024804D01*
X0076969Y0024927D01*
X0077380Y0025164D01*
X0077715Y0025499D01*
X0077952Y0025910D01*
X0078075Y0026367D01*
X0078075Y0028782D01*
X0073703Y0028782D01*
X0073703Y0029938D01*
X0078075Y0029938D01*
X0078075Y0032353D01*
X0077952Y0032811D01*
X0077715Y0033221D01*
X0077380Y0033556D01*
X0076969Y0033793D01*
X0076512Y0033916D01*
X0073703Y0033916D01*
X0073703Y0029938D01*
X0072547Y0029938D01*
X0072547Y0033916D01*
X0072547Y0032826D02*
X0073703Y0032826D01*
X0073703Y0031228D02*
X0072547Y0031228D01*
X0072547Y0029629D02*
X0061100Y0029629D01*
X0061100Y0028031D02*
X0068175Y0028031D01*
X0068175Y0028782D02*
X0068175Y0026367D01*
X0068298Y0025910D01*
X0068535Y0025499D01*
X0068870Y0025164D01*
X0069281Y0024927D01*
X0069738Y0024804D01*
X0072547Y0024804D01*
X0072547Y0028782D01*
X0068175Y0028782D01*
X0068175Y0031228D02*
X0060617Y0031228D01*
X0059649Y0032826D02*
X0068307Y0032826D01*
X0073703Y0029629D02*
X0080000Y0029629D01*
X0080000Y0028031D02*
X0078075Y0028031D01*
X0078075Y0026432D02*
X0080000Y0026432D01*
X0080000Y0024834D02*
X0076621Y0024834D01*
X0073703Y0024834D02*
X0072547Y0024834D01*
X0072547Y0026432D02*
X0073703Y0026432D01*
X0073703Y0028031D02*
X0072547Y0028031D01*
X0069629Y0024834D02*
X0059612Y0024834D01*
X0060602Y0026432D02*
X0068175Y0026432D01*
X0068750Y0023235D02*
X0058319Y0023235D01*
X0055000Y0028848D02*
X0050000Y0033848D01*
X0050000Y0113250D01*
X0055943Y0119193D01*
X0055943Y0127480D01*
X0050000Y0133424D01*
X0050000Y0134360D01*
X0065000Y0134360D01*
X0050775Y0128123D02*
X0050775Y0124111D01*
X0049225Y0124111D01*
X0049225Y0122562D01*
X0044657Y0122562D01*
X0044657Y0119950D01*
X0044779Y0119492D01*
X0045016Y0119082D01*
X0045351Y0118747D01*
X0045762Y0118510D01*
X0046220Y0118387D01*
X0049225Y0118387D01*
X0049225Y0122562D01*
X0050775Y0122562D01*
X0050775Y0118550D01*
X0047287Y0115062D01*
X0046800Y0113886D01*
X0046800Y0077048D01*
X0034363Y0077048D01*
X0033187Y0076561D01*
X0032287Y0075661D01*
X0032257Y0075587D01*
X0032257Y0118387D01*
X0034225Y0118387D01*
X0034225Y0122562D01*
X0035775Y0122562D01*
X0035775Y0124111D01*
X0040343Y0124111D01*
X0040343Y0126723D01*
X0040221Y0127181D01*
X0039984Y0127591D01*
X0039649Y0127927D01*
X0039238Y0128164D01*
X0038780Y0128286D01*
X0035775Y0128286D01*
X0035775Y0124111D01*
X0034225Y0124111D01*
X0034225Y0128286D01*
X0033451Y0128286D01*
X0033976Y0128811D01*
X0039021Y0128811D01*
X0039903Y0129176D01*
X0040578Y0129851D01*
X0040943Y0130733D01*
X0040943Y0135778D01*
X0041875Y0136710D01*
X0044057Y0136710D01*
X0044057Y0130733D01*
X0044422Y0129851D01*
X0045097Y0129176D01*
X0045979Y0128811D01*
X0050088Y0128811D01*
X0050775Y0128123D01*
X0050161Y0128737D02*
X0033902Y0128737D01*
X0034225Y0127138D02*
X0035775Y0127138D01*
X0035775Y0125540D02*
X0034225Y0125540D01*
X0035775Y0123941D02*
X0049225Y0123941D01*
X0049225Y0124111D02*
X0044657Y0124111D01*
X0044657Y0126723D01*
X0044779Y0127181D01*
X0045016Y0127591D01*
X0045351Y0127927D01*
X0045762Y0128164D01*
X0046220Y0128286D01*
X0049225Y0128286D01*
X0049225Y0124111D01*
X0049225Y0125540D02*
X0050775Y0125540D01*
X0050775Y0127138D02*
X0049225Y0127138D01*
X0044768Y0127138D02*
X0040232Y0127138D01*
X0040343Y0125540D02*
X0044657Y0125540D01*
X0044657Y0122343D02*
X0040343Y0122343D01*
X0040343Y0122562D02*
X0035775Y0122562D01*
X0035775Y0118387D01*
X0038780Y0118387D01*
X0039238Y0118510D01*
X0039649Y0118747D01*
X0039984Y0119082D01*
X0040221Y0119492D01*
X0040343Y0119950D01*
X0040343Y0122562D01*
X0040343Y0120744D02*
X0044657Y0120744D01*
X0044979Y0119146D02*
X0040021Y0119146D01*
X0035775Y0119146D02*
X0034225Y0119146D01*
X0034225Y0120744D02*
X0035775Y0120744D01*
X0035775Y0122343D02*
X0034225Y0122343D01*
X0032257Y0117547D02*
X0049772Y0117547D01*
X0049225Y0119146D02*
X0050775Y0119146D01*
X0050775Y0120744D02*
X0049225Y0120744D01*
X0049225Y0122343D02*
X0050775Y0122343D01*
X0059143Y0119501D02*
X0059422Y0118828D01*
X0060097Y0118152D01*
X0060979Y0117787D01*
X0066024Y0117787D01*
X0066742Y0117069D01*
X0066116Y0116443D01*
X0065419Y0114760D01*
X0065419Y0112937D01*
X0066116Y0111253D01*
X0067405Y0109965D01*
X0069089Y0109267D01*
X0070911Y0109267D01*
X0072595Y0109965D01*
X0073279Y0110648D01*
X0115637Y0110648D01*
X0116813Y0111136D01*
X0117713Y0112036D01*
X0121813Y0116136D01*
X0122713Y0117036D01*
X0123200Y0118212D01*
X0123200Y0119041D01*
X0123859Y0119314D01*
X0124535Y0119989D01*
X0124900Y0120871D01*
X0124900Y0129423D01*
X0131800Y0122523D01*
X0131800Y0080174D01*
X0128675Y0077048D01*
X0078400Y0077048D01*
X0078703Y0077351D01*
X0079068Y0078233D01*
X0079068Y0085487D01*
X0078703Y0086369D01*
X0078028Y0087044D01*
X0077146Y0087410D01*
X0076325Y0087410D01*
X0076325Y0087523D01*
X0079450Y0090648D01*
X0083596Y0090648D01*
X0084280Y0089965D01*
X0085291Y0089546D01*
X0084018Y0089546D01*
X0083404Y0089424D01*
X0082825Y0089184D01*
X0082305Y0088837D01*
X0081862Y0088394D01*
X0081514Y0087873D01*
X0081275Y0087295D01*
X0081153Y0086681D01*
X0081153Y0085568D01*
X0086509Y0085568D01*
X0086509Y0084412D01*
X0087665Y0084412D01*
X0087665Y0085568D01*
X0093020Y0085568D01*
X0093020Y0086681D01*
X0092898Y0087295D01*
X0092659Y0087873D01*
X0092311Y0088394D01*
X0091868Y0088837D01*
X0091348Y0089184D01*
X0090769Y0089424D01*
X0090156Y0089546D01*
X0088459Y0089546D01*
X0089470Y0089965D01*
X0090759Y0091253D01*
X0091456Y0092937D01*
X0091456Y0094760D01*
X0090759Y0096443D01*
X0090075Y0097127D01*
X0090075Y0097551D01*
X0090594Y0097551D01*
X0091983Y0098126D01*
X0093045Y0099189D01*
X0093177Y0099507D01*
X0116823Y0099507D01*
X0116955Y0099189D01*
X0118017Y0098126D01*
X0119406Y0097551D01*
X0126421Y0097551D01*
X0127809Y0098126D01*
X0128872Y0099189D01*
X0129447Y0100577D01*
X0129447Y0104836D01*
X0128872Y0106225D01*
X0127809Y0107287D01*
X0126421Y0107863D01*
X0119406Y0107863D01*
X0118017Y0107287D01*
X0116955Y0106225D01*
X0116823Y0105907D01*
X0093177Y0105907D01*
X0093045Y0106225D01*
X0091983Y0107287D01*
X0090594Y0107863D01*
X0083579Y0107863D01*
X0082191Y0107287D01*
X0081128Y0106225D01*
X0080553Y0104836D01*
X0080553Y0100577D01*
X0081128Y0099189D01*
X0082191Y0098126D01*
X0083579Y0097551D01*
X0083675Y0097551D01*
X0083675Y0097127D01*
X0083596Y0097048D01*
X0077488Y0097048D01*
X0076312Y0096561D01*
X0075412Y0095661D01*
X0070412Y0090661D01*
X0069925Y0089485D01*
X0069925Y0087410D01*
X0069104Y0087410D01*
X0068222Y0087044D01*
X0067547Y0086369D01*
X0067182Y0085487D01*
X0067182Y0078233D01*
X0067547Y0077351D01*
X0067850Y0077048D01*
X0053200Y0077048D01*
X0053200Y0111924D01*
X0058656Y0117380D01*
X0059143Y0118556D01*
X0059143Y0119501D01*
X0059143Y0119146D02*
X0059290Y0119146D01*
X0058725Y0117547D02*
X0066264Y0117547D01*
X0065911Y0115949D02*
X0057225Y0115949D01*
X0055626Y0114350D02*
X0065419Y0114350D01*
X0065496Y0112752D02*
X0054028Y0112752D01*
X0053200Y0111153D02*
X0066217Y0111153D01*
X0068395Y0109555D02*
X0053200Y0109555D01*
X0053200Y0107956D02*
X0131800Y0107956D01*
X0131800Y0106358D02*
X0128739Y0106358D01*
X0129447Y0104759D02*
X0131800Y0104759D01*
X0131800Y0103161D02*
X0129447Y0103161D01*
X0129447Y0101562D02*
X0131800Y0101562D01*
X0131800Y0099964D02*
X0129193Y0099964D01*
X0128048Y0098365D02*
X0131800Y0098365D01*
X0131800Y0096767D02*
X0090436Y0096767D01*
X0091287Y0095168D02*
X0131800Y0095168D01*
X0131800Y0093570D02*
X0091456Y0093570D01*
X0091056Y0091971D02*
X0131800Y0091971D01*
X0131800Y0090373D02*
X0089878Y0090373D01*
X0091931Y0088774D02*
X0118069Y0088774D01*
X0118132Y0088837D02*
X0117689Y0088394D01*
X0117341Y0087873D01*
X0117102Y0087295D01*
X0116980Y0086681D01*
X0116980Y0085568D01*
X0122335Y0085568D01*
X0122335Y0084412D01*
X0116980Y0084412D01*
X0116980Y0083299D01*
X0117102Y0082685D01*
X0117341Y0082107D01*
X0117689Y0081586D01*
X0118132Y0081144D01*
X0118652Y0080796D01*
X0119230Y0080556D01*
X0119844Y0080434D01*
X0122335Y0080434D01*
X0122335Y0084412D01*
X0123491Y0084412D01*
X0123491Y0080434D01*
X0125982Y0080434D01*
X0126596Y0080556D01*
X0127175Y0080796D01*
X0127695Y0081144D01*
X0128138Y0081586D01*
X0128486Y0082107D01*
X0128725Y0082685D01*
X0128847Y0083299D01*
X0128847Y0084412D01*
X0123491Y0084412D01*
X0123491Y0085568D01*
X0122335Y0085568D01*
X0122335Y0089546D01*
X0119844Y0089546D01*
X0119230Y0089424D01*
X0118652Y0089184D01*
X0118132Y0088837D01*
X0117078Y0087175D02*
X0092922Y0087175D01*
X0093020Y0085577D02*
X0116980Y0085577D01*
X0116980Y0083978D02*
X0093020Y0083978D01*
X0093020Y0084412D02*
X0087665Y0084412D01*
X0087665Y0080434D01*
X0090156Y0080434D01*
X0090769Y0080556D01*
X0091348Y0080796D01*
X0091868Y0081144D01*
X0092311Y0081586D01*
X0092659Y0082107D01*
X0092898Y0082685D01*
X0093020Y0083299D01*
X0093020Y0084412D01*
X0092772Y0082380D02*
X0117228Y0082380D01*
X0118687Y0080781D02*
X0091313Y0080781D01*
X0087665Y0080781D02*
X0086509Y0080781D01*
X0086509Y0080434D02*
X0086509Y0084412D01*
X0081153Y0084412D01*
X0081153Y0083299D01*
X0081275Y0082685D01*
X0081514Y0082107D01*
X0081862Y0081586D01*
X0082305Y0081144D01*
X0082825Y0080796D01*
X0083404Y0080556D01*
X0084018Y0080434D01*
X0086509Y0080434D01*
X0086509Y0082380D02*
X0087665Y0082380D01*
X0087665Y0083978D02*
X0086509Y0083978D01*
X0081401Y0082380D02*
X0079068Y0082380D01*
X0079068Y0083978D02*
X0081153Y0083978D01*
X0081153Y0085577D02*
X0079031Y0085577D01*
X0077711Y0087175D02*
X0081251Y0087175D01*
X0082242Y0088774D02*
X0077576Y0088774D01*
X0079175Y0090373D02*
X0083872Y0090373D01*
X0086875Y0093848D02*
X0078125Y0093848D01*
X0073125Y0088848D01*
X0073125Y0081860D01*
X0067182Y0082380D02*
X0053200Y0082380D01*
X0053200Y0083978D02*
X0067182Y0083978D01*
X0067219Y0085577D02*
X0053200Y0085577D01*
X0053200Y0087175D02*
X0068539Y0087175D01*
X0069925Y0088774D02*
X0053200Y0088774D01*
X0053200Y0090373D02*
X0070293Y0090373D01*
X0071722Y0091971D02*
X0053200Y0091971D01*
X0053200Y0093570D02*
X0073321Y0093570D01*
X0074919Y0095168D02*
X0053200Y0095168D01*
X0053200Y0096767D02*
X0076808Y0096767D01*
X0080807Y0099964D02*
X0053200Y0099964D01*
X0053200Y0101562D02*
X0080553Y0101562D01*
X0080553Y0103161D02*
X0053200Y0103161D01*
X0053200Y0104759D02*
X0080553Y0104759D01*
X0081261Y0106358D02*
X0053200Y0106358D01*
X0046800Y0106358D02*
X0032257Y0106358D01*
X0032257Y0107956D02*
X0046800Y0107956D01*
X0046800Y0109555D02*
X0032257Y0109555D01*
X0032257Y0111153D02*
X0046800Y0111153D01*
X0046800Y0112752D02*
X0032257Y0112752D01*
X0032257Y0114350D02*
X0046992Y0114350D01*
X0048174Y0115949D02*
X0032257Y0115949D01*
X0025857Y0115949D02*
X0017257Y0115949D01*
X0017257Y0117547D02*
X0025857Y0117547D01*
X0025857Y0119146D02*
X0025021Y0119146D01*
X0024984Y0119082D02*
X0025221Y0119492D01*
X0025343Y0119950D01*
X0025343Y0122562D01*
X0020775Y0122562D01*
X0020775Y0124111D01*
X0025343Y0124111D01*
X0025343Y0126723D01*
X0025221Y0127181D01*
X0024984Y0127591D01*
X0024649Y0127927D01*
X0024238Y0128164D01*
X0023780Y0128286D01*
X0020775Y0128286D01*
X0020775Y0124111D01*
X0019225Y0124111D01*
X0019225Y0128123D01*
X0019912Y0128811D01*
X0024021Y0128811D01*
X0024903Y0129176D01*
X0025578Y0129851D01*
X0025943Y0130733D01*
X0025943Y0137987D01*
X0025578Y0138869D01*
X0025062Y0139385D01*
X0025587Y0139910D01*
X0036024Y0139910D01*
X0030979Y0139910D01*
X0030097Y0139544D01*
X0029422Y0138869D01*
X0029057Y0137987D01*
X0029057Y0132942D01*
X0026344Y0130230D01*
X0025857Y0129053D01*
X0025857Y0044155D01*
X0026344Y0042979D01*
X0027244Y0042079D01*
X0031800Y0037523D01*
X0031800Y0036574D01*
X0017257Y0051117D01*
X0017257Y0118387D01*
X0019225Y0118387D01*
X0019225Y0122562D01*
X0020775Y0122562D01*
X0020775Y0118387D01*
X0023780Y0118387D01*
X0024238Y0118510D01*
X0024649Y0118747D01*
X0024984Y0119082D01*
X0025343Y0120744D02*
X0025857Y0120744D01*
X0025857Y0122343D02*
X0025343Y0122343D01*
X0025857Y0123941D02*
X0020775Y0123941D01*
X0020775Y0122343D02*
X0019225Y0122343D01*
X0019225Y0120744D02*
X0020775Y0120744D01*
X0020775Y0119146D02*
X0019225Y0119146D01*
X0017257Y0114350D02*
X0025857Y0114350D01*
X0025857Y0112752D02*
X0017257Y0112752D01*
X0017257Y0111153D02*
X0025857Y0111153D01*
X0025857Y0109555D02*
X0017257Y0109555D01*
X0017257Y0107956D02*
X0025857Y0107956D01*
X0025857Y0106358D02*
X0017257Y0106358D01*
X0017257Y0104759D02*
X0025857Y0104759D01*
X0025857Y0103161D02*
X0017257Y0103161D01*
X0017257Y0101562D02*
X0025857Y0101562D01*
X0025857Y0099964D02*
X0017257Y0099964D01*
X0017257Y0098365D02*
X0025857Y0098365D01*
X0025857Y0096767D02*
X0017257Y0096767D01*
X0017257Y0095168D02*
X0025857Y0095168D01*
X0025857Y0093570D02*
X0017257Y0093570D01*
X0017257Y0091971D02*
X0025857Y0091971D01*
X0025857Y0090373D02*
X0017257Y0090373D01*
X0017257Y0088774D02*
X0025857Y0088774D01*
X0025857Y0087175D02*
X0017257Y0087175D01*
X0017257Y0085577D02*
X0025857Y0085577D01*
X0025857Y0083978D02*
X0017257Y0083978D01*
X0017257Y0082380D02*
X0025857Y0082380D01*
X0025857Y0080781D02*
X0017257Y0080781D01*
X0017257Y0079183D02*
X0025857Y0079183D01*
X0025857Y0077584D02*
X0017257Y0077584D01*
X0017257Y0075986D02*
X0025857Y0075986D01*
X0025857Y0074387D02*
X0017257Y0074387D01*
X0017257Y0072789D02*
X0025857Y0072789D01*
X0025857Y0071190D02*
X0017257Y0071190D01*
X0017257Y0069592D02*
X0025857Y0069592D01*
X0025857Y0067993D02*
X0017257Y0067993D01*
X0017257Y0066395D02*
X0025857Y0066395D01*
X0025857Y0064796D02*
X0017257Y0064796D01*
X0017257Y0063198D02*
X0025857Y0063198D01*
X0025857Y0061599D02*
X0017257Y0061599D01*
X0017257Y0060001D02*
X0025857Y0060001D01*
X0025857Y0058402D02*
X0017257Y0058402D01*
X0017257Y0056804D02*
X0025857Y0056804D01*
X0025857Y0055205D02*
X0017257Y0055205D01*
X0017257Y0053607D02*
X0025857Y0053607D01*
X0025857Y0052008D02*
X0017257Y0052008D01*
X0017964Y0050410D02*
X0025857Y0050410D01*
X0025857Y0048811D02*
X0019563Y0048811D01*
X0021161Y0047213D02*
X0025857Y0047213D01*
X0025857Y0045614D02*
X0022760Y0045614D01*
X0024358Y0044016D02*
X0025914Y0044016D01*
X0025957Y0042417D02*
X0026906Y0042417D01*
X0027555Y0040819D02*
X0028504Y0040819D01*
X0029154Y0039220D02*
X0030103Y0039220D01*
X0030752Y0037622D02*
X0031701Y0037622D01*
X0024898Y0034425D02*
X0007400Y0034425D01*
X0007400Y0036023D02*
X0023300Y0036023D01*
X0023712Y0034213D02*
X0022889Y0033945D01*
X0022117Y0033552D01*
X0021417Y0033044D01*
X0020805Y0032431D01*
X0020296Y0031731D01*
X0019903Y0030960D01*
X0019635Y0030136D01*
X0019500Y0029281D01*
X0019500Y0029048D01*
X0024800Y0029048D01*
X0024800Y0034348D01*
X0024567Y0034348D01*
X0023712Y0034213D01*
X0024800Y0032826D02*
X0025200Y0032826D01*
X0025200Y0031228D02*
X0024800Y0031228D01*
X0024800Y0029629D02*
X0025200Y0029629D01*
X0021200Y0032826D02*
X0007400Y0032826D01*
X0007400Y0031228D02*
X0020039Y0031228D01*
X0019555Y0029629D02*
X0007400Y0029629D01*
X0007400Y0028031D02*
X0019561Y0028031D01*
X0020058Y0026432D02*
X0007400Y0026432D01*
X0007400Y0024834D02*
X0021237Y0024834D01*
X0020760Y0023235D02*
X0007400Y0023235D01*
X0007400Y0021637D02*
X0019552Y0021637D01*
X0018900Y0020038D02*
X0007400Y0020038D01*
X0007432Y0018439D02*
X0018900Y0018439D01*
X0019229Y0016841D02*
X0007760Y0016841D01*
X0008341Y0015242D02*
X0019979Y0015242D01*
X0021625Y0013644D02*
X0009503Y0013644D01*
X0035000Y0015242D02*
X0035200Y0015242D01*
X0035200Y0016841D02*
X0035000Y0016841D01*
X0035000Y0018439D02*
X0035200Y0018439D01*
X0036781Y0013644D02*
X0041625Y0013644D01*
X0039979Y0015242D02*
X0039172Y0015242D01*
X0035000Y0028848D02*
X0014057Y0049792D01*
X0014057Y0127480D01*
X0020000Y0133424D01*
X0020000Y0134360D01*
X0020000Y0138848D01*
X0024261Y0143110D01*
X0095739Y0143110D01*
X0100000Y0138848D01*
X0100000Y0126348D01*
X0090000Y0126348D02*
X0090000Y0134473D01*
X0084564Y0139910D01*
X0040550Y0139910D01*
X0035000Y0134360D01*
X0029057Y0128417D01*
X0029057Y0044792D01*
X0045000Y0028848D01*
X0053200Y0036023D02*
X0080000Y0036023D01*
X0080000Y0034425D02*
X0057478Y0034425D01*
X0053200Y0047213D02*
X0067923Y0047213D01*
X0069103Y0048811D02*
X0053200Y0048811D01*
X0053200Y0050410D02*
X0067316Y0050410D01*
X0067182Y0052008D02*
X0053200Y0052008D01*
X0053200Y0053607D02*
X0067182Y0053607D01*
X0067182Y0055205D02*
X0053200Y0055205D01*
X0053200Y0056804D02*
X0067182Y0056804D01*
X0067354Y0058402D02*
X0053200Y0058402D01*
X0053200Y0060001D02*
X0130000Y0060001D01*
X0130000Y0061599D02*
X0109377Y0061599D01*
X0109556Y0063198D02*
X0130000Y0063198D01*
X0130000Y0064796D02*
X0109556Y0064796D01*
X0109556Y0066395D02*
X0130000Y0066395D01*
X0130000Y0067993D02*
X0105578Y0067993D01*
X0104422Y0067993D02*
X0078468Y0067993D01*
X0078468Y0067450D02*
X0078468Y0070062D01*
X0073900Y0070062D01*
X0073900Y0065887D01*
X0076905Y0065887D01*
X0077363Y0066010D01*
X0077774Y0066247D01*
X0078109Y0066582D01*
X0078346Y0066992D01*
X0078468Y0067450D01*
X0077922Y0066395D02*
X0100444Y0066395D01*
X0100444Y0067719D02*
X0100444Y0062155D01*
X0100567Y0061697D01*
X0100804Y0061287D01*
X0101139Y0060951D01*
X0101549Y0060714D01*
X0102007Y0060592D01*
X0104422Y0060592D01*
X0104422Y0067719D01*
X0100444Y0067719D01*
X0100444Y0069592D02*
X0078468Y0069592D01*
X0078468Y0072789D02*
X0100444Y0072789D01*
X0100444Y0071190D02*
X0073900Y0071190D01*
X0072350Y0071190D02*
X0053200Y0071190D01*
X0053200Y0069592D02*
X0067782Y0069592D01*
X0067782Y0067993D02*
X0053200Y0067993D01*
X0053200Y0066395D02*
X0068328Y0066395D01*
X0072350Y0066395D02*
X0073900Y0066395D01*
X0073900Y0067993D02*
X0072350Y0067993D01*
X0072350Y0069592D02*
X0073900Y0069592D01*
X0067782Y0072789D02*
X0053200Y0072789D01*
X0053200Y0077584D02*
X0067450Y0077584D01*
X0067182Y0079183D02*
X0053200Y0079183D01*
X0053200Y0080781D02*
X0067182Y0080781D01*
X0079068Y0080781D02*
X0082860Y0080781D01*
X0079068Y0079183D02*
X0130809Y0079183D01*
X0131800Y0080781D02*
X0127140Y0080781D01*
X0128599Y0082380D02*
X0131800Y0082380D01*
X0131800Y0083978D02*
X0128847Y0083978D01*
X0128847Y0085568D02*
X0128847Y0086681D01*
X0128725Y0087295D01*
X0128486Y0087873D01*
X0128138Y0088394D01*
X0127695Y0088837D01*
X0127175Y0089184D01*
X0126596Y0089424D01*
X0125982Y0089546D01*
X0123491Y0089546D01*
X0123491Y0085568D01*
X0128847Y0085568D01*
X0128847Y0085577D02*
X0131800Y0085577D01*
X0131800Y0087175D02*
X0128749Y0087175D01*
X0127758Y0088774D02*
X0131800Y0088774D01*
X0138200Y0085648D02*
X0145000Y0078848D01*
X0270000Y0078848D01*
X0275000Y0083848D01*
X0275000Y0088848D01*
X0280000Y0086286D02*
X0280253Y0085676D01*
X0281828Y0084101D01*
X0283886Y0083248D01*
X0286114Y0083248D01*
X0288172Y0084101D01*
X0289747Y0085676D01*
X0290000Y0086286D01*
X0290253Y0085676D01*
X0291828Y0084101D01*
X0293886Y0083248D01*
X0296114Y0083248D01*
X0298172Y0084101D01*
X0299747Y0085676D01*
X0300000Y0086286D01*
X0300253Y0085676D01*
X0301828Y0084101D01*
X0303886Y0083248D01*
X0306114Y0083248D01*
X0308172Y0084101D01*
X0309747Y0085676D01*
X0310000Y0086286D01*
X0310253Y0085676D01*
X0311828Y0084101D01*
X0313886Y0083248D01*
X0316114Y0083248D01*
X0318172Y0084101D01*
X0319747Y0085676D01*
X0320000Y0086286D01*
X0320253Y0085676D01*
X0321828Y0084101D01*
X0323886Y0083248D01*
X0326114Y0083248D01*
X0328172Y0084101D01*
X0329747Y0085676D01*
X0330600Y0087735D01*
X0330600Y0089962D01*
X0329747Y0092021D01*
X0328172Y0093596D01*
X0326114Y0094448D01*
X0323886Y0094448D01*
X0321828Y0093596D01*
X0320253Y0092021D01*
X0320000Y0091411D01*
X0319747Y0092021D01*
X0318172Y0093596D01*
X0316114Y0094448D01*
X0314450Y0094448D01*
X0314450Y0128773D01*
X0316800Y0131123D01*
X0316800Y0123212D01*
X0317287Y0122036D01*
X0318187Y0121136D01*
X0322287Y0117036D01*
X0322287Y0117036D01*
X0323187Y0116136D01*
X0323240Y0116114D01*
X0322787Y0115661D01*
X0321887Y0114761D01*
X0321400Y0113585D01*
X0321400Y0105768D01*
X0321887Y0104592D01*
X0322787Y0103692D01*
X0325343Y0101136D01*
X0326243Y0100236D01*
X0327420Y0099748D01*
X0333275Y0099748D01*
X0336381Y0096642D01*
X0336381Y0083235D01*
X0335911Y0083430D01*
X0334089Y0083430D01*
X0333652Y0083248D01*
X0321348Y0083248D01*
X0320911Y0083430D01*
X0319089Y0083430D01*
X0317405Y0082732D01*
X0316116Y0081443D01*
X0315419Y0079760D01*
X0315419Y0077937D01*
X0315787Y0077048D01*
X0272725Y0077048D01*
X0277713Y0082036D01*
X0278200Y0083212D01*
X0278200Y0084129D01*
X0279747Y0085676D01*
X0280000Y0086286D01*
X0279648Y0085577D02*
X0280352Y0085577D01*
X0282124Y0083978D02*
X0278200Y0083978D01*
X0277855Y0082380D02*
X0317053Y0082380D01*
X0317876Y0083978D02*
X0322124Y0083978D01*
X0320352Y0085577D02*
X0319648Y0085577D01*
X0315000Y0088848D02*
X0311250Y0092598D01*
X0311250Y0130098D01*
X0321100Y0139948D01*
X0321100Y0151727D01*
X0305379Y0167448D01*
X0198125Y0167448D01*
X0188275Y0157598D01*
X0130000Y0157598D01*
X0125000Y0162598D01*
X0125000Y0173848D01*
X0120000Y0178848D01*
X0075000Y0178848D01*
X0065000Y0188848D01*
X0065000Y0206348D01*
X0061400Y0209948D01*
X0046100Y0209948D01*
X0040000Y0203848D01*
X0040000Y0178848D01*
X0035000Y0173848D01*
X0030000Y0173848D01*
X0035277Y0170648D02*
X0035171Y0170393D01*
X0033455Y0168677D01*
X0032981Y0168481D01*
X0033583Y0168044D01*
X0034195Y0167431D01*
X0034704Y0166731D01*
X0035097Y0165960D01*
X0035365Y0165136D01*
X0035500Y0164281D01*
X0035500Y0164048D01*
X0030200Y0164048D01*
X0030200Y0163648D01*
X0035500Y0163648D01*
X0035500Y0163416D01*
X0035365Y0162560D01*
X0035097Y0161737D01*
X0034704Y0160966D01*
X0034195Y0160265D01*
X0033583Y0159653D01*
X0032981Y0159216D01*
X0033455Y0159020D01*
X0034227Y0158248D01*
X0050773Y0158248D01*
X0051545Y0159020D01*
X0052019Y0159216D01*
X0051417Y0159653D01*
X0050805Y0160265D01*
X0050296Y0160966D01*
X0049903Y0161737D01*
X0049635Y0162560D01*
X0049500Y0163416D01*
X0049500Y0163648D01*
X0054800Y0163648D01*
X0054800Y0164048D01*
X0049500Y0164048D01*
X0049500Y0164281D01*
X0049635Y0165136D01*
X0049903Y0165960D01*
X0050296Y0166731D01*
X0050805Y0167431D01*
X0051417Y0168044D01*
X0052019Y0168481D01*
X0051545Y0168677D01*
X0049829Y0170393D01*
X0048900Y0172635D01*
X0048900Y0175062D01*
X0049829Y0177304D01*
X0051373Y0178848D01*
X0049829Y0180393D01*
X0048900Y0182635D01*
X0048900Y0185062D01*
X0049829Y0187304D01*
X0051373Y0188848D01*
X0049829Y0190393D01*
X0048900Y0192635D01*
X0048900Y0195062D01*
X0049829Y0197304D01*
X0050434Y0197909D01*
X0049941Y0198114D01*
X0049265Y0198789D01*
X0048900Y0199671D01*
X0048900Y0206748D01*
X0047425Y0206748D01*
X0043200Y0202523D01*
X0043200Y0178212D01*
X0042713Y0177036D01*
X0041813Y0176136D01*
X0037713Y0172036D01*
X0036813Y0171136D01*
X0035637Y0170648D01*
X0035277Y0170648D01*
X0035076Y0170298D02*
X0049924Y0170298D01*
X0049206Y0171897D02*
X0037574Y0171897D01*
X0039172Y0173495D02*
X0048900Y0173495D01*
X0048913Y0175094D02*
X0040771Y0175094D01*
X0042369Y0176692D02*
X0049575Y0176692D01*
X0050816Y0178291D02*
X0043200Y0178291D01*
X0043200Y0179889D02*
X0050333Y0179889D01*
X0049375Y0181488D02*
X0043200Y0181488D01*
X0043200Y0183086D02*
X0048900Y0183086D01*
X0048900Y0184685D02*
X0043200Y0184685D01*
X0043200Y0186283D02*
X0049406Y0186283D01*
X0050407Y0187882D02*
X0043200Y0187882D01*
X0043200Y0189480D02*
X0050742Y0189480D01*
X0049545Y0191079D02*
X0043200Y0191079D01*
X0043200Y0192677D02*
X0048900Y0192677D01*
X0048900Y0194276D02*
X0043200Y0194276D01*
X0043200Y0195874D02*
X0049237Y0195874D01*
X0049998Y0197473D02*
X0043200Y0197473D01*
X0043200Y0199071D02*
X0049148Y0199071D01*
X0048900Y0200670D02*
X0043200Y0200670D01*
X0043200Y0202268D02*
X0048900Y0202268D01*
X0048900Y0203867D02*
X0044544Y0203867D01*
X0046142Y0205465D02*
X0048900Y0205465D01*
X0065000Y0213148D02*
X0087087Y0191062D01*
X0087087Y0189990D01*
X0120000Y0189990D01*
X0122500Y0192490D01*
X0122500Y0198848D01*
X0118296Y0200670D02*
X0082004Y0200670D01*
X0080406Y0202268D02*
X0119441Y0202268D01*
X0119905Y0202732D02*
X0118616Y0201443D01*
X0117919Y0199760D01*
X0117919Y0197937D01*
X0118616Y0196253D01*
X0119300Y0195570D01*
X0119300Y0195102D01*
X0118017Y0194571D01*
X0116955Y0193508D01*
X0116823Y0193190D01*
X0093177Y0193190D01*
X0093045Y0193508D01*
X0091983Y0194571D01*
X0090594Y0195146D01*
X0087528Y0195146D01*
X0069525Y0213148D01*
X0122423Y0213148D01*
X0123491Y0212080D01*
X0123491Y0208285D01*
X0122335Y0208285D01*
X0122335Y0207129D01*
X0116980Y0207129D01*
X0116980Y0206016D01*
X0117102Y0205402D01*
X0117341Y0204823D01*
X0117689Y0204303D01*
X0118132Y0203860D01*
X0118652Y0203512D01*
X0119230Y0203273D01*
X0119844Y0203151D01*
X0120916Y0203151D01*
X0119905Y0202732D01*
X0118125Y0203867D02*
X0091875Y0203867D01*
X0091868Y0203860D02*
X0092311Y0204303D01*
X0092659Y0204823D01*
X0092898Y0205402D01*
X0093020Y0206016D01*
X0093020Y0207129D01*
X0087665Y0207129D01*
X0087665Y0208285D01*
X0086509Y0208285D01*
X0086509Y0212263D01*
X0084018Y0212263D01*
X0083404Y0212140D01*
X0082825Y0211901D01*
X0082305Y0211553D01*
X0081862Y0211110D01*
X0081514Y0210590D01*
X0081275Y0210012D01*
X0081153Y0209398D01*
X0081153Y0208285D01*
X0086509Y0208285D01*
X0086509Y0207129D01*
X0081153Y0207129D01*
X0081153Y0206016D01*
X0081275Y0205402D01*
X0081514Y0204823D01*
X0081862Y0204303D01*
X0082305Y0203860D01*
X0082825Y0203512D01*
X0083404Y0203273D01*
X0084018Y0203151D01*
X0086509Y0203151D01*
X0086509Y0207129D01*
X0087665Y0207129D01*
X0087665Y0203151D01*
X0090156Y0203151D01*
X0090769Y0203273D01*
X0091348Y0203512D01*
X0091868Y0203860D01*
X0092911Y0205465D02*
X0117089Y0205465D01*
X0116980Y0207064D02*
X0093020Y0207064D01*
X0093020Y0208285D02*
X0093020Y0209398D01*
X0092898Y0210012D01*
X0092659Y0210590D01*
X0092311Y0211110D01*
X0091868Y0211553D01*
X0091348Y0211901D01*
X0090769Y0212140D01*
X0090156Y0212263D01*
X0087665Y0212263D01*
X0087665Y0208285D01*
X0093020Y0208285D01*
X0093020Y0208662D02*
X0116980Y0208662D01*
X0116980Y0208285D02*
X0122335Y0208285D01*
X0122335Y0212263D01*
X0119844Y0212263D01*
X0119230Y0212140D01*
X0118652Y0211901D01*
X0118132Y0211553D01*
X0117689Y0211110D01*
X0117341Y0210590D01*
X0117102Y0210012D01*
X0116980Y0209398D01*
X0116980Y0208285D01*
X0117205Y0210261D02*
X0092795Y0210261D01*
X0091410Y0211859D02*
X0118590Y0211859D01*
X0122335Y0211859D02*
X0123491Y0211859D01*
X0123491Y0210261D02*
X0122335Y0210261D01*
X0122335Y0208662D02*
X0123491Y0208662D01*
X0130000Y0210097D02*
X0130000Y0203848D01*
X0137500Y0196348D01*
X0197500Y0196348D01*
X0220000Y0173848D01*
X0312500Y0173848D01*
X0317500Y0168848D01*
X0321735Y0167101D02*
X0324300Y0167101D01*
X0324300Y0165503D02*
X0320633Y0165503D01*
X0320095Y0164965D02*
X0321384Y0166253D01*
X0322081Y0167937D01*
X0322081Y0169760D01*
X0321384Y0171443D01*
X0320095Y0172732D01*
X0318411Y0173430D01*
X0317444Y0173430D01*
X0314313Y0176561D01*
X0313137Y0177048D01*
X0221325Y0177048D01*
X0199313Y0199061D01*
X0198137Y0199548D01*
X0138825Y0199548D01*
X0138193Y0200181D01*
X0138270Y0200149D01*
X0141730Y0200149D01*
X0144928Y0201474D01*
X0147375Y0203921D01*
X0148398Y0206390D01*
X0151639Y0203148D01*
X0156361Y0203148D01*
X0159000Y0205787D01*
X0161639Y0203148D01*
X0166361Y0203148D01*
X0169000Y0205787D01*
X0171639Y0203148D01*
X0176361Y0203148D01*
X0179424Y0206212D01*
X0181888Y0203748D01*
X0183816Y0203748D01*
X0183816Y0208664D01*
X0184184Y0208664D01*
X0184184Y0203748D01*
X0186112Y0203748D01*
X0188576Y0206212D01*
X0191639Y0203148D01*
X0196361Y0203148D01*
X0199000Y0205787D01*
X0201639Y0203148D01*
X0205175Y0203148D01*
X0211706Y0196617D01*
X0212606Y0195717D01*
X0213782Y0195230D01*
X0320572Y0195230D01*
X0324300Y0191502D01*
X0324300Y0157578D01*
X0317611Y0164267D01*
X0318411Y0164267D01*
X0320095Y0164965D01*
X0317974Y0163904D02*
X0324300Y0163904D01*
X0324300Y0162306D02*
X0319573Y0162306D01*
X0321171Y0160707D02*
X0324300Y0160707D01*
X0324300Y0159108D02*
X0322770Y0159108D01*
X0324300Y0153053D02*
X0306704Y0170648D01*
X0196800Y0170648D01*
X0190000Y0163848D01*
X0184500Y0163848D01*
X0184500Y0178348D01*
X0195000Y0188848D01*
X0190419Y0188793D02*
X0190419Y0189760D01*
X0191116Y0191443D01*
X0192405Y0192732D01*
X0193410Y0193148D01*
X0150946Y0193148D01*
X0151061Y0192869D01*
X0151061Y0191872D01*
X0151813Y0191561D01*
X0152713Y0190661D01*
X0154944Y0188430D01*
X0155911Y0188430D01*
X0157595Y0187732D01*
X0158884Y0186443D01*
X0159581Y0184760D01*
X0159581Y0182937D01*
X0158884Y0181253D01*
X0157595Y0179965D01*
X0155911Y0179267D01*
X0154089Y0179267D01*
X0152405Y0179965D01*
X0151116Y0181253D01*
X0150419Y0182937D01*
X0150419Y0183669D01*
X0150021Y0183270D01*
X0149139Y0182905D01*
X0141885Y0182905D01*
X0141003Y0183270D01*
X0140328Y0183946D01*
X0140000Y0184737D01*
X0139672Y0183946D01*
X0138997Y0183270D01*
X0138115Y0182905D01*
X0130861Y0182905D01*
X0129979Y0183270D01*
X0129304Y0183946D01*
X0128939Y0184828D01*
X0128939Y0186633D01*
X0128872Y0186472D01*
X0127809Y0185409D01*
X0126421Y0184834D01*
X0119406Y0184834D01*
X0118017Y0185409D01*
X0116955Y0186472D01*
X0116823Y0186790D01*
X0093177Y0186790D01*
X0093045Y0186472D01*
X0091983Y0185409D01*
X0090594Y0184834D01*
X0083579Y0184834D01*
X0082191Y0185409D01*
X0081128Y0186472D01*
X0080553Y0187861D01*
X0080553Y0192120D01*
X0080831Y0192792D01*
X0068200Y0205423D01*
X0068200Y0190174D01*
X0076325Y0182048D01*
X0120637Y0182048D01*
X0121813Y0181561D01*
X0126813Y0176561D01*
X0127713Y0175661D01*
X0128200Y0174485D01*
X0128200Y0163924D01*
X0129539Y0162585D01*
X0129539Y0163074D01*
X0133713Y0163074D01*
X0133713Y0164623D01*
X0129539Y0164623D01*
X0129539Y0167629D01*
X0129661Y0168087D01*
X0129898Y0168497D01*
X0130233Y0168832D01*
X0130644Y0169069D01*
X0131102Y0169192D01*
X0133713Y0169192D01*
X0133713Y0164623D01*
X0135263Y0164623D01*
X0139438Y0164623D01*
X0139438Y0167629D01*
X0139315Y0168087D01*
X0139078Y0168497D01*
X0138743Y0168832D01*
X0138333Y0169069D01*
X0137875Y0169192D01*
X0135263Y0169192D01*
X0135263Y0164623D01*
X0135263Y0163074D01*
X0139438Y0163074D01*
X0139438Y0160798D01*
X0139962Y0160798D01*
X0139962Y0167869D01*
X0140328Y0168751D01*
X0141003Y0169426D01*
X0141885Y0169792D01*
X0149139Y0169792D01*
X0150021Y0169426D01*
X0150696Y0168751D01*
X0151061Y0167869D01*
X0151061Y0167048D01*
X0155139Y0167048D01*
X0157639Y0169548D01*
X0162361Y0169548D01*
X0165000Y0166909D01*
X0167639Y0169548D01*
X0172361Y0169548D01*
X0174861Y0167048D01*
X0176942Y0167048D01*
X0177215Y0167708D01*
X0177891Y0168383D01*
X0178773Y0168748D01*
X0181300Y0168748D01*
X0181300Y0177712D01*
X0181300Y0178985D01*
X0181787Y0180161D01*
X0190419Y0188793D01*
X0190419Y0189480D02*
X0153894Y0189480D01*
X0152295Y0191079D02*
X0190965Y0191079D01*
X0192350Y0192677D02*
X0151061Y0192677D01*
X0150000Y0188848D02*
X0145512Y0188848D01*
X0150000Y0188848D02*
X0155000Y0183848D01*
X0158981Y0181488D02*
X0183114Y0181488D01*
X0181675Y0179889D02*
X0157412Y0179889D01*
X0159581Y0183086D02*
X0184712Y0183086D01*
X0186311Y0184685D02*
X0159581Y0184685D01*
X0158950Y0186283D02*
X0187909Y0186283D01*
X0189508Y0187882D02*
X0157234Y0187882D01*
X0150419Y0183086D02*
X0149576Y0183086D01*
X0151019Y0181488D02*
X0121886Y0181488D01*
X0123485Y0179889D02*
X0152588Y0179889D01*
X0141448Y0183086D02*
X0138552Y0183086D01*
X0139979Y0184685D02*
X0140021Y0184685D01*
X0134488Y0188848D02*
X0133346Y0189990D01*
X0122913Y0189990D01*
X0120000Y0189990D01*
X0117144Y0186283D02*
X0092856Y0186283D01*
X0081317Y0186283D02*
X0072091Y0186283D01*
X0073689Y0184685D02*
X0128998Y0184685D01*
X0128939Y0186283D02*
X0128683Y0186283D01*
X0130424Y0183086D02*
X0075288Y0183086D01*
X0070492Y0187882D02*
X0080553Y0187882D01*
X0080553Y0189480D02*
X0068894Y0189480D01*
X0068200Y0191079D02*
X0080553Y0191079D01*
X0080784Y0192677D02*
X0068200Y0192677D01*
X0068200Y0194276D02*
X0079347Y0194276D01*
X0077749Y0195874D02*
X0068200Y0195874D01*
X0068200Y0197473D02*
X0076150Y0197473D01*
X0074552Y0199071D02*
X0068200Y0199071D01*
X0068200Y0200670D02*
X0072953Y0200670D01*
X0071355Y0202268D02*
X0068200Y0202268D01*
X0068200Y0203867D02*
X0069756Y0203867D01*
X0074012Y0208662D02*
X0081153Y0208662D01*
X0081153Y0207064D02*
X0075610Y0207064D01*
X0077209Y0205465D02*
X0081262Y0205465D01*
X0082298Y0203867D02*
X0078807Y0203867D01*
X0083603Y0199071D02*
X0117919Y0199071D01*
X0118111Y0197473D02*
X0085201Y0197473D01*
X0086800Y0195874D02*
X0118996Y0195874D01*
X0117722Y0194276D02*
X0092278Y0194276D01*
X0087665Y0203867D02*
X0086509Y0203867D01*
X0086509Y0205465D02*
X0087665Y0205465D01*
X0087665Y0207064D02*
X0086509Y0207064D01*
X0086509Y0208662D02*
X0087665Y0208662D01*
X0087665Y0210261D02*
X0086509Y0210261D01*
X0086509Y0211859D02*
X0087665Y0211859D01*
X0082763Y0211859D02*
X0070815Y0211859D01*
X0072413Y0210261D02*
X0081378Y0210261D01*
X0065000Y0213148D02*
X0019300Y0213148D01*
X0015000Y0208848D01*
X0015000Y0199360D01*
X0008750Y0208197D02*
X0009057Y0208504D01*
X0009701Y0209148D01*
X0016901Y0216348D01*
X0123748Y0216348D01*
X0130000Y0210097D01*
X0144384Y0216448D02*
X0144928Y0216223D01*
X0147375Y0213776D01*
X0148398Y0211307D01*
X0151639Y0214548D01*
X0156361Y0214548D01*
X0159000Y0211909D01*
X0161639Y0214548D01*
X0166361Y0214548D01*
X0169000Y0211909D01*
X0171639Y0214548D01*
X0176361Y0214548D01*
X0179424Y0211485D01*
X0181888Y0213948D01*
X0183816Y0213948D01*
X0183816Y0209033D01*
X0184184Y0209033D01*
X0184184Y0213948D01*
X0186112Y0213948D01*
X0188576Y0211485D01*
X0191639Y0214548D01*
X0196361Y0214548D01*
X0199000Y0211909D01*
X0201639Y0214548D01*
X0206361Y0214548D01*
X0209000Y0211909D01*
X0211639Y0214548D01*
X0216361Y0214548D01*
X0219000Y0211909D01*
X0221639Y0214548D01*
X0226361Y0214548D01*
X0229000Y0211909D01*
X0231639Y0214548D01*
X0236361Y0214548D01*
X0239000Y0211909D01*
X0241639Y0214548D01*
X0246361Y0214548D01*
X0249700Y0211209D01*
X0249700Y0206487D01*
X0248042Y0204830D01*
X0255958Y0204830D01*
X0254300Y0206487D01*
X0254300Y0211209D01*
X0257639Y0214548D01*
X0262361Y0214548D01*
X0265000Y0211909D01*
X0267639Y0214548D01*
X0272361Y0214548D01*
X0275000Y0211909D01*
X0277639Y0214548D01*
X0282361Y0214548D01*
X0285000Y0211909D01*
X0287639Y0214548D01*
X0292361Y0214548D01*
X0295000Y0211909D01*
X0297639Y0214548D01*
X0302361Y0214548D01*
X0305000Y0211909D01*
X0307639Y0214548D01*
X0312361Y0214548D01*
X0315000Y0211909D01*
X0317639Y0214548D01*
X0322361Y0214548D01*
X0325000Y0211909D01*
X0327639Y0214548D01*
X0332361Y0214548D01*
X0335700Y0211209D01*
X0335700Y0206487D01*
X0332361Y0203148D01*
X0327639Y0203148D01*
X0325000Y0205787D01*
X0323989Y0204776D01*
X0325036Y0204342D01*
X0333413Y0195965D01*
X0333900Y0194789D01*
X0333900Y0155051D01*
X0335072Y0156223D01*
X0338270Y0157548D01*
X0341730Y0157548D01*
X0344928Y0156223D01*
X0347375Y0153776D01*
X0347600Y0153232D01*
X0347600Y0153848D01*
X0347480Y0155403D01*
X0346534Y0158365D01*
X0344732Y0160899D01*
X0343560Y0161928D01*
X0343178Y0162215D01*
X0341703Y0163321D01*
X0341703Y0163321D01*
X0341703Y0163321D01*
X0339012Y0167105D01*
X0339012Y0167105D01*
X0337600Y0171527D01*
X0337600Y0208848D01*
X0337506Y0210037D01*
X0336772Y0212299D01*
X0335374Y0214222D01*
X0333450Y0215620D01*
X0331189Y0216355D01*
X0330000Y0216448D01*
X0144384Y0216448D01*
X0146095Y0215056D02*
X0334226Y0215056D01*
X0333452Y0213458D02*
X0335929Y0213458D01*
X0335050Y0211859D02*
X0336914Y0211859D01*
X0337434Y0210261D02*
X0335700Y0210261D01*
X0335700Y0208662D02*
X0337600Y0208662D01*
X0337600Y0207064D02*
X0335700Y0207064D01*
X0334678Y0205465D02*
X0337600Y0205465D01*
X0337600Y0203867D02*
X0333079Y0203867D01*
X0337600Y0202268D02*
X0327110Y0202268D01*
X0326921Y0203867D02*
X0325511Y0203867D01*
X0325322Y0205465D02*
X0324678Y0205465D01*
X0323223Y0201630D02*
X0221219Y0201630D01*
X0214000Y0208848D01*
X0210548Y0213458D02*
X0207452Y0213458D01*
X0200548Y0213458D02*
X0197452Y0213458D01*
X0190548Y0213458D02*
X0186603Y0213458D01*
X0188202Y0211859D02*
X0188950Y0211859D01*
X0184184Y0211859D02*
X0183816Y0211859D01*
X0183816Y0210261D02*
X0184184Y0210261D01*
X0184184Y0208662D02*
X0183816Y0208662D01*
X0183816Y0207064D02*
X0184184Y0207064D01*
X0184184Y0205465D02*
X0183816Y0205465D01*
X0183816Y0203867D02*
X0184184Y0203867D01*
X0186231Y0203867D02*
X0190921Y0203867D01*
X0189322Y0205465D02*
X0187829Y0205465D01*
X0181769Y0203867D02*
X0177079Y0203867D01*
X0178678Y0205465D02*
X0180171Y0205465D01*
X0179798Y0211859D02*
X0179050Y0211859D01*
X0177452Y0213458D02*
X0181397Y0213458D01*
X0183816Y0213458D02*
X0184184Y0213458D01*
X0170548Y0213458D02*
X0167452Y0213458D01*
X0160548Y0213458D02*
X0157452Y0213458D01*
X0150548Y0213458D02*
X0147507Y0213458D01*
X0148169Y0211859D02*
X0148950Y0211859D01*
X0149322Y0205465D02*
X0148015Y0205465D01*
X0147321Y0203867D02*
X0150921Y0203867D01*
X0145722Y0202268D02*
X0206055Y0202268D01*
X0207653Y0200670D02*
X0142987Y0200670D01*
X0157079Y0203867D02*
X0160921Y0203867D01*
X0159322Y0205465D02*
X0158678Y0205465D01*
X0167079Y0203867D02*
X0170921Y0203867D01*
X0169322Y0205465D02*
X0168678Y0205465D01*
X0197079Y0203867D02*
X0200921Y0203867D01*
X0199322Y0205465D02*
X0198678Y0205465D01*
X0204000Y0208848D02*
X0214419Y0198430D01*
X0321898Y0198430D01*
X0327500Y0192827D01*
X0327500Y0131848D01*
X0330500Y0128848D01*
X0324300Y0138148D02*
X0320000Y0133848D01*
X0320000Y0123848D01*
X0325000Y0118848D01*
X0330500Y0118848D01*
X0324600Y0112948D01*
X0324600Y0106405D01*
X0328056Y0102948D01*
X0334600Y0102948D01*
X0339581Y0097967D01*
X0339581Y0076951D01*
X0336479Y0073848D01*
X0238750Y0073848D01*
X0242029Y0070648D02*
X0337115Y0070648D01*
X0338291Y0071136D01*
X0339191Y0072036D01*
X0341394Y0074238D01*
X0342294Y0075138D01*
X0342781Y0076314D01*
X0342781Y0098604D01*
X0342294Y0099780D01*
X0338525Y0103548D01*
X0340316Y0103548D01*
X0340316Y0108664D01*
X0340684Y0108664D01*
X0340684Y0103548D01*
X0342695Y0103548D01*
X0345800Y0106653D01*
X0345800Y0108664D01*
X0340684Y0108664D01*
X0340684Y0109033D01*
X0345800Y0109033D01*
X0345800Y0111044D01*
X0343420Y0113424D01*
X0346400Y0116405D01*
X0346400Y0120223D01*
X0347600Y0121423D01*
X0347600Y0043232D01*
X0347375Y0043776D01*
X0344928Y0046223D01*
X0341730Y0047548D01*
X0338270Y0047548D01*
X0335072Y0046223D01*
X0332625Y0043776D01*
X0331301Y0040579D01*
X0331301Y0037118D01*
X0332625Y0033921D01*
X0335072Y0031474D01*
X0338270Y0030149D01*
X0341730Y0030149D01*
X0344928Y0031474D01*
X0347375Y0033921D01*
X0347600Y0034464D01*
X0347600Y0033848D01*
X0347480Y0032294D01*
X0346534Y0029332D01*
X0344732Y0026798D01*
X0343560Y0025768D01*
X0341703Y0024376D01*
X0341703Y0024376D01*
X0341703Y0024376D01*
X0339012Y0020592D01*
X0337600Y0016170D01*
X0337600Y0013848D01*
X0337550Y0013341D01*
X0337162Y0012404D01*
X0336444Y0011687D01*
X0335507Y0011298D01*
X0335000Y0011248D01*
X0238200Y0011248D01*
X0238200Y0013748D01*
X0239816Y0013748D01*
X0239816Y0018664D01*
X0240184Y0018664D01*
X0240184Y0013748D01*
X0242112Y0013748D01*
X0245000Y0016636D01*
X0247888Y0013748D01*
X0249816Y0013748D01*
X0249816Y0018664D01*
X0250184Y0018664D01*
X0250184Y0013748D01*
X0252112Y0013748D01*
X0254576Y0016212D01*
X0257639Y0013148D01*
X0262361Y0013148D01*
X0265700Y0016487D01*
X0265700Y0021209D01*
X0262361Y0024548D01*
X0257639Y0024548D01*
X0254576Y0021485D01*
X0252112Y0023948D01*
X0250184Y0023948D01*
X0250184Y0019033D01*
X0249816Y0019033D01*
X0249816Y0023948D01*
X0247888Y0023948D01*
X0245000Y0021061D01*
X0242112Y0023948D01*
X0240184Y0023948D01*
X0240184Y0019033D01*
X0239816Y0019033D01*
X0239816Y0023948D01*
X0238200Y0023948D01*
X0238200Y0040826D01*
X0248730Y0051356D01*
X0249400Y0052973D01*
X0249400Y0055329D01*
X0249747Y0055676D01*
X0250000Y0056286D01*
X0250253Y0055676D01*
X0251828Y0054101D01*
X0253886Y0053248D01*
X0256114Y0053248D01*
X0258172Y0054101D01*
X0259747Y0055676D01*
X0260322Y0057064D01*
X0260366Y0056929D01*
X0260724Y0056228D01*
X0261186Y0055591D01*
X0261743Y0055035D01*
X0262379Y0054572D01*
X0263081Y0054215D01*
X0263829Y0053972D01*
X0264606Y0053848D01*
X0265000Y0053848D01*
X0265394Y0053848D01*
X0266171Y0053972D01*
X0266919Y0054215D01*
X0267621Y0054572D01*
X0268257Y0055035D01*
X0268814Y0055591D01*
X0269276Y0056228D01*
X0269634Y0056929D01*
X0269678Y0057064D01*
X0270253Y0055676D01*
X0271800Y0054129D01*
X0271800Y0023212D01*
X0272287Y0022036D01*
X0274300Y0020023D01*
X0274300Y0016487D01*
X0277639Y0013148D01*
X0282361Y0013148D01*
X0285000Y0015787D01*
X0287639Y0013148D01*
X0292361Y0013148D01*
X0295000Y0015787D01*
X0297639Y0013148D01*
X0302361Y0013148D01*
X0305000Y0015787D01*
X0307639Y0013148D01*
X0312361Y0013148D01*
X0315000Y0015787D01*
X0317639Y0013148D01*
X0322361Y0013148D01*
X0325000Y0015787D01*
X0327639Y0013148D01*
X0332361Y0013148D01*
X0335700Y0016487D01*
X0335700Y0021209D01*
X0332361Y0024548D01*
X0328825Y0024548D01*
X0328200Y0025174D01*
X0328200Y0054129D01*
X0329747Y0055676D01*
X0330600Y0057735D01*
X0330600Y0059962D01*
X0329747Y0062021D01*
X0328172Y0063596D01*
X0326114Y0064448D01*
X0323886Y0064448D01*
X0321828Y0063596D01*
X0320253Y0062021D01*
X0320000Y0061411D01*
X0319747Y0062021D01*
X0318172Y0063596D01*
X0316114Y0064448D01*
X0313886Y0064448D01*
X0311828Y0063596D01*
X0310253Y0062021D01*
X0310000Y0061411D01*
X0309747Y0062021D01*
X0308172Y0063596D01*
X0306114Y0064448D01*
X0303886Y0064448D01*
X0301828Y0063596D01*
X0300253Y0062021D01*
X0300000Y0061411D01*
X0299747Y0062021D01*
X0298172Y0063596D01*
X0296114Y0064448D01*
X0293886Y0064448D01*
X0291828Y0063596D01*
X0290253Y0062021D01*
X0290000Y0061411D01*
X0289747Y0062021D01*
X0288172Y0063596D01*
X0286114Y0064448D01*
X0283886Y0064448D01*
X0281828Y0063596D01*
X0280253Y0062021D01*
X0280000Y0061411D01*
X0279747Y0062021D01*
X0278172Y0063596D01*
X0276114Y0064448D01*
X0273886Y0064448D01*
X0271828Y0063596D01*
X0270253Y0062021D01*
X0269678Y0060633D01*
X0269634Y0060768D01*
X0269276Y0061469D01*
X0268814Y0062106D01*
X0268257Y0062662D01*
X0267621Y0063125D01*
X0266919Y0063482D01*
X0266171Y0063725D01*
X0265394Y0063848D01*
X0265000Y0063848D01*
X0265000Y0058849D01*
X0265000Y0063848D01*
X0264606Y0063848D01*
X0263829Y0063725D01*
X0263081Y0063482D01*
X0262379Y0063125D01*
X0261743Y0062662D01*
X0261186Y0062106D01*
X0260724Y0061469D01*
X0260366Y0060768D01*
X0260322Y0060633D01*
X0259747Y0062021D01*
X0258172Y0063596D01*
X0256114Y0064448D01*
X0253886Y0064448D01*
X0251828Y0063596D01*
X0250253Y0062021D01*
X0250000Y0061411D01*
X0249747Y0062021D01*
X0248172Y0063596D01*
X0246114Y0064448D01*
X0243886Y0064448D01*
X0241828Y0063596D01*
X0240253Y0062021D01*
X0240000Y0061411D01*
X0239747Y0062021D01*
X0238172Y0063596D01*
X0236114Y0064448D01*
X0233886Y0064448D01*
X0231828Y0063596D01*
X0230253Y0062021D01*
X0230000Y0061411D01*
X0229747Y0062021D01*
X0228172Y0063596D01*
X0226114Y0064448D01*
X0223886Y0064448D01*
X0221828Y0063596D01*
X0220253Y0062021D01*
X0220000Y0061411D01*
X0219747Y0062021D01*
X0218172Y0063596D01*
X0216114Y0064448D01*
X0213886Y0064448D01*
X0211828Y0063596D01*
X0210253Y0062021D01*
X0210000Y0061411D01*
X0209747Y0062021D01*
X0208172Y0063596D01*
X0206114Y0064448D01*
X0203886Y0064448D01*
X0201828Y0063596D01*
X0200253Y0062021D01*
X0200000Y0061411D01*
X0199747Y0062021D01*
X0198172Y0063596D01*
X0196114Y0064448D01*
X0193886Y0064448D01*
X0191828Y0063596D01*
X0190253Y0062021D01*
X0189400Y0059962D01*
X0189400Y0057735D01*
X0190253Y0055676D01*
X0191828Y0054101D01*
X0193886Y0053248D01*
X0196114Y0053248D01*
X0198172Y0054101D01*
X0199747Y0055676D01*
X0200000Y0056286D01*
X0200253Y0055676D01*
X0201828Y0054101D01*
X0203886Y0053248D01*
X0206114Y0053248D01*
X0208172Y0054101D01*
X0209747Y0055676D01*
X0210000Y0056286D01*
X0210253Y0055676D01*
X0211828Y0054101D01*
X0213886Y0053248D01*
X0216114Y0053248D01*
X0218172Y0054101D01*
X0219747Y0055676D01*
X0220000Y0056286D01*
X0220253Y0055676D01*
X0221828Y0054101D01*
X0223886Y0053248D01*
X0226114Y0053248D01*
X0228172Y0054101D01*
X0229747Y0055676D01*
X0230000Y0056286D01*
X0230253Y0055676D01*
X0231828Y0054101D01*
X0233886Y0053248D01*
X0236114Y0053248D01*
X0238172Y0054101D01*
X0239747Y0055676D01*
X0240000Y0056286D01*
X0240253Y0055676D01*
X0240429Y0055500D01*
X0231977Y0047048D01*
X0208023Y0047048D01*
X0202492Y0052579D01*
X0200875Y0053248D01*
X0173200Y0053248D01*
X0173200Y0059485D01*
X0172713Y0060661D01*
X0171813Y0061561D01*
X0170637Y0062048D01*
X0149363Y0062048D01*
X0148187Y0061561D01*
X0147287Y0060661D01*
X0146800Y0059485D01*
X0146800Y0057048D01*
X0142350Y0057048D01*
X0142350Y0057923D01*
X0137425Y0057923D01*
X0137425Y0057973D01*
X0142350Y0057973D01*
X0142350Y0059835D01*
X0142227Y0060293D01*
X0141990Y0060704D01*
X0141655Y0061039D01*
X0141245Y0061276D01*
X0140787Y0061398D01*
X0137425Y0061398D01*
X0137425Y0057973D01*
X0137375Y0057973D01*
X0137375Y0061398D01*
X0134013Y0061398D01*
X0133555Y0061276D01*
X0133200Y0061071D01*
X0133200Y0072523D01*
X0136813Y0076136D01*
X0137713Y0077036D01*
X0138200Y0078212D01*
X0138200Y0081123D01*
X0142287Y0077036D01*
X0143187Y0076136D01*
X0144363Y0075648D01*
X0234537Y0075648D01*
X0234169Y0074760D01*
X0234169Y0072937D01*
X0234866Y0071253D01*
X0236155Y0069965D01*
X0237839Y0069267D01*
X0239661Y0069267D01*
X0241345Y0069965D01*
X0242029Y0070648D01*
X0240445Y0069592D02*
X0347600Y0069592D01*
X0347600Y0071190D02*
X0338346Y0071190D01*
X0339191Y0072036D02*
X0339191Y0072036D01*
X0339945Y0072789D02*
X0347600Y0072789D01*
X0347600Y0074387D02*
X0341543Y0074387D01*
X0342645Y0075986D02*
X0347600Y0075986D01*
X0347600Y0077584D02*
X0342781Y0077584D01*
X0342781Y0079183D02*
X0347600Y0079183D01*
X0347600Y0080781D02*
X0342781Y0080781D01*
X0342781Y0082380D02*
X0347600Y0082380D01*
X0347600Y0083978D02*
X0342781Y0083978D01*
X0342781Y0085577D02*
X0347600Y0085577D01*
X0347600Y0087175D02*
X0342781Y0087175D01*
X0342781Y0088774D02*
X0347600Y0088774D01*
X0347600Y0090373D02*
X0342781Y0090373D01*
X0342781Y0091971D02*
X0347600Y0091971D01*
X0347600Y0093570D02*
X0342781Y0093570D01*
X0342781Y0095168D02*
X0347600Y0095168D01*
X0347600Y0096767D02*
X0342781Y0096767D01*
X0342781Y0098365D02*
X0347600Y0098365D01*
X0347600Y0099964D02*
X0342110Y0099964D01*
X0340512Y0101562D02*
X0347600Y0101562D01*
X0347600Y0103161D02*
X0338913Y0103161D01*
X0340316Y0104759D02*
X0340684Y0104759D01*
X0340684Y0106358D02*
X0340316Y0106358D01*
X0340316Y0107956D02*
X0340684Y0107956D01*
X0343906Y0104759D02*
X0347600Y0104759D01*
X0347600Y0106358D02*
X0345505Y0106358D01*
X0345800Y0107956D02*
X0347600Y0107956D01*
X0347600Y0109555D02*
X0345800Y0109555D01*
X0345691Y0111153D02*
X0347600Y0111153D01*
X0347600Y0112752D02*
X0344092Y0112752D01*
X0344346Y0114350D02*
X0347600Y0114350D01*
X0347600Y0115949D02*
X0345944Y0115949D01*
X0346400Y0117547D02*
X0347600Y0117547D01*
X0347600Y0119146D02*
X0346400Y0119146D01*
X0346921Y0120744D02*
X0347600Y0120744D01*
X0347500Y0125848D02*
X0340500Y0118848D01*
X0347500Y0125848D02*
X0347500Y0131348D01*
X0340000Y0138848D01*
X0335000Y0138848D01*
X0330700Y0143148D01*
X0330700Y0194153D01*
X0323223Y0201630D01*
X0328708Y0200670D02*
X0337600Y0200670D01*
X0337600Y0199071D02*
X0330307Y0199071D01*
X0331905Y0197473D02*
X0337600Y0197473D01*
X0337600Y0195874D02*
X0333451Y0195874D01*
X0333900Y0194276D02*
X0337600Y0194276D01*
X0337600Y0192677D02*
X0333900Y0192677D01*
X0333900Y0191079D02*
X0337600Y0191079D01*
X0337600Y0189480D02*
X0333900Y0189480D01*
X0333900Y0187882D02*
X0337600Y0187882D01*
X0337600Y0186283D02*
X0333900Y0186283D01*
X0333900Y0184685D02*
X0337600Y0184685D01*
X0337600Y0183086D02*
X0333900Y0183086D01*
X0333900Y0181488D02*
X0337600Y0181488D01*
X0337600Y0179889D02*
X0333900Y0179889D01*
X0333900Y0178291D02*
X0337600Y0178291D01*
X0337600Y0176692D02*
X0333900Y0176692D01*
X0333900Y0175094D02*
X0337600Y0175094D01*
X0337600Y0173495D02*
X0333900Y0173495D01*
X0333900Y0171897D02*
X0337600Y0171897D01*
X0337992Y0170298D02*
X0333900Y0170298D01*
X0333900Y0168700D02*
X0338503Y0168700D01*
X0339015Y0167101D02*
X0333900Y0167101D01*
X0333900Y0165503D02*
X0340152Y0165503D01*
X0341288Y0163904D02*
X0333900Y0163904D01*
X0333900Y0162306D02*
X0343057Y0162306D01*
X0344868Y0160707D02*
X0333900Y0160707D01*
X0333900Y0159108D02*
X0346005Y0159108D01*
X0346807Y0157510D02*
X0341821Y0157510D01*
X0338179Y0157510D02*
X0333900Y0157510D01*
X0333900Y0155911D02*
X0334761Y0155911D01*
X0345239Y0155911D02*
X0347317Y0155911D01*
X0347564Y0154313D02*
X0346838Y0154313D01*
X0324300Y0153053D02*
X0324300Y0138148D01*
X0315375Y0138748D02*
X0310537Y0133911D01*
X0309903Y0134544D01*
X0309021Y0134910D01*
X0308200Y0134910D01*
X0308200Y0138987D01*
X0310424Y0141212D01*
X0312888Y0138748D01*
X0315000Y0138748D01*
X0315375Y0138748D01*
X0315000Y0138748D02*
X0315000Y0143848D01*
X0315000Y0143848D01*
X0315000Y0138748D01*
X0314954Y0138328D02*
X0308200Y0138328D01*
X0308200Y0136729D02*
X0313355Y0136729D01*
X0311757Y0135131D02*
X0308200Y0135131D01*
X0309139Y0139926D02*
X0311710Y0139926D01*
X0315000Y0139926D02*
X0315000Y0139926D01*
X0315000Y0141525D02*
X0315000Y0141525D01*
X0315000Y0143123D02*
X0315000Y0143123D01*
X0315000Y0143849D02*
X0315000Y0148948D01*
X0312888Y0148948D01*
X0310424Y0146485D01*
X0307361Y0149548D01*
X0302639Y0149548D01*
X0299300Y0146209D01*
X0299300Y0141487D01*
X0301800Y0138987D01*
X0301800Y0134910D01*
X0300979Y0134910D01*
X0300097Y0134544D01*
X0299422Y0133869D01*
X0299057Y0132987D01*
X0299057Y0125733D01*
X0299422Y0124851D01*
X0300097Y0124176D01*
X0300888Y0123848D01*
X0300097Y0123521D01*
X0299422Y0122846D01*
X0299057Y0121964D01*
X0299057Y0114710D01*
X0299422Y0113828D01*
X0300097Y0113152D01*
X0300979Y0112787D01*
X0301800Y0112787D01*
X0301800Y0110174D01*
X0298675Y0107048D01*
X0269363Y0107048D01*
X0268187Y0106561D01*
X0267287Y0105661D01*
X0263187Y0101561D01*
X0262287Y0100661D01*
X0261800Y0099485D01*
X0261800Y0093568D01*
X0260253Y0092021D01*
X0259678Y0090633D01*
X0259634Y0090768D01*
X0259276Y0091469D01*
X0258814Y0092106D01*
X0258257Y0092662D01*
X0257621Y0093125D01*
X0256919Y0093482D01*
X0256171Y0093725D01*
X0255394Y0093848D01*
X0255000Y0093848D01*
X0255000Y0088849D01*
X0255000Y0093848D01*
X0254606Y0093848D01*
X0253829Y0093725D01*
X0253081Y0093482D01*
X0252379Y0093125D01*
X0251743Y0092662D01*
X0251186Y0092106D01*
X0250724Y0091469D01*
X0250366Y0090768D01*
X0250322Y0090633D01*
X0249747Y0092021D01*
X0248172Y0093596D01*
X0247924Y0093698D01*
X0247924Y0101458D01*
X0248059Y0101514D01*
X0248735Y0102189D01*
X0249100Y0103071D01*
X0249100Y0109626D01*
X0248735Y0110508D01*
X0248059Y0111183D01*
X0247405Y0111454D01*
X0247183Y0111991D01*
X0246367Y0112807D01*
X0245301Y0113248D01*
X0244148Y0113248D01*
X0243082Y0112807D01*
X0242266Y0111991D01*
X0242083Y0111548D01*
X0241623Y0111548D01*
X0241447Y0111476D01*
X0241272Y0111593D01*
X0240783Y0111795D01*
X0240265Y0111898D01*
X0240000Y0111898D01*
X0239735Y0111898D01*
X0239217Y0111795D01*
X0238728Y0111593D01*
X0238591Y0111501D01*
X0238477Y0111548D01*
X0237917Y0111548D01*
X0237734Y0111991D01*
X0236918Y0112807D01*
X0235852Y0113248D01*
X0234699Y0113248D01*
X0233633Y0112807D01*
X0232817Y0111991D01*
X0232595Y0111454D01*
X0231941Y0111183D01*
X0231265Y0110508D01*
X0230900Y0109626D01*
X0230900Y0103071D01*
X0231265Y0102189D01*
X0231941Y0101514D01*
X0232076Y0101458D01*
X0232076Y0093698D01*
X0231828Y0093596D01*
X0230253Y0092021D01*
X0230000Y0091411D01*
X0229747Y0092021D01*
X0228172Y0093596D01*
X0226114Y0094448D01*
X0223886Y0094448D01*
X0221828Y0093596D01*
X0220253Y0092021D01*
X0220000Y0091411D01*
X0219747Y0092021D01*
X0218172Y0093596D01*
X0216114Y0094448D01*
X0213886Y0094448D01*
X0211828Y0093596D01*
X0210253Y0092021D01*
X0210000Y0091411D01*
X0209747Y0092021D01*
X0208172Y0093596D01*
X0206114Y0094448D01*
X0203886Y0094448D01*
X0201828Y0093596D01*
X0200253Y0092021D01*
X0200000Y0091411D01*
X0199747Y0092021D01*
X0198172Y0093596D01*
X0196114Y0094448D01*
X0193886Y0094448D01*
X0191828Y0093596D01*
X0190253Y0092021D01*
X0189400Y0089962D01*
X0189400Y0087735D01*
X0190253Y0085676D01*
X0191828Y0084101D01*
X0193886Y0083248D01*
X0196114Y0083248D01*
X0198172Y0084101D01*
X0199747Y0085676D01*
X0200000Y0086286D01*
X0200253Y0085676D01*
X0201828Y0084101D01*
X0203886Y0083248D01*
X0206114Y0083248D01*
X0208172Y0084101D01*
X0209747Y0085676D01*
X0210000Y0086286D01*
X0210253Y0085676D01*
X0211828Y0084101D01*
X0213886Y0083248D01*
X0216114Y0083248D01*
X0218172Y0084101D01*
X0219747Y0085676D01*
X0220000Y0086286D01*
X0220253Y0085676D01*
X0221828Y0084101D01*
X0223886Y0083248D01*
X0226114Y0083248D01*
X0228172Y0084101D01*
X0229747Y0085676D01*
X0230000Y0086286D01*
X0230253Y0085676D01*
X0231828Y0084101D01*
X0233886Y0083248D01*
X0236114Y0083248D01*
X0238172Y0084101D01*
X0239747Y0085676D01*
X0240000Y0086286D01*
X0240253Y0085676D01*
X0241828Y0084101D01*
X0243886Y0083248D01*
X0246114Y0083248D01*
X0248172Y0084101D01*
X0249747Y0085676D01*
X0250322Y0087064D01*
X0250366Y0086929D01*
X0250724Y0086228D01*
X0251186Y0085591D01*
X0251743Y0085035D01*
X0252379Y0084572D01*
X0253081Y0084215D01*
X0253829Y0083972D01*
X0254606Y0083848D01*
X0255000Y0083848D01*
X0255394Y0083848D01*
X0256171Y0083972D01*
X0256919Y0084215D01*
X0257621Y0084572D01*
X0258257Y0085035D01*
X0258814Y0085591D01*
X0259276Y0086228D01*
X0259634Y0086929D01*
X0259678Y0087064D01*
X0260253Y0085676D01*
X0261828Y0084101D01*
X0263886Y0083248D01*
X0266114Y0083248D01*
X0268172Y0084101D01*
X0269747Y0085676D01*
X0270000Y0086286D01*
X0270253Y0085676D01*
X0271277Y0084651D01*
X0268675Y0082048D01*
X0146325Y0082048D01*
X0141400Y0086974D01*
X0141400Y0125810D01*
X0140913Y0126987D01*
X0140013Y0127887D01*
X0113666Y0154234D01*
X0113859Y0154314D01*
X0114535Y0154989D01*
X0114900Y0155871D01*
X0114900Y0166826D01*
X0114535Y0167708D01*
X0113859Y0168383D01*
X0112977Y0168748D01*
X0107023Y0168748D01*
X0106141Y0168383D01*
X0105465Y0167708D01*
X0105100Y0166826D01*
X0105100Y0158274D01*
X0104900Y0158474D01*
X0104900Y0166826D01*
X0104535Y0167708D01*
X0103859Y0168383D01*
X0103200Y0168656D01*
X0103200Y0171985D01*
X0102713Y0173161D01*
X0101813Y0174061D01*
X0100225Y0175648D01*
X0118675Y0175648D01*
X0121800Y0172523D01*
X0121800Y0168748D01*
X0117023Y0168748D01*
X0116141Y0168383D01*
X0115465Y0167708D01*
X0115100Y0166826D01*
X0115100Y0155871D01*
X0115465Y0154989D01*
X0116141Y0154314D01*
X0117023Y0153948D01*
X0120375Y0153948D01*
X0122287Y0152036D01*
X0123187Y0151136D01*
X0124363Y0150648D01*
X0189687Y0150648D01*
X0190864Y0151136D01*
X0191764Y0152036D01*
X0200776Y0161048D01*
X0293275Y0161048D01*
X0295419Y0158904D01*
X0295419Y0157937D01*
X0296116Y0156253D01*
X0297405Y0154965D01*
X0299089Y0154267D01*
X0300911Y0154267D01*
X0302595Y0154965D01*
X0303884Y0156253D01*
X0304581Y0157937D01*
X0304581Y0159760D01*
X0303884Y0161443D01*
X0302595Y0162732D01*
X0300911Y0163430D01*
X0299944Y0163430D01*
X0299125Y0164248D01*
X0304053Y0164248D01*
X0317900Y0150402D01*
X0317900Y0148161D01*
X0317112Y0148948D01*
X0315000Y0148948D01*
X0315000Y0143849D01*
X0315000Y0143849D01*
X0315000Y0144722D02*
X0315000Y0144722D01*
X0315000Y0146320D02*
X0315000Y0146320D01*
X0315000Y0147919D02*
X0315000Y0147919D01*
X0311858Y0147919D02*
X0308991Y0147919D01*
X0307392Y0149517D02*
X0317900Y0149517D01*
X0317186Y0151116D02*
X0190816Y0151116D01*
X0191764Y0152036D02*
X0191764Y0152036D01*
X0192442Y0152714D02*
X0315587Y0152714D01*
X0313989Y0154313D02*
X0301021Y0154313D01*
X0298979Y0154313D02*
X0194041Y0154313D01*
X0195639Y0155911D02*
X0296458Y0155911D01*
X0295596Y0157510D02*
X0197238Y0157510D01*
X0198837Y0159108D02*
X0295214Y0159108D01*
X0293616Y0160707D02*
X0200435Y0160707D01*
X0199451Y0164248D02*
X0294600Y0164248D01*
X0300000Y0158848D01*
X0304189Y0160707D02*
X0307595Y0160707D01*
X0309193Y0159108D02*
X0304581Y0159108D01*
X0304404Y0157510D02*
X0310792Y0157510D01*
X0312390Y0155911D02*
X0303542Y0155911D01*
X0303022Y0162306D02*
X0305996Y0162306D01*
X0304398Y0163904D02*
X0299470Y0163904D01*
X0315780Y0175094D02*
X0324300Y0175094D01*
X0324300Y0176692D02*
X0313997Y0176692D01*
X0317379Y0173495D02*
X0324300Y0173495D01*
X0324300Y0171897D02*
X0320930Y0171897D01*
X0321858Y0170298D02*
X0324300Y0170298D01*
X0324300Y0168700D02*
X0322081Y0168700D01*
X0324300Y0178291D02*
X0220083Y0178291D01*
X0218485Y0179889D02*
X0324300Y0179889D01*
X0324300Y0181488D02*
X0216886Y0181488D01*
X0215288Y0183086D02*
X0324300Y0183086D01*
X0324300Y0184685D02*
X0213689Y0184685D01*
X0212091Y0186283D02*
X0324300Y0186283D01*
X0324300Y0187882D02*
X0210492Y0187882D01*
X0208894Y0189480D02*
X0324300Y0189480D01*
X0324300Y0191079D02*
X0207295Y0191079D01*
X0205697Y0192677D02*
X0323124Y0192677D01*
X0321526Y0194276D02*
X0204098Y0194276D01*
X0202500Y0195874D02*
X0212449Y0195874D01*
X0210850Y0197473D02*
X0200901Y0197473D01*
X0199288Y0199071D02*
X0209252Y0199071D01*
X0217452Y0213458D02*
X0220548Y0213458D01*
X0227452Y0213458D02*
X0230548Y0213458D01*
X0237452Y0213458D02*
X0240548Y0213458D01*
X0247452Y0213458D02*
X0256548Y0213458D01*
X0254950Y0211859D02*
X0249050Y0211859D01*
X0249700Y0210261D02*
X0254300Y0210261D01*
X0254300Y0208662D02*
X0249700Y0208662D01*
X0249700Y0207064D02*
X0254300Y0207064D01*
X0255322Y0205465D02*
X0248678Y0205465D01*
X0263452Y0213458D02*
X0266548Y0213458D01*
X0273452Y0213458D02*
X0276548Y0213458D01*
X0283452Y0213458D02*
X0286548Y0213458D01*
X0293452Y0213458D02*
X0296548Y0213458D01*
X0303452Y0213458D02*
X0306548Y0213458D01*
X0313452Y0213458D02*
X0316548Y0213458D01*
X0323452Y0213458D02*
X0326548Y0213458D01*
X0302608Y0149517D02*
X0118382Y0149517D01*
X0119980Y0147919D02*
X0301009Y0147919D01*
X0299411Y0146320D02*
X0121579Y0146320D01*
X0123177Y0144722D02*
X0299300Y0144722D01*
X0299300Y0143123D02*
X0124776Y0143123D01*
X0126375Y0141525D02*
X0299300Y0141525D01*
X0300861Y0139926D02*
X0127973Y0139926D01*
X0129572Y0138328D02*
X0301800Y0138328D01*
X0301800Y0136729D02*
X0131170Y0136729D01*
X0132769Y0135131D02*
X0301800Y0135131D01*
X0299282Y0133532D02*
X0134367Y0133532D01*
X0135966Y0131934D02*
X0299057Y0131934D01*
X0299057Y0130335D02*
X0137564Y0130335D01*
X0139163Y0128737D02*
X0299057Y0128737D01*
X0299057Y0127138D02*
X0140761Y0127138D01*
X0141400Y0125540D02*
X0299137Y0125540D01*
X0300664Y0123941D02*
X0141400Y0123941D01*
X0141400Y0122343D02*
X0299214Y0122343D01*
X0299057Y0120744D02*
X0141400Y0120744D01*
X0141400Y0119146D02*
X0299057Y0119146D01*
X0299057Y0117547D02*
X0141400Y0117547D01*
X0141400Y0115949D02*
X0299057Y0115949D01*
X0299206Y0114350D02*
X0141400Y0114350D01*
X0141400Y0112752D02*
X0233578Y0112752D01*
X0231911Y0111153D02*
X0141400Y0111153D01*
X0141400Y0109555D02*
X0230900Y0109555D01*
X0230900Y0107956D02*
X0141400Y0107956D01*
X0141400Y0106358D02*
X0230900Y0106358D01*
X0230900Y0104759D02*
X0141400Y0104759D01*
X0141400Y0103161D02*
X0230900Y0103161D01*
X0231892Y0101562D02*
X0141400Y0101562D01*
X0141400Y0099964D02*
X0232076Y0099964D01*
X0232076Y0098365D02*
X0141400Y0098365D01*
X0141400Y0096767D02*
X0232076Y0096767D01*
X0232076Y0095168D02*
X0141400Y0095168D01*
X0141400Y0093570D02*
X0191802Y0093570D01*
X0190232Y0091971D02*
X0141400Y0091971D01*
X0141400Y0090373D02*
X0189570Y0090373D01*
X0189400Y0088774D02*
X0141400Y0088774D01*
X0141400Y0087175D02*
X0189632Y0087175D01*
X0190352Y0085577D02*
X0142797Y0085577D01*
X0144395Y0083978D02*
X0192124Y0083978D01*
X0197876Y0083978D02*
X0202124Y0083978D01*
X0200352Y0085577D02*
X0199648Y0085577D01*
X0199768Y0091971D02*
X0200232Y0091971D01*
X0201802Y0093570D02*
X0198198Y0093570D01*
X0208198Y0093570D02*
X0211802Y0093570D01*
X0210232Y0091971D02*
X0209768Y0091971D01*
X0209648Y0085577D02*
X0210352Y0085577D01*
X0212124Y0083978D02*
X0207876Y0083978D01*
X0217876Y0083978D02*
X0222124Y0083978D01*
X0220352Y0085577D02*
X0219648Y0085577D01*
X0227876Y0083978D02*
X0232124Y0083978D01*
X0230352Y0085577D02*
X0229648Y0085577D01*
X0235000Y0088848D02*
X0235276Y0089124D01*
X0235276Y0106348D01*
X0240000Y0106348D02*
X0240000Y0113848D01*
X0240000Y0111898D02*
X0240000Y0110543D01*
X0240000Y0110542D01*
X0240000Y0111898D01*
X0240000Y0111153D02*
X0240000Y0111153D01*
X0236974Y0112752D02*
X0243026Y0112752D01*
X0246422Y0112752D02*
X0301800Y0112752D01*
X0301800Y0111153D02*
X0248089Y0111153D01*
X0249100Y0109555D02*
X0301181Y0109555D01*
X0299582Y0107956D02*
X0249100Y0107956D01*
X0249100Y0106358D02*
X0267984Y0106358D01*
X0266385Y0104759D02*
X0249100Y0104759D01*
X0249100Y0103161D02*
X0264787Y0103161D01*
X0263188Y0101562D02*
X0248108Y0101562D01*
X0247924Y0099964D02*
X0261998Y0099964D01*
X0261800Y0098365D02*
X0247924Y0098365D01*
X0247924Y0096767D02*
X0261800Y0096767D01*
X0261800Y0095168D02*
X0247924Y0095168D01*
X0248198Y0093570D02*
X0253350Y0093570D01*
X0255000Y0093570D02*
X0255000Y0093570D01*
X0255000Y0091971D02*
X0255000Y0091971D01*
X0255000Y0090373D02*
X0255000Y0090373D01*
X0255000Y0088849D02*
X0255000Y0088849D01*
X0255000Y0088848D02*
X0255000Y0083848D01*
X0255000Y0088848D01*
X0255000Y0088848D01*
X0255000Y0088774D02*
X0255000Y0088774D01*
X0255000Y0087175D02*
X0255000Y0087175D01*
X0255000Y0085577D02*
X0255000Y0085577D01*
X0255000Y0083978D02*
X0255000Y0083978D01*
X0256192Y0083978D02*
X0262124Y0083978D01*
X0260352Y0085577D02*
X0258800Y0085577D01*
X0253808Y0083978D02*
X0247876Y0083978D01*
X0249648Y0085577D02*
X0251200Y0085577D01*
X0245000Y0088848D02*
X0244724Y0089124D01*
X0244724Y0106348D01*
X0256650Y0093570D02*
X0261800Y0093570D01*
X0260232Y0091971D02*
X0258912Y0091971D01*
X0265000Y0088848D02*
X0265000Y0098848D01*
X0270000Y0103848D01*
X0300000Y0103848D01*
X0305000Y0108848D01*
X0305000Y0118337D01*
X0314450Y0117547D02*
X0321776Y0117547D01*
X0323075Y0115949D02*
X0314450Y0115949D01*
X0314450Y0114350D02*
X0321717Y0114350D01*
X0321400Y0112752D02*
X0314450Y0112752D01*
X0314450Y0111153D02*
X0321400Y0111153D01*
X0321400Y0109555D02*
X0314450Y0109555D01*
X0314450Y0107956D02*
X0321400Y0107956D01*
X0321400Y0106358D02*
X0314450Y0106358D01*
X0314450Y0104759D02*
X0321818Y0104759D01*
X0323318Y0103161D02*
X0314450Y0103161D01*
X0314450Y0101562D02*
X0324917Y0101562D01*
X0326900Y0099964D02*
X0314450Y0099964D01*
X0314450Y0098365D02*
X0334658Y0098365D01*
X0336256Y0096767D02*
X0314450Y0096767D01*
X0314450Y0095168D02*
X0336381Y0095168D01*
X0336381Y0093570D02*
X0328198Y0093570D01*
X0329768Y0091971D02*
X0336381Y0091971D01*
X0336381Y0090373D02*
X0330430Y0090373D01*
X0330600Y0088774D02*
X0336381Y0088774D01*
X0336381Y0087175D02*
X0330368Y0087175D01*
X0329648Y0085577D02*
X0336381Y0085577D01*
X0336381Y0083978D02*
X0327876Y0083978D01*
X0320232Y0091971D02*
X0319768Y0091971D01*
X0318198Y0093570D02*
X0321802Y0093570D01*
X0312124Y0083978D02*
X0307876Y0083978D01*
X0309648Y0085577D02*
X0310352Y0085577D01*
X0315842Y0080781D02*
X0276458Y0080781D01*
X0274860Y0079183D02*
X0315419Y0079183D01*
X0315565Y0077584D02*
X0273261Y0077584D01*
X0269006Y0082380D02*
X0145994Y0082380D01*
X0141739Y0077584D02*
X0137940Y0077584D01*
X0138200Y0079183D02*
X0140140Y0079183D01*
X0138541Y0080781D02*
X0138200Y0080781D01*
X0135000Y0078848D02*
X0135000Y0123848D01*
X0100000Y0158848D01*
X0100000Y0161348D01*
X0100000Y0171348D01*
X0097500Y0173848D01*
X0092500Y0173848D01*
X0090000Y0171348D01*
X0090000Y0161348D01*
X0104900Y0160707D02*
X0105100Y0160707D01*
X0105100Y0159108D02*
X0104900Y0159108D01*
X0104900Y0162306D02*
X0105100Y0162306D01*
X0105100Y0163904D02*
X0104900Y0163904D01*
X0104900Y0165503D02*
X0105100Y0165503D01*
X0105214Y0167101D02*
X0104786Y0167101D01*
X0103200Y0168700D02*
X0106905Y0168700D01*
X0103200Y0170298D02*
X0121800Y0170298D01*
X0121800Y0171897D02*
X0103200Y0171897D01*
X0102379Y0173495D02*
X0120828Y0173495D01*
X0119229Y0175094D02*
X0100780Y0175094D01*
X0113095Y0168700D02*
X0116905Y0168700D01*
X0115214Y0167101D02*
X0114786Y0167101D01*
X0114900Y0165503D02*
X0115100Y0165503D01*
X0115100Y0163904D02*
X0114900Y0163904D01*
X0114900Y0162306D02*
X0115100Y0162306D01*
X0115100Y0160707D02*
X0114900Y0160707D01*
X0114900Y0159108D02*
X0115100Y0159108D01*
X0115100Y0157510D02*
X0114900Y0157510D01*
X0114900Y0155911D02*
X0115100Y0155911D01*
X0116143Y0154313D02*
X0113857Y0154313D01*
X0115185Y0152714D02*
X0121608Y0152714D01*
X0123235Y0151116D02*
X0116783Y0151116D01*
X0110000Y0153374D02*
X0110000Y0161348D01*
X0120000Y0161348D02*
X0120000Y0158848D01*
X0125000Y0153848D01*
X0189051Y0153848D01*
X0199451Y0164248D01*
X0180500Y0163848D02*
X0170000Y0163848D01*
X0174808Y0167101D02*
X0176964Y0167101D01*
X0178655Y0168700D02*
X0173210Y0168700D01*
X0166790Y0168700D02*
X0163210Y0168700D01*
X0164808Y0167101D02*
X0165192Y0167101D01*
X0160000Y0163848D02*
X0145512Y0163848D01*
X0151061Y0167101D02*
X0155192Y0167101D01*
X0156790Y0168700D02*
X0150717Y0168700D01*
X0140306Y0168700D02*
X0138876Y0168700D01*
X0139438Y0167101D02*
X0139962Y0167101D01*
X0139962Y0165503D02*
X0139438Y0165503D01*
X0139962Y0163904D02*
X0135263Y0163904D01*
X0133713Y0163904D02*
X0128220Y0163904D01*
X0128200Y0165503D02*
X0129539Y0165503D01*
X0129539Y0167101D02*
X0128200Y0167101D01*
X0128200Y0168700D02*
X0130101Y0168700D01*
X0128200Y0170298D02*
X0181300Y0170298D01*
X0181300Y0171897D02*
X0128200Y0171897D01*
X0128200Y0173495D02*
X0181300Y0173495D01*
X0181300Y0175094D02*
X0127948Y0175094D01*
X0126682Y0176692D02*
X0181300Y0176692D01*
X0181300Y0178291D02*
X0125083Y0178291D01*
X0133713Y0168700D02*
X0135263Y0168700D01*
X0135263Y0167101D02*
X0133713Y0167101D01*
X0133713Y0165503D02*
X0135263Y0165503D01*
X0139438Y0162306D02*
X0139962Y0162306D01*
X0110000Y0153374D02*
X0138200Y0125174D01*
X0138200Y0085648D01*
X0135000Y0078848D02*
X0125000Y0068848D01*
X0130000Y0069592D02*
X0109556Y0069592D01*
X0109556Y0071190D02*
X0130000Y0071190D01*
X0130000Y0072789D02*
X0109556Y0072789D01*
X0105578Y0066395D02*
X0104422Y0066395D01*
X0104422Y0064796D02*
X0105578Y0064796D01*
X0105578Y0063198D02*
X0104422Y0063198D01*
X0104422Y0061599D02*
X0105578Y0061599D01*
X0100623Y0061599D02*
X0053200Y0061599D01*
X0053200Y0063198D02*
X0100444Y0063198D01*
X0100444Y0064796D02*
X0053200Y0064796D01*
X0046800Y0077584D02*
X0032257Y0077584D01*
X0032257Y0075986D02*
X0032612Y0075986D01*
X0032257Y0079183D02*
X0046800Y0079183D01*
X0046800Y0080781D02*
X0032257Y0080781D01*
X0032257Y0082380D02*
X0046800Y0082380D01*
X0046800Y0083978D02*
X0032257Y0083978D01*
X0032257Y0085577D02*
X0046800Y0085577D01*
X0046800Y0087175D02*
X0032257Y0087175D01*
X0032257Y0088774D02*
X0046800Y0088774D01*
X0046800Y0090373D02*
X0032257Y0090373D01*
X0032257Y0091971D02*
X0046800Y0091971D01*
X0046800Y0093570D02*
X0032257Y0093570D01*
X0032257Y0095168D02*
X0046800Y0095168D01*
X0046800Y0096767D02*
X0032257Y0096767D01*
X0032257Y0098365D02*
X0046800Y0098365D01*
X0046800Y0099964D02*
X0032257Y0099964D01*
X0032257Y0101562D02*
X0046800Y0101562D01*
X0046800Y0103161D02*
X0032257Y0103161D01*
X0032257Y0104759D02*
X0046800Y0104759D01*
X0053200Y0098365D02*
X0081952Y0098365D01*
X0086875Y0102495D02*
X0086875Y0093848D01*
X0092222Y0098365D02*
X0117778Y0098365D01*
X0122913Y0102707D02*
X0087087Y0102707D01*
X0086875Y0102495D01*
X0092912Y0106358D02*
X0117088Y0106358D01*
X0116830Y0111153D02*
X0131800Y0111153D01*
X0131800Y0109555D02*
X0071605Y0109555D01*
X0070000Y0113848D02*
X0115000Y0113848D01*
X0120000Y0118848D01*
X0120000Y0126348D01*
X0120000Y0133848D01*
X0107500Y0146348D01*
X0104339Y0149510D01*
X0089339Y0149510D01*
X0055000Y0183848D01*
X0055000Y0173848D02*
X0082539Y0146310D01*
X0097064Y0146310D01*
X0110000Y0133374D01*
X0110000Y0126348D01*
X0110000Y0121348D01*
X0107500Y0118848D01*
X0069488Y0118848D01*
X0065000Y0123337D01*
X0044222Y0130335D02*
X0040778Y0130335D01*
X0040943Y0131934D02*
X0044057Y0131934D01*
X0044057Y0133532D02*
X0040943Y0133532D01*
X0040943Y0135131D02*
X0044057Y0135131D01*
X0036024Y0139910D02*
X0036024Y0139910D01*
X0029198Y0138328D02*
X0025802Y0138328D01*
X0025943Y0136729D02*
X0029057Y0136729D01*
X0029057Y0135131D02*
X0025943Y0135131D01*
X0025943Y0133532D02*
X0029057Y0133532D01*
X0028048Y0131934D02*
X0025943Y0131934D01*
X0025778Y0130335D02*
X0026450Y0130335D01*
X0025857Y0128737D02*
X0019839Y0128737D01*
X0019225Y0127138D02*
X0020775Y0127138D01*
X0020775Y0125540D02*
X0019225Y0125540D01*
X0025343Y0125540D02*
X0025857Y0125540D01*
X0025857Y0127138D02*
X0025232Y0127138D01*
X0013985Y0131934D02*
X0007400Y0131934D01*
X0007400Y0133532D02*
X0014057Y0133532D01*
X0014057Y0135131D02*
X0007400Y0135131D01*
X0007400Y0136729D02*
X0014057Y0136729D01*
X0014198Y0138328D02*
X0007400Y0138328D01*
X0007400Y0139926D02*
X0016983Y0139926D01*
X0018151Y0141525D02*
X0007400Y0141525D01*
X0007400Y0143123D02*
X0019749Y0143123D01*
X0021348Y0144722D02*
X0007400Y0144722D01*
X0007400Y0146320D02*
X0078003Y0146320D01*
X0076404Y0147919D02*
X0056625Y0147919D01*
X0059296Y0149517D02*
X0074806Y0149517D01*
X0073207Y0151116D02*
X0060471Y0151116D01*
X0061100Y0152714D02*
X0071608Y0152714D01*
X0070010Y0154313D02*
X0061100Y0154313D01*
X0060748Y0155911D02*
X0068411Y0155911D01*
X0066813Y0157510D02*
X0059965Y0157510D01*
X0058241Y0159108D02*
X0065214Y0159108D01*
X0063616Y0160707D02*
X0059516Y0160707D01*
X0060282Y0162306D02*
X0062017Y0162306D01*
X0060419Y0163904D02*
X0055200Y0163904D01*
X0054800Y0163904D02*
X0030200Y0163904D01*
X0029800Y0163904D02*
X0007400Y0163904D01*
X0007400Y0162306D02*
X0024718Y0162306D01*
X0025484Y0160707D02*
X0007400Y0160707D01*
X0007400Y0159108D02*
X0026759Y0159108D01*
X0025035Y0157510D02*
X0007400Y0157510D01*
X0007400Y0155911D02*
X0024252Y0155911D01*
X0023900Y0154313D02*
X0007400Y0154313D01*
X0007400Y0152714D02*
X0023900Y0152714D01*
X0024529Y0151116D02*
X0007400Y0151116D01*
X0007400Y0149517D02*
X0025704Y0149517D01*
X0028375Y0147919D02*
X0007400Y0147919D01*
X0031625Y0147919D02*
X0053375Y0147919D01*
X0051759Y0159108D02*
X0033241Y0159108D01*
X0034516Y0160707D02*
X0050484Y0160707D01*
X0049718Y0162306D02*
X0035282Y0162306D01*
X0035246Y0165503D02*
X0049754Y0165503D01*
X0050565Y0167101D02*
X0034435Y0167101D01*
X0033478Y0168700D02*
X0051522Y0168700D01*
X0026522Y0168700D02*
X0007400Y0168700D01*
X0007400Y0170298D02*
X0024924Y0170298D01*
X0024206Y0171897D02*
X0022574Y0171897D01*
X0020000Y0173848D02*
X0015000Y0173848D01*
X0008750Y0180098D01*
X0008750Y0208197D01*
X0030000Y0193848D02*
X0022500Y0186348D01*
X0022500Y0181348D01*
X0020000Y0178848D01*
X0017500Y0178848D01*
X0015000Y0181348D01*
X0015000Y0188337D01*
X0020000Y0173848D02*
X0030000Y0183848D01*
X0010828Y0173495D02*
X0007400Y0173495D01*
X0007400Y0171897D02*
X0012426Y0171897D01*
X0009229Y0175094D02*
X0007400Y0175094D01*
X0007400Y0176692D02*
X0007631Y0176692D01*
X0007400Y0167101D02*
X0025565Y0167101D01*
X0024754Y0165503D02*
X0007400Y0165503D01*
X0007400Y0130335D02*
X0012386Y0130335D01*
X0011113Y0128737D02*
X0007400Y0128737D01*
X0007400Y0127138D02*
X0010857Y0127138D01*
X0010857Y0125540D02*
X0007400Y0125540D01*
X0007400Y0123941D02*
X0010857Y0123941D01*
X0010857Y0122343D02*
X0007400Y0122343D01*
X0007400Y0120744D02*
X0010857Y0120744D01*
X0010857Y0119146D02*
X0007400Y0119146D01*
X0007400Y0117547D02*
X0010857Y0117547D01*
X0010857Y0115949D02*
X0007400Y0115949D01*
X0007400Y0114350D02*
X0010857Y0114350D01*
X0010857Y0112752D02*
X0007400Y0112752D01*
X0007400Y0111153D02*
X0010857Y0111153D01*
X0010857Y0109555D02*
X0007400Y0109555D01*
X0007400Y0107956D02*
X0010857Y0107956D01*
X0010857Y0106358D02*
X0007400Y0106358D01*
X0007400Y0104759D02*
X0010857Y0104759D01*
X0010857Y0103161D02*
X0007400Y0103161D01*
X0007400Y0101562D02*
X0010857Y0101562D01*
X0010857Y0099964D02*
X0007400Y0099964D01*
X0007400Y0098365D02*
X0010857Y0098365D01*
X0010857Y0096767D02*
X0007400Y0096767D01*
X0007400Y0095168D02*
X0010857Y0095168D01*
X0010857Y0093570D02*
X0007400Y0093570D01*
X0007400Y0091971D02*
X0010857Y0091971D01*
X0010857Y0090373D02*
X0007400Y0090373D01*
X0007400Y0088774D02*
X0010857Y0088774D01*
X0010857Y0087175D02*
X0007400Y0087175D01*
X0007400Y0085577D02*
X0010857Y0085577D01*
X0010857Y0083978D02*
X0007400Y0083978D01*
X0007400Y0082380D02*
X0010857Y0082380D01*
X0010857Y0080781D02*
X0007400Y0080781D01*
X0007400Y0079183D02*
X0010857Y0079183D01*
X0010857Y0077584D02*
X0007400Y0077584D01*
X0007400Y0075986D02*
X0010857Y0075986D01*
X0010857Y0074387D02*
X0007400Y0074387D01*
X0007400Y0072789D02*
X0010857Y0072789D01*
X0010857Y0071190D02*
X0007400Y0071190D01*
X0007400Y0069592D02*
X0010857Y0069592D01*
X0010857Y0067993D02*
X0007400Y0067993D01*
X0007400Y0066395D02*
X0010857Y0066395D01*
X0010857Y0064796D02*
X0007400Y0064796D01*
X0007400Y0063198D02*
X0010857Y0063198D01*
X0010857Y0061599D02*
X0007400Y0061599D01*
X0007400Y0060001D02*
X0010857Y0060001D01*
X0010857Y0058402D02*
X0007400Y0058402D01*
X0007400Y0056804D02*
X0010857Y0056804D01*
X0010857Y0055205D02*
X0007400Y0055205D01*
X0007400Y0053607D02*
X0010857Y0053607D01*
X0010857Y0052008D02*
X0007400Y0052008D01*
X0007400Y0050410D02*
X0010857Y0050410D01*
X0010999Y0048811D02*
X0007400Y0048811D01*
X0007400Y0047213D02*
X0012110Y0047213D01*
X0013709Y0045614D02*
X0007400Y0045614D01*
X0007400Y0044016D02*
X0015307Y0044016D01*
X0016906Y0042417D02*
X0007400Y0042417D01*
X0007400Y0040819D02*
X0018504Y0040819D01*
X0020103Y0039220D02*
X0007400Y0039220D01*
X0007400Y0037622D02*
X0021701Y0037622D01*
X0073900Y0053607D02*
X0100444Y0053607D01*
X0100444Y0055205D02*
X0078468Y0055205D01*
X0080734Y0052008D02*
X0100444Y0052008D01*
X0100444Y0050410D02*
X0082817Y0050410D01*
X0080000Y0032826D02*
X0077943Y0032826D01*
X0078075Y0031228D02*
X0080000Y0031228D01*
X0078075Y0020038D02*
X0092001Y0020038D01*
X0099882Y0024380D02*
X0099882Y0028730D01*
X0105397Y0029437D02*
X0112308Y0036348D01*
X0126800Y0036348D01*
X0126800Y0021784D01*
X0126301Y0020579D01*
X0126301Y0017118D01*
X0126800Y0015913D01*
X0126800Y0011248D01*
X0124156Y0011248D01*
X0124742Y0012662D01*
X0124742Y0015034D01*
X0123834Y0017226D01*
X0122157Y0018903D01*
X0119965Y0019811D01*
X0117610Y0019811D01*
X0117885Y0019924D01*
X0119396Y0021436D01*
X0120214Y0023410D01*
X0120214Y0025547D01*
X0119396Y0027521D01*
X0117885Y0029032D01*
X0115911Y0029850D01*
X0113774Y0029850D01*
X0111800Y0029032D01*
X0111528Y0028760D01*
X0111241Y0028837D01*
X0110118Y0028837D01*
X0110039Y0028837D01*
X0109804Y0029072D01*
X0108922Y0029437D01*
X0105397Y0029437D01*
X0105589Y0029629D02*
X0113241Y0029629D01*
X0110118Y0028967D02*
X0115000Y0033848D01*
X0111983Y0036023D02*
X0126800Y0036023D01*
X0126800Y0034425D02*
X0110384Y0034425D01*
X0108786Y0032826D02*
X0126800Y0032826D01*
X0126800Y0031228D02*
X0107187Y0031228D01*
X0110118Y0028967D02*
X0110118Y0024380D01*
X0110118Y0028758D02*
X0110118Y0028758D01*
X0110118Y0028837D01*
X0110118Y0028758D01*
X0116444Y0029629D02*
X0126800Y0029629D01*
X0126800Y0028031D02*
X0118887Y0028031D01*
X0119848Y0026432D02*
X0126800Y0026432D01*
X0126800Y0024834D02*
X0120214Y0024834D01*
X0120142Y0023235D02*
X0126800Y0023235D01*
X0126739Y0021637D02*
X0119480Y0021637D01*
X0117999Y0020038D02*
X0126301Y0020038D01*
X0126301Y0018439D02*
X0122620Y0018439D01*
X0123993Y0016841D02*
X0126416Y0016841D01*
X0126800Y0015242D02*
X0124656Y0015242D01*
X0124742Y0013644D02*
X0126800Y0013644D01*
X0126800Y0012045D02*
X0124486Y0012045D01*
X0139384Y0011248D02*
X0139928Y0011474D01*
X0142375Y0013921D01*
X0143699Y0017118D01*
X0143699Y0020579D01*
X0142375Y0023776D01*
X0139928Y0026223D01*
X0136730Y0027548D01*
X0133270Y0027548D01*
X0130072Y0026223D01*
X0130000Y0026151D01*
X0130000Y0040648D01*
X0132450Y0040648D01*
X0132450Y0039773D01*
X0137375Y0039773D01*
X0137375Y0039723D01*
X0137425Y0039723D01*
X0137425Y0036298D01*
X0140787Y0036298D01*
X0141245Y0036421D01*
X0141655Y0036658D01*
X0141990Y0036993D01*
X0142227Y0037404D01*
X0142350Y0037861D01*
X0142350Y0039723D01*
X0137425Y0039723D01*
X0137425Y0039773D01*
X0142350Y0039773D01*
X0142350Y0040648D01*
X0146800Y0040648D01*
X0146800Y0038212D01*
X0147287Y0037036D01*
X0148187Y0036136D01*
X0149363Y0035648D01*
X0170637Y0035648D01*
X0171813Y0036136D01*
X0172713Y0037036D01*
X0173200Y0038212D01*
X0173200Y0043848D01*
X0198777Y0043848D01*
X0215600Y0027026D01*
X0215600Y0022509D01*
X0215000Y0021909D01*
X0212361Y0024548D01*
X0207639Y0024548D01*
X0204576Y0021485D01*
X0202112Y0023948D01*
X0200184Y0023948D01*
X0200184Y0019033D01*
X0199816Y0019033D01*
X0199816Y0023948D01*
X0197888Y0023948D01*
X0195424Y0021485D01*
X0192361Y0024548D01*
X0187639Y0024548D01*
X0184581Y0021491D01*
X0184581Y0022260D01*
X0183884Y0023943D01*
X0182595Y0025232D01*
X0180911Y0025930D01*
X0179089Y0025930D01*
X0177686Y0025348D01*
X0171258Y0025348D01*
X0171258Y0026747D01*
X0170893Y0027629D01*
X0170218Y0028304D01*
X0169336Y0028670D01*
X0163656Y0028670D01*
X0162774Y0028304D01*
X0162099Y0027629D01*
X0161734Y0026747D01*
X0161734Y0015950D01*
X0162099Y0015068D01*
X0162774Y0014393D01*
X0163656Y0014027D01*
X0169336Y0014027D01*
X0170218Y0014393D01*
X0170893Y0015068D01*
X0171258Y0015950D01*
X0171258Y0017348D01*
X0177686Y0017348D01*
X0179089Y0016767D01*
X0180911Y0016767D01*
X0182595Y0017465D01*
X0183884Y0018753D01*
X0184300Y0019759D01*
X0184300Y0016487D01*
X0187639Y0013148D01*
X0192361Y0013148D01*
X0195424Y0016212D01*
X0197888Y0013748D01*
X0199816Y0013748D01*
X0199816Y0018664D01*
X0200184Y0018664D01*
X0200184Y0013748D01*
X0202112Y0013748D01*
X0204576Y0016212D01*
X0207639Y0013148D01*
X0212361Y0013148D01*
X0215000Y0015787D01*
X0217639Y0013148D01*
X0222361Y0013148D01*
X0225424Y0016212D01*
X0227888Y0013748D01*
X0229816Y0013748D01*
X0229816Y0018664D01*
X0230184Y0018664D01*
X0230184Y0013748D01*
X0232112Y0013748D01*
X0234576Y0016212D01*
X0235000Y0015787D01*
X0235000Y0011248D01*
X0139384Y0011248D01*
X0140500Y0012045D02*
X0235000Y0012045D01*
X0235000Y0013644D02*
X0222857Y0013644D01*
X0224455Y0015242D02*
X0226393Y0015242D01*
X0229816Y0015242D02*
X0230184Y0015242D01*
X0230184Y0016841D02*
X0229816Y0016841D01*
X0229816Y0018439D02*
X0230184Y0018439D01*
X0230184Y0019033D02*
X0229816Y0019033D01*
X0229816Y0023948D01*
X0227888Y0023948D01*
X0225424Y0021485D01*
X0224400Y0022509D01*
X0224400Y0029724D01*
X0223730Y0031341D01*
X0222492Y0032579D01*
X0211223Y0043848D01*
X0235000Y0043848D01*
X0235000Y0021909D01*
X0234576Y0021485D01*
X0232112Y0023948D01*
X0230184Y0023948D01*
X0230184Y0019033D01*
X0230184Y0020038D02*
X0229816Y0020038D01*
X0229816Y0021637D02*
X0230184Y0021637D01*
X0230184Y0023235D02*
X0229816Y0023235D01*
X0227174Y0023235D02*
X0224400Y0023235D01*
X0224400Y0024834D02*
X0235000Y0024834D01*
X0235000Y0026432D02*
X0224400Y0026432D01*
X0224400Y0028031D02*
X0235000Y0028031D01*
X0235000Y0029629D02*
X0224400Y0029629D01*
X0223777Y0031228D02*
X0235000Y0031228D01*
X0235000Y0032826D02*
X0222245Y0032826D01*
X0220646Y0034425D02*
X0235000Y0034425D01*
X0235000Y0036023D02*
X0219048Y0036023D01*
X0217449Y0037622D02*
X0235000Y0037622D01*
X0235000Y0039220D02*
X0215851Y0039220D01*
X0214252Y0040819D02*
X0235000Y0040819D01*
X0235000Y0042417D02*
X0212654Y0042417D01*
X0207858Y0047213D02*
X0232142Y0047213D01*
X0233740Y0048811D02*
X0206260Y0048811D01*
X0204661Y0050410D02*
X0235339Y0050410D01*
X0236937Y0052008D02*
X0203063Y0052008D01*
X0203021Y0053607D02*
X0196979Y0053607D01*
X0199276Y0055205D02*
X0200724Y0055205D01*
X0206979Y0053607D02*
X0213021Y0053607D01*
X0210724Y0055205D02*
X0209276Y0055205D01*
X0209922Y0061599D02*
X0210078Y0061599D01*
X0211430Y0063198D02*
X0208570Y0063198D01*
X0201430Y0063198D02*
X0198570Y0063198D01*
X0199922Y0061599D02*
X0200078Y0061599D01*
X0191430Y0063198D02*
X0133200Y0063198D01*
X0133200Y0064796D02*
X0347600Y0064796D01*
X0347600Y0063198D02*
X0328570Y0063198D01*
X0329922Y0061599D02*
X0347600Y0061599D01*
X0347600Y0060001D02*
X0330584Y0060001D01*
X0330600Y0058402D02*
X0347600Y0058402D01*
X0347600Y0056804D02*
X0330214Y0056804D01*
X0329276Y0055205D02*
X0347600Y0055205D01*
X0347600Y0053607D02*
X0328200Y0053607D01*
X0328200Y0052008D02*
X0347600Y0052008D01*
X0347600Y0050410D02*
X0328200Y0050410D01*
X0328200Y0048811D02*
X0347600Y0048811D01*
X0347600Y0047213D02*
X0342539Y0047213D01*
X0345537Y0045614D02*
X0347600Y0045614D01*
X0347600Y0044016D02*
X0347135Y0044016D01*
X0337461Y0047213D02*
X0328200Y0047213D01*
X0328200Y0045614D02*
X0334463Y0045614D01*
X0332865Y0044016D02*
X0328200Y0044016D01*
X0328200Y0042417D02*
X0332062Y0042417D01*
X0331400Y0040819D02*
X0328200Y0040819D01*
X0328200Y0039220D02*
X0331301Y0039220D01*
X0331301Y0037622D02*
X0328200Y0037622D01*
X0328200Y0036023D02*
X0331754Y0036023D01*
X0332416Y0034425D02*
X0328200Y0034425D01*
X0328200Y0032826D02*
X0333720Y0032826D01*
X0335666Y0031228D02*
X0328200Y0031228D01*
X0328200Y0029629D02*
X0346629Y0029629D01*
X0347139Y0031228D02*
X0344334Y0031228D01*
X0346280Y0032826D02*
X0347521Y0032826D01*
X0347584Y0034425D02*
X0347600Y0034425D01*
X0345608Y0028031D02*
X0328200Y0028031D01*
X0328200Y0026432D02*
X0344315Y0026432D01*
X0343560Y0025768D02*
X0343560Y0025768D01*
X0342314Y0024834D02*
X0328540Y0024834D01*
X0325000Y0023848D02*
X0330000Y0018848D01*
X0335700Y0018439D02*
X0338325Y0018439D01*
X0337814Y0016841D02*
X0335700Y0016841D01*
X0334455Y0015242D02*
X0337600Y0015242D01*
X0337580Y0013644D02*
X0332857Y0013644D01*
X0336803Y0012045D02*
X0238200Y0012045D01*
X0238200Y0013644D02*
X0257143Y0013644D01*
X0255545Y0015242D02*
X0253607Y0015242D01*
X0250184Y0015242D02*
X0249816Y0015242D01*
X0249816Y0016841D02*
X0250184Y0016841D01*
X0250184Y0018439D02*
X0249816Y0018439D01*
X0249816Y0018664D02*
X0240184Y0018664D01*
X0240184Y0019033D01*
X0245100Y0019033D01*
X0249816Y0019033D01*
X0249816Y0018664D01*
X0249816Y0020038D02*
X0250184Y0020038D01*
X0250184Y0021637D02*
X0249816Y0021637D01*
X0249816Y0023235D02*
X0250184Y0023235D01*
X0252826Y0023235D02*
X0256326Y0023235D01*
X0254727Y0021637D02*
X0254424Y0021637D01*
X0247174Y0023235D02*
X0242826Y0023235D01*
X0244424Y0021637D02*
X0245576Y0021637D01*
X0240184Y0021637D02*
X0239816Y0021637D01*
X0239816Y0023235D02*
X0240184Y0023235D01*
X0238200Y0024834D02*
X0271800Y0024834D01*
X0271800Y0026432D02*
X0238200Y0026432D01*
X0238200Y0028031D02*
X0271800Y0028031D01*
X0271800Y0029629D02*
X0238200Y0029629D01*
X0238200Y0031228D02*
X0271800Y0031228D01*
X0271800Y0032826D02*
X0238200Y0032826D01*
X0238200Y0034425D02*
X0271800Y0034425D01*
X0271800Y0036023D02*
X0238200Y0036023D01*
X0238200Y0037622D02*
X0271800Y0037622D01*
X0271800Y0039220D02*
X0238200Y0039220D01*
X0238200Y0040819D02*
X0271800Y0040819D01*
X0271800Y0042417D02*
X0239791Y0042417D01*
X0241390Y0044016D02*
X0271800Y0044016D01*
X0271800Y0045614D02*
X0242988Y0045614D01*
X0244587Y0047213D02*
X0271800Y0047213D01*
X0271800Y0048811D02*
X0246185Y0048811D01*
X0247784Y0050410D02*
X0271800Y0050410D01*
X0271800Y0052008D02*
X0249000Y0052008D01*
X0249400Y0053607D02*
X0253021Y0053607D01*
X0250724Y0055205D02*
X0249400Y0055205D01*
X0249922Y0061599D02*
X0250078Y0061599D01*
X0251430Y0063198D02*
X0248570Y0063198D01*
X0241430Y0063198D02*
X0238570Y0063198D01*
X0239922Y0061599D02*
X0240078Y0061599D01*
X0240134Y0055205D02*
X0239276Y0055205D01*
X0238536Y0053607D02*
X0236979Y0053607D01*
X0233021Y0053607D02*
X0226979Y0053607D01*
X0229276Y0055205D02*
X0230724Y0055205D01*
X0230078Y0061599D02*
X0229922Y0061599D01*
X0228570Y0063198D02*
X0231430Y0063198D01*
X0237055Y0069592D02*
X0133200Y0069592D01*
X0133200Y0071190D02*
X0234929Y0071190D01*
X0234230Y0072789D02*
X0133466Y0072789D01*
X0135064Y0074387D02*
X0234169Y0074387D01*
X0237876Y0083978D02*
X0242124Y0083978D01*
X0240352Y0085577D02*
X0239648Y0085577D01*
X0230232Y0091971D02*
X0229768Y0091971D01*
X0228198Y0093570D02*
X0231802Y0093570D01*
X0221802Y0093570D02*
X0218198Y0093570D01*
X0219768Y0091971D02*
X0220232Y0091971D01*
X0249768Y0091971D02*
X0251088Y0091971D01*
X0267876Y0083978D02*
X0270605Y0083978D01*
X0270352Y0085577D02*
X0269648Y0085577D01*
X0287876Y0083978D02*
X0292124Y0083978D01*
X0290352Y0085577D02*
X0289648Y0085577D01*
X0297876Y0083978D02*
X0302124Y0083978D01*
X0300352Y0085577D02*
X0299648Y0085577D01*
X0298570Y0063198D02*
X0301430Y0063198D01*
X0300078Y0061599D02*
X0299922Y0061599D01*
X0305000Y0058848D02*
X0305000Y0023848D01*
X0310000Y0018848D01*
X0314455Y0015242D02*
X0315545Y0015242D01*
X0317143Y0013644D02*
X0312857Y0013644D01*
X0307143Y0013644D02*
X0302857Y0013644D01*
X0304455Y0015242D02*
X0305545Y0015242D01*
X0300000Y0018848D02*
X0295000Y0023848D01*
X0295000Y0058848D01*
X0290078Y0061599D02*
X0289922Y0061599D01*
X0288570Y0063198D02*
X0291430Y0063198D01*
X0285000Y0058848D02*
X0285000Y0023848D01*
X0290000Y0018848D01*
X0294455Y0015242D02*
X0295545Y0015242D01*
X0297143Y0013644D02*
X0292857Y0013644D01*
X0287143Y0013644D02*
X0282857Y0013644D01*
X0284455Y0015242D02*
X0285545Y0015242D01*
X0280000Y0018848D02*
X0275000Y0023848D01*
X0275000Y0058848D01*
X0279922Y0061599D02*
X0280078Y0061599D01*
X0281430Y0063198D02*
X0278570Y0063198D01*
X0271430Y0063198D02*
X0267477Y0063198D01*
X0269182Y0061599D02*
X0270078Y0061599D01*
X0265000Y0061599D02*
X0265000Y0061599D01*
X0265000Y0060001D02*
X0265000Y0060001D01*
X0265000Y0058849D02*
X0265000Y0058849D01*
X0265000Y0058848D02*
X0265000Y0053848D01*
X0265000Y0058848D01*
X0265000Y0058848D01*
X0265000Y0058402D02*
X0265000Y0058402D01*
X0265000Y0056804D02*
X0265000Y0056804D01*
X0265000Y0055205D02*
X0265000Y0055205D01*
X0268428Y0055205D02*
X0270724Y0055205D01*
X0269786Y0056804D02*
X0269570Y0056804D01*
X0271800Y0053607D02*
X0256979Y0053607D01*
X0259276Y0055205D02*
X0261572Y0055205D01*
X0260430Y0056804D02*
X0260214Y0056804D01*
X0259922Y0061599D02*
X0260818Y0061599D01*
X0262523Y0063198D02*
X0258570Y0063198D01*
X0265000Y0063198D02*
X0265000Y0063198D01*
X0223021Y0053607D02*
X0216979Y0053607D01*
X0219276Y0055205D02*
X0220724Y0055205D01*
X0220078Y0061599D02*
X0219922Y0061599D01*
X0218570Y0063198D02*
X0221430Y0063198D01*
X0193021Y0053607D02*
X0173200Y0053607D01*
X0173200Y0055205D02*
X0190724Y0055205D01*
X0189786Y0056804D02*
X0173200Y0056804D01*
X0173200Y0058402D02*
X0189400Y0058402D01*
X0189416Y0060001D02*
X0172986Y0060001D01*
X0171721Y0061599D02*
X0190078Y0061599D01*
X0170000Y0058402D02*
X0150000Y0058402D01*
X0150000Y0056804D02*
X0170000Y0056804D01*
X0170000Y0055205D02*
X0167545Y0055205D01*
X0167550Y0055185D02*
X0167427Y0055643D01*
X0167190Y0056054D01*
X0166855Y0056389D01*
X0166445Y0056626D01*
X0165987Y0056748D01*
X0163375Y0056748D01*
X0163375Y0049623D01*
X0167550Y0049623D01*
X0167550Y0055185D01*
X0167550Y0053607D02*
X0170000Y0053607D01*
X0170000Y0052008D02*
X0167550Y0052008D01*
X0167550Y0050410D02*
X0170000Y0050410D01*
X0170000Y0048811D02*
X0163375Y0048811D01*
X0163375Y0048073D02*
X0163375Y0049623D01*
X0161825Y0049623D01*
X0161825Y0048073D01*
X0163375Y0048073D01*
X0163375Y0040948D01*
X0165987Y0040948D01*
X0166445Y0041071D01*
X0166855Y0041308D01*
X0167190Y0041643D01*
X0167427Y0042054D01*
X0167550Y0042511D01*
X0167550Y0048073D01*
X0163375Y0048073D01*
X0163375Y0047213D02*
X0161825Y0047213D01*
X0161825Y0048073D02*
X0161825Y0040948D01*
X0159213Y0040948D01*
X0158755Y0041071D01*
X0158345Y0041308D01*
X0158010Y0041643D01*
X0157773Y0042054D01*
X0157650Y0042511D01*
X0157650Y0048073D01*
X0161825Y0048073D01*
X0161825Y0048811D02*
X0142350Y0048811D01*
X0142350Y0048823D02*
X0137425Y0048823D01*
X0137425Y0045398D01*
X0140787Y0045398D01*
X0141245Y0045521D01*
X0141655Y0045758D01*
X0141990Y0046093D01*
X0142227Y0046504D01*
X0142350Y0046961D01*
X0142350Y0048823D01*
X0142350Y0048873D02*
X0142350Y0050735D01*
X0142227Y0051193D01*
X0141990Y0051604D01*
X0141655Y0051939D01*
X0141245Y0052176D01*
X0140787Y0052298D01*
X0137425Y0052298D01*
X0137425Y0048873D01*
X0142350Y0048873D01*
X0142350Y0050410D02*
X0157650Y0050410D01*
X0157650Y0049623D02*
X0161825Y0049623D01*
X0161825Y0056748D01*
X0159213Y0056748D01*
X0158755Y0056626D01*
X0158345Y0056389D01*
X0158010Y0056054D01*
X0157773Y0055643D01*
X0157650Y0055185D01*
X0157650Y0049623D01*
X0157650Y0052008D02*
X0141535Y0052008D01*
X0137425Y0052008D02*
X0137375Y0052008D01*
X0137375Y0052298D02*
X0134013Y0052298D01*
X0133555Y0052176D01*
X0133145Y0051939D01*
X0132810Y0051604D01*
X0132573Y0051193D01*
X0132450Y0050735D01*
X0132450Y0048873D01*
X0137375Y0048873D01*
X0137375Y0048823D01*
X0137425Y0048823D01*
X0137425Y0048873D01*
X0137375Y0048873D01*
X0137375Y0052298D01*
X0137375Y0050410D02*
X0137425Y0050410D01*
X0137375Y0048823D02*
X0132450Y0048823D01*
X0132450Y0046961D01*
X0132573Y0046504D01*
X0132810Y0046093D01*
X0133145Y0045758D01*
X0133555Y0045521D01*
X0134013Y0045398D01*
X0137375Y0045398D01*
X0137375Y0048823D01*
X0137375Y0048811D02*
X0137425Y0048811D01*
X0137375Y0047213D02*
X0137425Y0047213D01*
X0137375Y0045614D02*
X0137425Y0045614D01*
X0141406Y0045614D02*
X0157650Y0045614D01*
X0157650Y0044016D02*
X0120000Y0044016D01*
X0120000Y0045614D02*
X0133394Y0045614D01*
X0132450Y0047213D02*
X0120000Y0047213D01*
X0120000Y0048811D02*
X0132450Y0048811D01*
X0132450Y0050410D02*
X0120000Y0050410D01*
X0120000Y0052008D02*
X0133265Y0052008D01*
X0130000Y0055205D02*
X0120000Y0055205D01*
X0120000Y0053607D02*
X0157650Y0053607D01*
X0157655Y0055205D02*
X0150000Y0055205D01*
X0146800Y0058402D02*
X0142350Y0058402D01*
X0142306Y0060001D02*
X0147014Y0060001D01*
X0148279Y0061599D02*
X0133200Y0061599D01*
X0130000Y0058402D02*
X0120000Y0058402D01*
X0120000Y0056804D02*
X0130000Y0056804D01*
X0137375Y0058402D02*
X0137425Y0058402D01*
X0137375Y0060001D02*
X0137425Y0060001D01*
X0133200Y0066395D02*
X0347600Y0066395D01*
X0347600Y0067993D02*
X0133200Y0067993D01*
X0136663Y0075986D02*
X0143549Y0075986D01*
X0129211Y0077584D02*
X0078800Y0077584D01*
X0109556Y0055205D02*
X0116800Y0055205D01*
X0116800Y0053607D02*
X0109556Y0053607D01*
X0109556Y0052008D02*
X0116800Y0052008D01*
X0116800Y0050410D02*
X0109556Y0050410D01*
X0109556Y0048811D02*
X0116800Y0048811D01*
X0116800Y0047213D02*
X0109556Y0047213D01*
X0109556Y0045614D02*
X0116800Y0045614D01*
X0116800Y0044016D02*
X0109556Y0044016D01*
X0130000Y0039220D02*
X0132450Y0039220D01*
X0132450Y0039723D02*
X0132450Y0037861D01*
X0132573Y0037404D01*
X0132810Y0036993D01*
X0133145Y0036658D01*
X0133555Y0036421D01*
X0134013Y0036298D01*
X0137375Y0036298D01*
X0137375Y0039723D01*
X0132450Y0039723D01*
X0132514Y0037622D02*
X0130000Y0037622D01*
X0130000Y0036023D02*
X0148459Y0036023D01*
X0147044Y0037622D02*
X0142286Y0037622D01*
X0142350Y0039220D02*
X0146800Y0039220D01*
X0150000Y0039220D02*
X0170000Y0039220D01*
X0170000Y0040819D02*
X0150000Y0040819D01*
X0150000Y0042417D02*
X0157675Y0042417D01*
X0161825Y0042417D02*
X0163375Y0042417D01*
X0163375Y0044016D02*
X0161825Y0044016D01*
X0161825Y0045614D02*
X0163375Y0045614D01*
X0167550Y0045614D02*
X0170000Y0045614D01*
X0170000Y0044016D02*
X0167550Y0044016D01*
X0167525Y0042417D02*
X0170000Y0042417D01*
X0173200Y0042417D02*
X0200209Y0042417D01*
X0201807Y0040819D02*
X0173200Y0040819D01*
X0173200Y0039220D02*
X0203406Y0039220D01*
X0205004Y0037622D02*
X0172955Y0037622D01*
X0171541Y0036023D02*
X0206603Y0036023D01*
X0208201Y0034425D02*
X0130000Y0034425D01*
X0130000Y0032826D02*
X0209800Y0032826D01*
X0211398Y0031228D02*
X0130000Y0031228D01*
X0130000Y0029629D02*
X0212997Y0029629D01*
X0214595Y0028031D02*
X0170491Y0028031D01*
X0171258Y0026432D02*
X0215600Y0026432D01*
X0215600Y0024834D02*
X0182994Y0024834D01*
X0184177Y0023235D02*
X0186326Y0023235D01*
X0184727Y0021637D02*
X0184581Y0021637D01*
X0184300Y0018439D02*
X0183570Y0018439D01*
X0184300Y0016841D02*
X0181089Y0016841D01*
X0178911Y0016841D02*
X0171258Y0016841D01*
X0170965Y0015242D02*
X0185545Y0015242D01*
X0187143Y0013644D02*
X0142098Y0013644D01*
X0142922Y0015242D02*
X0149781Y0015242D01*
X0149701Y0015322D02*
X0150037Y0014987D01*
X0150447Y0014750D01*
X0150905Y0014627D01*
X0153123Y0014627D01*
X0153123Y0020967D01*
X0153885Y0020967D01*
X0153885Y0014627D01*
X0156103Y0014627D01*
X0156561Y0014750D01*
X0156971Y0014987D01*
X0157306Y0015322D01*
X0157543Y0015732D01*
X0157666Y0016190D01*
X0157666Y0020967D01*
X0153885Y0020967D01*
X0153885Y0021730D01*
X0153123Y0021730D01*
X0153123Y0028070D01*
X0150905Y0028070D01*
X0150447Y0027947D01*
X0150037Y0027710D01*
X0149701Y0027375D01*
X0149464Y0026964D01*
X0149342Y0026507D01*
X0149342Y0021730D01*
X0153123Y0021730D01*
X0153123Y0020967D01*
X0149342Y0020967D01*
X0149342Y0016190D01*
X0149464Y0015732D01*
X0149701Y0015322D01*
X0149342Y0016841D02*
X0143584Y0016841D01*
X0143699Y0018439D02*
X0149342Y0018439D01*
X0149342Y0020038D02*
X0143699Y0020038D01*
X0143261Y0021637D02*
X0153123Y0021637D01*
X0153885Y0021637D02*
X0161734Y0021637D01*
X0161734Y0023235D02*
X0157666Y0023235D01*
X0157666Y0021730D02*
X0153885Y0021730D01*
X0153885Y0028070D01*
X0156103Y0028070D01*
X0156561Y0027947D01*
X0156971Y0027710D01*
X0157306Y0027375D01*
X0157543Y0026964D01*
X0157666Y0026507D01*
X0157666Y0021730D01*
X0157666Y0020038D02*
X0161734Y0020038D01*
X0161734Y0018439D02*
X0157666Y0018439D01*
X0157666Y0016841D02*
X0161734Y0016841D01*
X0162027Y0015242D02*
X0157227Y0015242D01*
X0153885Y0015242D02*
X0153123Y0015242D01*
X0153123Y0016841D02*
X0153885Y0016841D01*
X0153885Y0018439D02*
X0153123Y0018439D01*
X0153123Y0020038D02*
X0153885Y0020038D01*
X0153885Y0023235D02*
X0153123Y0023235D01*
X0153123Y0024834D02*
X0153885Y0024834D01*
X0153885Y0026432D02*
X0153123Y0026432D01*
X0153123Y0028031D02*
X0153885Y0028031D01*
X0156249Y0028031D02*
X0162501Y0028031D01*
X0161734Y0026432D02*
X0157666Y0026432D01*
X0157666Y0024834D02*
X0161734Y0024834D01*
X0150759Y0028031D02*
X0130000Y0028031D01*
X0130000Y0026432D02*
X0130576Y0026432D01*
X0139424Y0026432D02*
X0149342Y0026432D01*
X0149342Y0024834D02*
X0141317Y0024834D01*
X0142599Y0023235D02*
X0149342Y0023235D01*
X0137425Y0037622D02*
X0137375Y0037622D01*
X0137375Y0039220D02*
X0137425Y0039220D01*
X0142350Y0047213D02*
X0157650Y0047213D01*
X0161825Y0050410D02*
X0163375Y0050410D01*
X0163375Y0052008D02*
X0161825Y0052008D01*
X0161825Y0053607D02*
X0163375Y0053607D01*
X0163375Y0055205D02*
X0161825Y0055205D01*
X0167550Y0047213D02*
X0170000Y0047213D01*
X0193674Y0023235D02*
X0197174Y0023235D01*
X0195576Y0021637D02*
X0195273Y0021637D01*
X0199816Y0021637D02*
X0200184Y0021637D01*
X0200184Y0023235D02*
X0199816Y0023235D01*
X0202826Y0023235D02*
X0206326Y0023235D01*
X0204727Y0021637D02*
X0204424Y0021637D01*
X0200184Y0020038D02*
X0199816Y0020038D01*
X0199816Y0018439D02*
X0200184Y0018439D01*
X0200184Y0016841D02*
X0199816Y0016841D01*
X0199816Y0015242D02*
X0200184Y0015242D01*
X0203607Y0015242D02*
X0205545Y0015242D01*
X0207143Y0013644D02*
X0192857Y0013644D01*
X0194455Y0015242D02*
X0196393Y0015242D01*
X0212857Y0013644D02*
X0217143Y0013644D01*
X0215545Y0015242D02*
X0214455Y0015242D01*
X0213674Y0023235D02*
X0215600Y0023235D01*
X0225273Y0021637D02*
X0225576Y0021637D01*
X0232826Y0023235D02*
X0235000Y0023235D01*
X0234727Y0021637D02*
X0234424Y0021637D01*
X0239816Y0020038D02*
X0240184Y0020038D01*
X0240184Y0018439D02*
X0239816Y0018439D01*
X0239816Y0016841D02*
X0240184Y0016841D01*
X0240184Y0015242D02*
X0239816Y0015242D01*
X0243607Y0015242D02*
X0246393Y0015242D01*
X0235000Y0015242D02*
X0233607Y0015242D01*
X0262857Y0013644D02*
X0277143Y0013644D01*
X0275545Y0015242D02*
X0264455Y0015242D01*
X0265700Y0016841D02*
X0274300Y0016841D01*
X0274300Y0018439D02*
X0265700Y0018439D01*
X0265700Y0020038D02*
X0274285Y0020038D01*
X0272686Y0021637D02*
X0265273Y0021637D01*
X0263674Y0023235D02*
X0271800Y0023235D01*
X0315000Y0023848D02*
X0320000Y0018848D01*
X0324455Y0015242D02*
X0325545Y0015242D01*
X0327143Y0013644D02*
X0322857Y0013644D01*
X0325000Y0023848D02*
X0325000Y0058848D01*
X0321430Y0063198D02*
X0318570Y0063198D01*
X0319922Y0061599D02*
X0320078Y0061599D01*
X0315000Y0058848D02*
X0315000Y0023848D01*
X0333674Y0023235D02*
X0340892Y0023235D01*
X0339755Y0021637D02*
X0335273Y0021637D01*
X0335700Y0020038D02*
X0338835Y0020038D01*
X0310078Y0061599D02*
X0309922Y0061599D01*
X0308570Y0063198D02*
X0311430Y0063198D01*
X0322787Y0115661D02*
X0322787Y0115661D01*
X0320177Y0119146D02*
X0314450Y0119146D01*
X0314450Y0120744D02*
X0318579Y0120744D01*
X0317160Y0122343D02*
X0314450Y0122343D01*
X0314450Y0123941D02*
X0316800Y0123941D01*
X0316800Y0125540D02*
X0314450Y0125540D01*
X0314450Y0127138D02*
X0316800Y0127138D01*
X0316800Y0128737D02*
X0314450Y0128737D01*
X0316012Y0130335D02*
X0316800Y0130335D01*
X0305000Y0129360D02*
X0305000Y0142943D01*
X0305000Y0143848D01*
X0131800Y0122343D02*
X0124900Y0122343D01*
X0124900Y0123941D02*
X0130382Y0123941D01*
X0128783Y0125540D02*
X0124900Y0125540D01*
X0124900Y0127138D02*
X0127185Y0127138D01*
X0125586Y0128737D02*
X0124900Y0128737D01*
X0124847Y0120744D02*
X0131800Y0120744D01*
X0131800Y0119146D02*
X0123454Y0119146D01*
X0122925Y0117547D02*
X0131800Y0117547D01*
X0131800Y0115949D02*
X0121626Y0115949D01*
X0120027Y0114350D02*
X0131800Y0114350D01*
X0131800Y0112752D02*
X0118429Y0112752D01*
X0122335Y0088774D02*
X0123491Y0088774D01*
X0123491Y0087175D02*
X0122335Y0087175D01*
X0122335Y0085577D02*
X0123491Y0085577D01*
X0123491Y0083978D02*
X0122335Y0083978D01*
X0122335Y0082380D02*
X0123491Y0082380D01*
X0123491Y0080781D02*
X0122335Y0080781D01*
D33*
X0166496Y0021348D02*
X0180000Y0021348D01*
X0230000Y0018848D02*
X0230000Y0013848D01*
X0230000Y0018848D02*
X0230000Y0023848D01*
D34*
X0180000Y0021348D03*
X0152500Y0033848D03*
X0125000Y0028848D03*
X0085000Y0028848D03*
X0086875Y0093848D03*
X0105000Y0093848D03*
X0070000Y0113848D03*
X0040000Y0113848D03*
X0021250Y0113848D03*
X0132500Y0171348D03*
X0155000Y0183848D03*
X0122500Y0198848D03*
X0105000Y0198848D03*
X0075000Y0188848D03*
X0195000Y0188848D03*
X0300000Y0158848D03*
X0308750Y0153848D03*
X0317500Y0168848D03*
X0310000Y0181348D03*
X0316250Y0113848D03*
X0335000Y0088848D03*
X0335000Y0078848D03*
X0320000Y0078848D03*
X0238750Y0073848D03*
D35*
X0245000Y0058848D02*
X0245000Y0053848D01*
X0230000Y0038848D01*
X0220000Y0028848D02*
X0220000Y0018848D01*
X0220000Y0028848D02*
X0200000Y0048848D01*
X0162600Y0048848D01*
X0320000Y0078848D02*
X0335000Y0078848D01*
X0055000Y0153848D02*
X0030000Y0153848D01*
D36*
X0110900Y0039748D02*
X0099882Y0028730D01*
X0110900Y0039748D02*
X0137400Y0039748D01*
M02*
