%
M48
M72
T01C0.0236
T02C0.0320
T03C0.0354
T04C0.0394
T05C0.0400
T06C0.0472
T07C0.1260
%
T01
X8500Y2885
X12500Y2885
X15250Y3385
X18000Y2135
X23875Y7385
X31625Y11385
X33500Y8885
X33500Y7885
X32000Y7885
X30875Y15385
X30000Y15885
X31750Y16885
X31000Y18135
X19500Y18885
X15500Y18385
X13250Y17135
X12250Y19885
X10500Y19885
X7500Y18885
X7000Y11385
X4000Y11385
X2125Y11385
X8688Y9385
X10500Y9385
T02
X19500Y8885
X20500Y8885
X21500Y8885
X22500Y8885
X23500Y8885
X24500Y8885
X25500Y8885
X26500Y8885
X27500Y8885
X28500Y8885
X29500Y8885
X30500Y8885
X31500Y8885
X32500Y8885
X32500Y5885
X31500Y5885
X30500Y5885
X29500Y5885
X28500Y5885
X27500Y5885
X26500Y5885
X25500Y5885
X24500Y5885
X23500Y5885
X22500Y5885
X21500Y5885
X20500Y5885
X19500Y5885
X30500Y14385
X31500Y14385
X17000Y16385
X16000Y16385
T03
X11484Y2448
X9516Y2448
T04
X19000Y1885
X20000Y1885
X21000Y1885
X22000Y1885
X23000Y1885
X24000Y1885
X25000Y1885
X26000Y1885
X28000Y1885
X29000Y1885
X30000Y1885
X31000Y1885
X32000Y1885
X33000Y1885
X33050Y10885
X34050Y10885
X34050Y11885
X33050Y11885
X33050Y12885
X34050Y12885
X33000Y20885
X32000Y20885
X31000Y20885
X30000Y20885
X29000Y20885
X28000Y20885
X27000Y20885
X26000Y20885
X24400Y20885
X23400Y20885
X22400Y20885
X21400Y20885
X20400Y20885
X19400Y20885
X18400Y20885
X17400Y20885
X16400Y20885
X15400Y20885
T05
X2500Y1885
X3500Y1885
X4500Y1885
X5500Y1885
X5500Y2885
X4500Y2885
X3500Y2885
X2500Y2885
X3000Y15385
X3000Y16385
X3000Y17385
X3000Y18385
X3000Y19385
X3000Y20385
X5500Y20385
X5500Y19385
X5500Y18385
X5500Y17385
X5500Y16385
X5500Y15385
T06
X9122Y1385
X11878Y1385
T07
X13500Y1885
X34000Y3885
X34000Y14885
X14000Y20885
M30
