G75*
%MOIN*%
%OFA0B0*%
%FSLAX25Y25*%
%IPPOS*%
%LPD*%
%AMOC8*
5,1,8,0,0,1.08239X$1,22.5*
%
%ADD10R,0.05524X0.10643*%
%ADD11R,0.07887X0.07099*%
%ADD12R,0.08200X0.08200*%
%ADD13C,0.08200*%
%ADD14C,0.07200*%
%ADD15OC8,0.07400*%
%ADD16R,0.07099X0.07887*%
%ADD17C,0.03535*%
%ADD18R,0.07100X0.04100*%
%ADD19R,0.07100X0.13000*%
%ADD20C,0.02572*%
%ADD21R,0.13760X0.06040*%
%ADD22OC8,0.07800*%
%ADD23R,0.07800X0.07800*%
%ADD24C,0.13398*%
%ADD25R,0.06312X0.12611*%
%ADD26R,0.07099X0.06312*%
%ADD27R,0.03300X0.05800*%
%ADD28C,0.00500*%
%ADD29R,0.02572X0.06115*%
%ADD30C,0.06743*%
%ADD31C,0.07924*%
%ADD32R,0.06706X0.06902*%
%ADD33R,0.05800X0.10800*%
D10*
X0153504Y0021348D03*
X0166496Y0021348D03*
D11*
X0073125Y0043337D03*
X0073125Y0054360D03*
X0073125Y0070837D03*
X0073125Y0081860D03*
X0065000Y0123337D03*
X0050000Y0123337D03*
X0050000Y0134360D03*
X0065000Y0134360D03*
X0035000Y0134360D03*
X0020000Y0134360D03*
X0020000Y0123337D03*
X0035000Y0123337D03*
X0015000Y0188337D03*
X0015000Y0199360D03*
X0305000Y0129360D03*
X0305000Y0118337D03*
D12*
X0055000Y0203848D03*
X0030000Y0203848D03*
D13*
X0025000Y0018848D03*
X0035000Y0018848D03*
X0045000Y0018848D03*
X0055000Y0018848D03*
X0055000Y0028848D03*
X0045000Y0028848D03*
X0035000Y0028848D03*
X0025000Y0028848D03*
X0030000Y0153848D03*
X0030000Y0163848D03*
X0030000Y0173848D03*
X0030000Y0183848D03*
X0030000Y0193848D03*
X0055000Y0193848D03*
X0055000Y0183848D03*
X0055000Y0173848D03*
X0055000Y0163848D03*
X0055000Y0153848D03*
D14*
X0195000Y0088848D03*
X0205000Y0088848D03*
X0215000Y0088848D03*
X0225000Y0088848D03*
X0235000Y0088848D03*
X0245000Y0088848D03*
X0255000Y0088848D03*
X0265000Y0088848D03*
X0275000Y0088848D03*
X0285000Y0088848D03*
X0295000Y0088848D03*
X0305000Y0088848D03*
X0315000Y0088848D03*
X0325000Y0088848D03*
X0325000Y0058848D03*
X0315000Y0058848D03*
X0305000Y0058848D03*
X0295000Y0058848D03*
X0285000Y0058848D03*
X0275000Y0058848D03*
X0265000Y0058848D03*
X0255000Y0058848D03*
X0245000Y0058848D03*
X0235000Y0058848D03*
X0225000Y0058848D03*
X0215000Y0058848D03*
X0205000Y0058848D03*
X0195000Y0058848D03*
D15*
X0190000Y0018848D03*
X0200000Y0018848D03*
X0210000Y0018848D03*
X0220000Y0018848D03*
X0230000Y0018848D03*
X0240000Y0018848D03*
X0250000Y0018848D03*
X0260000Y0018848D03*
X0280000Y0018848D03*
X0290000Y0018848D03*
X0300000Y0018848D03*
X0310000Y0018848D03*
X0320000Y0018848D03*
X0330000Y0018848D03*
X0315000Y0143848D03*
X0305000Y0143848D03*
X0300000Y0208848D03*
X0290000Y0208848D03*
X0280000Y0208848D03*
X0270000Y0208848D03*
X0260000Y0208848D03*
X0244000Y0208848D03*
X0234000Y0208848D03*
X0224000Y0208848D03*
X0214000Y0208848D03*
X0204000Y0208848D03*
X0194000Y0208848D03*
X0184000Y0208848D03*
X0174000Y0208848D03*
X0164000Y0208848D03*
X0154000Y0208848D03*
X0160000Y0163848D03*
X0170000Y0163848D03*
X0310000Y0208848D03*
X0320000Y0208848D03*
X0330000Y0208848D03*
D16*
X0145512Y0188848D03*
X0134488Y0188848D03*
X0134488Y0163848D03*
X0145512Y0163848D03*
D17*
X0125680Y0191379D02*
X0120146Y0191379D01*
X0125680Y0191379D02*
X0125680Y0188601D01*
X0120146Y0188601D01*
X0120146Y0191379D01*
X0120146Y0209096D02*
X0125680Y0209096D01*
X0125680Y0206318D01*
X0120146Y0206318D01*
X0120146Y0209096D01*
X0089854Y0209096D02*
X0084320Y0209096D01*
X0089854Y0209096D02*
X0089854Y0206318D01*
X0084320Y0206318D01*
X0084320Y0209096D01*
X0084320Y0191379D02*
X0089854Y0191379D01*
X0089854Y0188601D01*
X0084320Y0188601D01*
X0084320Y0191379D01*
X0084320Y0101318D02*
X0089854Y0101318D01*
X0084320Y0101318D02*
X0084320Y0104096D01*
X0089854Y0104096D01*
X0089854Y0101318D01*
X0089854Y0083601D02*
X0084320Y0083601D01*
X0084320Y0086379D01*
X0089854Y0086379D01*
X0089854Y0083601D01*
X0120146Y0083601D02*
X0125680Y0083601D01*
X0120146Y0083601D02*
X0120146Y0086379D01*
X0125680Y0086379D01*
X0125680Y0083601D01*
X0125680Y0101318D02*
X0120146Y0101318D01*
X0120146Y0104096D01*
X0125680Y0104096D01*
X0125680Y0101318D01*
D18*
X0137400Y0057948D03*
X0137400Y0048848D03*
X0137400Y0039748D03*
D19*
X0162600Y0048848D03*
D20*
X0235276Y0103484D02*
X0235276Y0109212D01*
X0240000Y0109212D02*
X0240000Y0103484D01*
X0244724Y0103484D02*
X0244724Y0109212D01*
D21*
X0240010Y0106358D03*
D22*
X0330500Y0108848D03*
X0340500Y0108848D03*
X0340500Y0118848D03*
X0330500Y0118848D03*
X0340500Y0128848D03*
D23*
X0330500Y0128848D03*
D24*
X0340000Y0148848D03*
X0340000Y0038848D03*
X0135000Y0018848D03*
X0140000Y0208848D03*
D25*
X0105000Y0068297D03*
X0105000Y0049400D03*
D26*
X0073125Y0029360D03*
X0073125Y0018337D03*
D27*
X0180500Y0163848D03*
X0184500Y0163848D03*
D28*
X0183250Y0163885D02*
X0181750Y0163885D01*
X0181750Y0164348D02*
X0181750Y0163348D01*
X0183250Y0163348D01*
X0183250Y0164348D01*
X0181750Y0164348D01*
X0181750Y0163387D02*
X0183250Y0163387D01*
D29*
X0110118Y0024380D03*
X0107559Y0024380D03*
X0105000Y0024380D03*
X0102441Y0024380D03*
X0099882Y0024380D03*
D30*
X0095157Y0024478D03*
X0114843Y0024478D03*
D31*
X0118780Y0013848D03*
X0091220Y0013848D03*
D32*
X0092992Y0013848D03*
X0101063Y0013848D03*
X0108937Y0013848D03*
X0117008Y0013848D03*
D33*
X0120000Y0126348D03*
X0110000Y0126348D03*
X0100000Y0126348D03*
X0090000Y0126348D03*
X0090000Y0161348D03*
X0100000Y0161348D03*
X0110000Y0161348D03*
X0120000Y0161348D03*
M02*
